<?xml version="1.0" encoding="UTF-8" standalone="no"?>
<!DOCTYPE svg PUBLIC "-//W3C//DTD SVG 1.1//EN"
 "http://www.w3.org/Graphics/SVG/1.1/DTD/svg11.dtd">
<!-- Generated by graphviz version 2.40.1 (20161225.0304)
 -->
<!-- Title: %3 Pages: 1 -->
<svg width="426pt" height="368pt"
 viewBox="0.00 0.00 426.00 368.00" xmlns="http://www.w3.org/2000/svg" xmlns:xlink="http://www.w3.org/1999/xlink">
<g id="graph0" class="graph" transform="scale(1 1) rotate(0) translate(4 364)">
<title>%3</title>
<polygon fill="#ffffff" stroke="transparent" points="-4,4 -4,-364 422,-364 422,4 -4,4"/>
<!-- timeline1 -->
<g id="node1" class="node">
<title>timeline1</title>
<ellipse fill="#ffffff" stroke="#000000" cx="31" cy="-342" rx="1.8" ry="1.8"/>
</g>
<!-- timeline2 -->
<g id="node2" class="node">
<title>timeline2</title>
<text text-anchor="middle" x="391" y="-339.5" font-family="sans-serif" font-size="10.00" fill="#000000">temps</text>
</g>
<!-- timeline1&#45;&gt;timeline2 -->
<g id="edge1" class="edge">
<title>timeline1&#45;&gt;timeline2</title>
<path fill="none" stroke="#000000" d="M32.9369,-342C55.3568,-342 266.4553,-342 353.6253,-342"/>
<polygon fill="#000000" stroke="#000000" points="353.8632,-345.5001 363.8631,-342 353.8631,-338.5001 353.8632,-345.5001"/>
</g>
<!-- version1 -->
<g id="node3" class="node">
<title>version1</title>
<path fill="#c6e2ff" stroke="#4a708b" d="M50,-324C50,-324 12,-324 12,-324 6,-324 0,-318 0,-312 0,-312 0,-300 0,-300 0,-294 6,-288 12,-288 12,-288 50,-288 50,-288 56,-288 62,-294 62,-300 62,-300 62,-312 62,-312 62,-318 56,-324 50,-324"/>
<text text-anchor="middle" x="31" y="-303.5" font-family="sans-serif" font-size="10.00" fill="#000000">Version 1</text>
</g>
<!-- version2 -->
<g id="node4" class="node">
<title>version2</title>
<path fill="#c6e2ff" stroke="#4a708b" d="M194,-324C194,-324 156,-324 156,-324 150,-324 144,-318 144,-312 144,-312 144,-300 144,-300 144,-294 150,-288 156,-288 156,-288 194,-288 194,-288 200,-288 206,-294 206,-300 206,-300 206,-312 206,-312 206,-318 200,-324 194,-324"/>
<text text-anchor="middle" x="175" y="-303.5" font-family="sans-serif" font-size="10.00" fill="#000000">Version 2</text>
</g>
<!-- version1&#45;&gt;version2 -->
<g id="edge2" class="edge">
<title>version1&#45;&gt;version2</title>
<path fill="none" stroke="#000000" d="M62.2459,-306C83.1916,-306 110.9985,-306 133.7567,-306"/>
<polygon fill="#000000" stroke="#000000" points="133.8152,-309.5001 143.8151,-306 133.8151,-302.5001 133.8152,-309.5001"/>
</g>
<!-- Makefile1 -->
<g id="node6" class="node">
<title>Makefile1</title>
<path fill="#ffffff" stroke="#000000" d="M48,-252C48,-252 14,-252 14,-252 8,-252 2,-246 2,-240 2,-240 2,-228 2,-228 2,-222 8,-216 14,-216 14,-216 48,-216 48,-216 54,-216 60,-222 60,-228 60,-228 60,-240 60,-240 60,-246 54,-252 48,-252"/>
<text text-anchor="middle" x="31" y="-231.5" font-family="sans-serif" font-size="10.00" fill="#000000">Makefile</text>
</g>
<!-- version1&#45;&gt;Makefile1 -->
<g id="edge4" class="edge">
<title>version1&#45;&gt;Makefile1</title>
<path fill="none" stroke="#000000" d="M31,-287.8314C31,-280.131 31,-270.9743 31,-262.4166"/>
<polygon fill="#000000" stroke="#000000" points="34.5001,-262.4132 31,-252.4133 27.5001,-262.4133 34.5001,-262.4132"/>
</g>
<!-- version3 -->
<g id="node5" class="node">
<title>version3</title>
<path fill="#c6e2ff" stroke="#4a708b" d="M338,-324C338,-324 300,-324 300,-324 294,-324 288,-318 288,-312 288,-312 288,-300 288,-300 288,-294 294,-288 300,-288 300,-288 338,-288 338,-288 344,-288 350,-294 350,-300 350,-300 350,-312 350,-312 350,-318 344,-324 338,-324"/>
<text text-anchor="middle" x="319" y="-303.5" font-family="sans-serif" font-size="10.00" fill="#000000">Version 3</text>
</g>
<!-- version2&#45;&gt;version3 -->
<g id="edge3" class="edge">
<title>version2&#45;&gt;version3</title>
<path fill="none" stroke="#000000" d="M206.2459,-306C227.1916,-306 254.9985,-306 277.7567,-306"/>
<polygon fill="#000000" stroke="#000000" points="277.8152,-309.5001 287.8151,-306 277.8151,-302.5001 277.8152,-309.5001"/>
</g>
<!-- Makefile2 -->
<g id="node7" class="node">
<title>Makefile2</title>
<path fill="#ffffff" stroke="#000000" d="M192,-252C192,-252 158,-252 158,-252 152,-252 146,-246 146,-240 146,-240 146,-228 146,-228 146,-222 152,-216 158,-216 158,-216 192,-216 192,-216 198,-216 204,-222 204,-228 204,-228 204,-240 204,-240 204,-246 198,-252 192,-252"/>
<text text-anchor="middle" x="175" y="-231.5" font-family="sans-serif" font-size="10.00" fill="#000000">Makefile</text>
</g>
<!-- version2&#45;&gt;Makefile2 -->
<g id="edge7" class="edge">
<title>version2&#45;&gt;Makefile2</title>
<path fill="none" stroke="#000000" d="M175,-287.8314C175,-280.131 175,-270.9743 175,-262.4166"/>
<polygon fill="#000000" stroke="#000000" points="178.5001,-262.4132 175,-252.4133 171.5001,-262.4133 178.5001,-262.4132"/>
</g>
<!-- Makefile3 -->
<g id="node8" class="node">
<title>Makefile3</title>
<path fill="#ffffff" stroke="#c0c0c0" stroke-dasharray="5,2" d="M336,-252C336,-252 302,-252 302,-252 296,-252 290,-246 290,-240 290,-240 290,-228 290,-228 290,-222 296,-216 302,-216 302,-216 336,-216 336,-216 342,-216 348,-222 348,-228 348,-228 348,-240 348,-240 348,-246 342,-252 336,-252"/>
<text text-anchor="middle" x="319" y="-231.5" font-family="sans-serif" font-size="10.00" fill="#000000">Makefile</text>
</g>
<!-- version3&#45;&gt;Makefile3 -->
<g id="edge11" class="edge">
<title>version3&#45;&gt;Makefile3</title>
<path fill="none" stroke="#000000" d="M319,-287.8314C319,-280.131 319,-270.9743 319,-262.4166"/>
<polygon fill="#000000" stroke="#000000" points="322.5001,-262.4132 319,-252.4133 315.5001,-262.4133 322.5001,-262.4132"/>
</g>
<!-- mainc1 -->
<g id="node9" class="node">
<title>mainc1</title>
<path fill="#ffffff" stroke="#000000" d="M46,-180C46,-180 16,-180 16,-180 10,-180 4,-174 4,-168 4,-168 4,-156 4,-156 4,-150 10,-144 16,-144 16,-144 46,-144 46,-144 52,-144 58,-150 58,-156 58,-156 58,-168 58,-168 58,-174 52,-180 46,-180"/>
<text text-anchor="middle" x="31" y="-159.5" font-family="sans-serif" font-size="10.00" fill="#000000">main.c</text>
</g>
<!-- Makefile1&#45;&gt;mainc1 -->
<g id="edge5" class="edge">
<title>Makefile1&#45;&gt;mainc1</title>
<path fill="none" stroke="#000000" d="M31,-215.8314C31,-208.131 31,-198.9743 31,-190.4166"/>
<polygon fill="#000000" stroke="#000000" points="34.5001,-190.4132 31,-180.4133 27.5001,-190.4133 34.5001,-190.4132"/>
</g>
<!-- mainc2 -->
<g id="node10" class="node">
<title>mainc2</title>
<path fill="#ffffff" stroke="#c0c0c0" stroke-dasharray="5,2" d="M190,-180C190,-180 160,-180 160,-180 154,-180 148,-174 148,-168 148,-168 148,-156 148,-156 148,-150 154,-144 160,-144 160,-144 190,-144 190,-144 196,-144 202,-150 202,-156 202,-156 202,-168 202,-168 202,-174 196,-180 190,-180"/>
<text text-anchor="middle" x="175" y="-159.5" font-family="sans-serif" font-size="10.00" fill="#000000">main.c</text>
</g>
<!-- Makefile2&#45;&gt;mainc2 -->
<g id="edge8" class="edge">
<title>Makefile2&#45;&gt;mainc2</title>
<path fill="none" stroke="#000000" d="M175,-215.8314C175,-208.131 175,-198.9743 175,-190.4166"/>
<polygon fill="#000000" stroke="#000000" points="178.5001,-190.4132 175,-180.4133 171.5001,-190.4133 178.5001,-190.4132"/>
</g>
<!-- mainc3 -->
<g id="node11" class="node">
<title>mainc3</title>
<path fill="#ffffff" stroke="#000000" d="M334,-180C334,-180 304,-180 304,-180 298,-180 292,-174 292,-168 292,-168 292,-156 292,-156 292,-150 298,-144 304,-144 304,-144 334,-144 334,-144 340,-144 346,-150 346,-156 346,-156 346,-168 346,-168 346,-174 340,-180 334,-180"/>
<text text-anchor="middle" x="319" y="-159.5" font-family="sans-serif" font-size="10.00" fill="#000000">main.c</text>
</g>
<!-- Makefile3&#45;&gt;mainc3 -->
<g id="edge12" class="edge">
<title>Makefile3&#45;&gt;mainc3</title>
<path fill="none" stroke="#000000" d="M319,-215.8314C319,-208.131 319,-198.9743 319,-190.4166"/>
<polygon fill="#000000" stroke="#000000" points="322.5001,-190.4132 319,-180.4133 315.5001,-190.4133 322.5001,-190.4132"/>
</g>
<!-- mainh1 -->
<g id="node12" class="node">
<title>mainh1</title>
<path fill="#ffffff" stroke="#000000" d="M46,-108C46,-108 16,-108 16,-108 10,-108 4,-102 4,-96 4,-96 4,-84 4,-84 4,-78 10,-72 16,-72 16,-72 46,-72 46,-72 52,-72 58,-78 58,-84 58,-84 58,-96 58,-96 58,-102 52,-108 46,-108"/>
<text text-anchor="middle" x="31" y="-87.5" font-family="sans-serif" font-size="10.00" fill="#000000">main.h</text>
</g>
<!-- mainc1&#45;&gt;mainh1 -->
<g id="edge6" class="edge">
<title>mainc1&#45;&gt;mainh1</title>
<path fill="none" stroke="#000000" d="M31,-143.8314C31,-136.131 31,-126.9743 31,-118.4166"/>
<polygon fill="#000000" stroke="#000000" points="34.5001,-118.4132 31,-108.4133 27.5001,-118.4133 34.5001,-118.4132"/>
</g>
<!-- mainh2 -->
<g id="node13" class="node">
<title>mainh2</title>
<path fill="#ffffff" stroke="#000000" d="M190,-108C190,-108 160,-108 160,-108 154,-108 148,-102 148,-96 148,-96 148,-84 148,-84 148,-78 154,-72 160,-72 160,-72 190,-72 190,-72 196,-72 202,-78 202,-84 202,-84 202,-96 202,-96 202,-102 196,-108 190,-108"/>
<text text-anchor="middle" x="175" y="-87.5" font-family="sans-serif" font-size="10.00" fill="#000000">main.h</text>
</g>
<!-- mainc2&#45;&gt;mainh2 -->
<g id="edge9" class="edge">
<title>mainc2&#45;&gt;mainh2</title>
<path fill="none" stroke="#000000" d="M175,-143.8314C175,-136.131 175,-126.9743 175,-118.4166"/>
<polygon fill="#000000" stroke="#000000" points="178.5001,-118.4132 175,-108.4133 171.5001,-118.4133 178.5001,-118.4132"/>
</g>
<!-- mainh3 -->
<g id="node14" class="node">
<title>mainh3</title>
<path fill="#ffffff" stroke="#c0c0c0" stroke-dasharray="5,2" d="M334,-108C334,-108 304,-108 304,-108 298,-108 292,-102 292,-96 292,-96 292,-84 292,-84 292,-78 298,-72 304,-72 304,-72 334,-72 334,-72 340,-72 346,-78 346,-84 346,-84 346,-96 346,-96 346,-102 340,-108 334,-108"/>
<text text-anchor="middle" x="319" y="-87.5" font-family="sans-serif" font-size="10.00" fill="#000000">main.h</text>
</g>
<!-- mainc3&#45;&gt;mainh3 -->
<g id="edge13" class="edge">
<title>mainc3&#45;&gt;mainh3</title>
<path fill="none" stroke="#000000" d="M319,-143.8314C319,-136.131 319,-126.9743 319,-118.4166"/>
<polygon fill="#000000" stroke="#000000" points="322.5001,-118.4132 319,-108.4133 315.5001,-118.4133 322.5001,-118.4132"/>
</g>
<!-- printc2 -->
<g id="node15" class="node">
<title>printc2</title>
<path fill="#ffffff" stroke="#000000" d="M190,-36C190,-36 160,-36 160,-36 154,-36 148,-30 148,-24 148,-24 148,-12 148,-12 148,-6 154,0 160,0 160,0 190,0 190,0 196,0 202,-6 202,-12 202,-12 202,-24 202,-24 202,-30 196,-36 190,-36"/>
<text text-anchor="middle" x="175" y="-15.5" font-family="sans-serif" font-size="10.00" fill="#000000">print.c</text>
</g>
<!-- mainh2&#45;&gt;printc2 -->
<g id="edge10" class="edge">
<title>mainh2&#45;&gt;printc2</title>
<path fill="none" stroke="#000000" d="M175,-71.8314C175,-64.131 175,-54.9743 175,-46.4166"/>
<polygon fill="#000000" stroke="#000000" points="178.5001,-46.4132 175,-36.4133 171.5001,-46.4133 178.5001,-46.4132"/>
</g>
<!-- printc3 -->
<g id="node16" class="node">
<title>printc3</title>
<path fill="#ffffff" stroke="#c0c0c0" stroke-dasharray="5,2" d="M334,-36C334,-36 304,-36 304,-36 298,-36 292,-30 292,-24 292,-24 292,-12 292,-12 292,-6 298,0 304,0 304,0 334,0 334,0 340,0 346,-6 346,-12 346,-12 346,-24 346,-24 346,-30 340,-36 334,-36"/>
<text text-anchor="middle" x="319" y="-15.5" font-family="sans-serif" font-size="10.00" fill="#000000">print.c</text>
</g>
<!-- mainh3&#45;&gt;printc3 -->
<g id="edge14" class="edge">
<title>mainh3&#45;&gt;printc3</title>
<path fill="none" stroke="#000000" d="M319,-71.8314C319,-64.131 319,-54.9743 319,-46.4166"/>
<polygon fill="#000000" stroke="#000000" points="322.5001,-46.4132 319,-36.4133 315.5001,-46.4133 322.5001,-46.4132"/>
</g>
</g>
</svg>
