<?xml version="1.0" encoding="UTF-8" standalone="no"?>
<!DOCTYPE svg PUBLIC "-//W3C//DTD SVG 1.1//EN"
 "http://www.w3.org/Graphics/SVG/1.1/DTD/svg11.dtd">
<!-- Generated by graphviz version 2.40.1 (20161225.0304)
 -->
<!-- Title: git history Pages: 1 -->
<svg width="318pt" height="332pt"
 viewBox="0.00 0.00 318.00 332.00" xmlns="http://www.w3.org/2000/svg" xmlns:xlink="http://www.w3.org/1999/xlink">
<g id="graph0" class="graph" transform="scale(1 1) rotate(0) translate(4 328)">
<title>git history</title>
<polygon fill="#ffffff" stroke="transparent" points="-4,4 -4,-328 314,-328 314,4 -4,4"/>
<!-- master -->
<g id="node1" class="node">
<title>master</title>
<path fill="#ffb6c1" stroke="#8b3a3a" d="M231,-252C231,-252 201,-252 201,-252 195,-252 189,-246 189,-240 189,-240 189,-228 189,-228 189,-222 195,-216 201,-216 201,-216 231,-216 231,-216 237,-216 243,-222 243,-228 243,-228 243,-240 243,-240 243,-246 237,-252 231,-252"/>
<text text-anchor="middle" x="216" y="-231.5" font-family="sans-serif" font-size="10.00" fill="#000000">master</text>
</g>
<!-- eede1c8 -->
<g id="node2" class="node">
<title>eede1c8</title>
<path fill="#c6e2ff" stroke="#4a708b" d="M283,-180C283,-180 149,-180 149,-180 143,-180 137,-174 137,-168 137,-168 137,-156 137,-156 137,-150 143,-144 149,-144 149,-144 283,-144 283,-144 289,-144 295,-150 295,-156 295,-156 295,-168 295,-168 295,-174 289,-180 283,-180"/>
<text text-anchor="middle" x="216" y="-165" font-family="sans-serif" font-size="10.00" fill="#000000">eede1c8</text>
<text text-anchor="middle" x="216" y="-154" font-family="sans-serif" font-size="10.00" fill="#000000">Merge branch &#39;master&#39; of [...]</text>
</g>
<!-- master&#45;&gt;eede1c8 -->
<g id="edge1" class="edge">
<title>master&#45;&gt;eede1c8</title>
<path fill="none" stroke="#000000" d="M216,-215.8314C216,-208.131 216,-198.9743 216,-190.4166"/>
<polygon fill="#000000" stroke="#000000" points="219.5001,-190.4132 216,-180.4133 212.5001,-190.4133 219.5001,-190.4132"/>
</g>
<!-- 205842a -->
<g id="node5" class="node">
<title>205842a</title>
<path fill="#c6e2ff" stroke="#4a708b" d="M118,-108C118,-108 12,-108 12,-108 6,-108 0,-102 0,-96 0,-96 0,-84 0,-84 0,-78 6,-72 12,-72 12,-72 118,-72 118,-72 124,-72 130,-78 130,-84 130,-84 130,-96 130,-96 130,-102 124,-108 118,-108"/>
<text text-anchor="middle" x="65" y="-93" font-family="sans-serif" font-size="10.00" fill="#000000">205842a</text>
<text text-anchor="middle" x="65" y="-82" font-family="sans-serif" font-size="10.00" fill="#000000">Add a return statement</text>
</g>
<!-- eede1c8&#45;&gt;205842a -->
<g id="edge8" class="edge">
<title>eede1c8&#45;&gt;205842a</title>
<path fill="none" stroke="#000000" d="M177.8963,-143.8314C157.8805,-134.2874 133.1733,-122.5065 111.9806,-112.4013"/>
<polygon fill="#000000" stroke="#000000" points="113.3625,-109.1828 102.8297,-108.038 110.3497,-115.5013 113.3625,-109.1828"/>
</g>
<!-- 73c6a3a -->
<g id="node8" class="node">
<title>73c6a3a</title>
<path fill="#c6e2ff" stroke="#4a708b" d="M298,-108C298,-108 160,-108 160,-108 154,-108 148,-102 148,-96 148,-96 148,-84 148,-84 148,-78 154,-72 160,-72 160,-72 298,-72 298,-72 304,-72 310,-78 310,-84 310,-84 310,-96 310,-96 310,-102 304,-108 298,-108"/>
<text text-anchor="middle" x="229" y="-93" font-family="sans-serif" font-size="10.00" fill="#000000">73c6a3a</text>
<text text-anchor="middle" x="229" y="-82" font-family="sans-serif" font-size="10.00" fill="#000000">Add missing return statement</text>
</g>
<!-- eede1c8&#45;&gt;73c6a3a -->
<g id="edge7" class="edge">
<title>eede1c8&#45;&gt;73c6a3a</title>
<path fill="none" stroke="#000000" d="M219.2804,-143.8314C220.6708,-136.131 222.3241,-126.9743 223.8692,-118.4166"/>
<polygon fill="#000000" stroke="#000000" points="227.3428,-118.8761 225.6754,-108.4133 220.4542,-117.6322 227.3428,-118.8761"/>
</g>
<!-- HEAD -->
<g id="node3" class="node">
<title>HEAD</title>
<path fill="#fff68f" stroke="#cdbe70" d="M231,-324C231,-324 201,-324 201,-324 195,-324 189,-318 189,-312 189,-312 189,-300 189,-300 189,-294 195,-288 201,-288 201,-288 231,-288 231,-288 237,-288 243,-294 243,-300 243,-300 243,-312 243,-312 243,-318 237,-324 231,-324"/>
<text text-anchor="middle" x="216" y="-303.5" font-family="sans-serif" font-size="10.00" fill="#000000">HEAD</text>
</g>
<!-- HEAD&#45;&gt;master -->
<g id="edge2" class="edge">
<title>HEAD&#45;&gt;master</title>
<path fill="none" stroke="#000000" d="M216,-287.8314C216,-280.131 216,-270.9743 216,-262.4166"/>
<polygon fill="#000000" stroke="#000000" points="219.5001,-262.4132 216,-252.4133 212.5001,-262.4133 219.5001,-262.4132"/>
</g>
<!-- origin/master -->
<g id="node4" class="node">
<title>origin/master</title>
<path fill="#ffb6c1" stroke="#8b3a3a" d="M94,-180C94,-180 36,-180 36,-180 30,-180 24,-174 24,-168 24,-168 24,-156 24,-156 24,-150 30,-144 36,-144 36,-144 94,-144 94,-144 100,-144 106,-150 106,-156 106,-156 106,-168 106,-168 106,-174 100,-180 94,-180"/>
<text text-anchor="middle" x="65" y="-159.5" font-family="sans-serif" font-size="10.00" fill="#000000">origin/master</text>
</g>
<!-- origin/master&#45;&gt;205842a -->
<g id="edge3" class="edge">
<title>origin/master&#45;&gt;205842a</title>
<path fill="none" stroke="#000000" d="M65,-143.8314C65,-136.131 65,-126.9743 65,-118.4166"/>
<polygon fill="#000000" stroke="#000000" points="68.5001,-118.4132 65,-108.4133 61.5001,-118.4133 68.5001,-118.4132"/>
</g>
<!-- 80507e3 -->
<g id="node7" class="node">
<title>80507e3</title>
<path fill="#c6e2ff" stroke="#4a708b" d="M177.5,-36C177.5,-36 116.5,-36 116.5,-36 110.5,-36 104.5,-30 104.5,-24 104.5,-24 104.5,-12 104.5,-12 104.5,-6 110.5,0 116.5,0 116.5,0 177.5,0 177.5,0 183.5,0 189.5,-6 189.5,-12 189.5,-12 189.5,-24 189.5,-24 189.5,-30 183.5,-36 177.5,-36"/>
<text text-anchor="middle" x="147" y="-21" font-family="sans-serif" font-size="10.00" fill="#000000">80507e3</text>
<text text-anchor="middle" x="147" y="-10" font-family="sans-serif" font-size="10.00" fill="#000000">Initial commit</text>
</g>
<!-- 205842a&#45;&gt;80507e3 -->
<g id="edge5" class="edge">
<title>205842a&#45;&gt;80507e3</title>
<path fill="none" stroke="#000000" d="M85.6921,-71.8314C95.6948,-63.0485 107.855,-52.3712 118.6999,-42.8489"/>
<polygon fill="#000000" stroke="#000000" points="121.1094,-45.3909 126.3146,-36.1628 116.4908,-40.1308 121.1094,-45.3909"/>
</g>
<!-- origin -->
<g id="node6" class="node">
<title>origin</title>
<path fill="#fff68f" stroke="#cdbe70" d="M80,-252C80,-252 50,-252 50,-252 44,-252 38,-246 38,-240 38,-240 38,-228 38,-228 38,-222 44,-216 50,-216 50,-216 80,-216 80,-216 86,-216 92,-222 92,-228 92,-228 92,-240 92,-240 92,-246 86,-252 80,-252"/>
<text text-anchor="middle" x="65" y="-231.5" font-family="sans-serif" font-size="10.00" fill="#000000">origin</text>
</g>
<!-- origin&#45;&gt;origin/master -->
<g id="edge4" class="edge">
<title>origin&#45;&gt;origin/master</title>
<path fill="none" stroke="#000000" d="M65,-215.8314C65,-208.131 65,-198.9743 65,-190.4166"/>
<polygon fill="#000000" stroke="#000000" points="68.5001,-190.4132 65,-180.4133 61.5001,-190.4133 68.5001,-190.4132"/>
</g>
<!-- 73c6a3a&#45;&gt;80507e3 -->
<g id="edge6" class="edge">
<title>73c6a3a&#45;&gt;80507e3</title>
<path fill="none" stroke="#000000" d="M208.3079,-71.8314C198.3052,-63.0485 186.145,-52.3712 175.3001,-42.8489"/>
<polygon fill="#000000" stroke="#000000" points="177.5092,-40.1308 167.6854,-36.1628 172.8906,-45.3909 177.5092,-40.1308"/>
</g>
</g>
</svg>
