<?xml version="1.0" encoding="UTF-8" standalone="no"?>
<!DOCTYPE svg PUBLIC "-//W3C//DTD SVG 1.1//EN"
 "http://www.w3.org/Graphics/SVG/1.1/DTD/svg11.dtd">
<!-- Generated by graphviz version 2.40.1 (20161225.0304)
 -->
<!-- Title: git history Pages: 1 -->
<svg width="93pt" height="188pt"
 viewBox="0.00 0.00 93.00 188.00" xmlns="http://www.w3.org/2000/svg" xmlns:xlink="http://www.w3.org/1999/xlink">
<g id="graph0" class="graph" transform="scale(1 1) rotate(0) translate(4 184)">
<title>git history</title>
<polygon fill="#ffffff" stroke="transparent" points="-4,4 -4,-184 89,-184 89,4 -4,4"/>
<!-- master -->
<g id="node1" class="node">
<title>master</title>
<path fill="#ffb6c1" stroke="#8b3a3a" d="M57.5,-108C57.5,-108 27.5,-108 27.5,-108 21.5,-108 15.5,-102 15.5,-96 15.5,-96 15.5,-84 15.5,-84 15.5,-78 21.5,-72 27.5,-72 27.5,-72 57.5,-72 57.5,-72 63.5,-72 69.5,-78 69.5,-84 69.5,-84 69.5,-96 69.5,-96 69.5,-102 63.5,-108 57.5,-108"/>
<text text-anchor="middle" x="42.5" y="-87.5" font-family="sans-serif" font-size="10.00" fill="#000000">master</text>
</g>
<!-- 80507e3 -->
<g id="node2" class="node">
<title>80507e3</title>
<path fill="#c6e2ff" stroke="#4a708b" d="M73,-36C73,-36 12,-36 12,-36 6,-36 0,-30 0,-24 0,-24 0,-12 0,-12 0,-6 6,0 12,0 12,0 73,0 73,0 79,0 85,-6 85,-12 85,-12 85,-24 85,-24 85,-30 79,-36 73,-36"/>
<text text-anchor="middle" x="42.5" y="-21" font-family="sans-serif" font-size="10.00" fill="#000000">80507e3</text>
<text text-anchor="middle" x="42.5" y="-10" font-family="sans-serif" font-size="10.00" fill="#000000">Initial commit</text>
</g>
<!-- master&#45;&gt;80507e3 -->
<g id="edge1" class="edge">
<title>master&#45;&gt;80507e3</title>
<path fill="none" stroke="#000000" d="M42.5,-71.8314C42.5,-64.131 42.5,-54.9743 42.5,-46.4166"/>
<polygon fill="#000000" stroke="#000000" points="46.0001,-46.4132 42.5,-36.4133 39.0001,-46.4133 46.0001,-46.4132"/>
</g>
<!-- HEAD -->
<g id="node3" class="node">
<title>HEAD</title>
<path fill="#fff68f" stroke="#cdbe70" d="M57.5,-180C57.5,-180 27.5,-180 27.5,-180 21.5,-180 15.5,-174 15.5,-168 15.5,-168 15.5,-156 15.5,-156 15.5,-150 21.5,-144 27.5,-144 27.5,-144 57.5,-144 57.5,-144 63.5,-144 69.5,-150 69.5,-156 69.5,-156 69.5,-168 69.5,-168 69.5,-174 63.5,-180 57.5,-180"/>
<text text-anchor="middle" x="42.5" y="-159.5" font-family="sans-serif" font-size="10.00" fill="#000000">HEAD</text>
</g>
<!-- HEAD&#45;&gt;master -->
<g id="edge2" class="edge">
<title>HEAD&#45;&gt;master</title>
<path fill="none" stroke="#000000" d="M42.5,-143.8314C42.5,-136.131 42.5,-126.9743 42.5,-118.4166"/>
<polygon fill="#000000" stroke="#000000" points="46.0001,-118.4132 42.5,-108.4133 39.0001,-118.4133 46.0001,-118.4132"/>
</g>
</g>
</svg>
