<?xml version="1.0" encoding="UTF-8" standalone="no"?>
<!DOCTYPE svg PUBLIC "-//W3C//DTD SVG 1.1//EN"
 "http://www.w3.org/Graphics/SVG/1.1/DTD/svg11.dtd">
<!-- Generated by graphviz version 2.40.1 (20161225.0304)
 -->
<!-- Title: git history Pages: 1 -->
<svg width="162pt" height="188pt"
 viewBox="0.00 0.00 162.00 188.00" xmlns="http://www.w3.org/2000/svg" xmlns:xlink="http://www.w3.org/1999/xlink">
<g id="graph0" class="graph" transform="scale(1 1) rotate(0) translate(4 184)">
<title>git history</title>
<polygon fill="#ffffff" stroke="transparent" points="-4,4 -4,-184 158,-184 158,4 -4,4"/>
<!-- master -->
<g id="node1" class="node">
<title>master</title>
<path fill="#ffb6c1" stroke="#8b3a3a" d="M142,-108C142,-108 112,-108 112,-108 106,-108 100,-102 100,-96 100,-96 100,-84 100,-84 100,-78 106,-72 112,-72 112,-72 142,-72 142,-72 148,-72 154,-78 154,-84 154,-84 154,-96 154,-96 154,-102 148,-108 142,-108"/>
<text text-anchor="middle" x="127" y="-87.5" font-family="sans-serif" font-size="10.00" fill="#000000">master</text>
</g>
<!-- 80507e3 -->
<g id="node2" class="node">
<title>80507e3</title>
<path fill="#c6e2ff" stroke="#4a708b" d="M114.5,-36C114.5,-36 53.5,-36 53.5,-36 47.5,-36 41.5,-30 41.5,-24 41.5,-24 41.5,-12 41.5,-12 41.5,-6 47.5,0 53.5,0 53.5,0 114.5,0 114.5,0 120.5,0 126.5,-6 126.5,-12 126.5,-12 126.5,-24 126.5,-24 126.5,-30 120.5,-36 114.5,-36"/>
<text text-anchor="middle" x="84" y="-21" font-family="sans-serif" font-size="10.00" fill="#000000">80507e3</text>
<text text-anchor="middle" x="84" y="-10" font-family="sans-serif" font-size="10.00" fill="#000000">Initial commit</text>
</g>
<!-- master&#45;&gt;80507e3 -->
<g id="edge1" class="edge">
<title>master&#45;&gt;80507e3</title>
<path fill="none" stroke="#000000" d="M116.1493,-71.8314C111.2977,-63.7079 105.4783,-53.9637 100.132,-45.0118"/>
<polygon fill="#000000" stroke="#000000" points="103.1292,-43.2041 94.9968,-36.4133 97.1194,-46.7933 103.1292,-43.2041"/>
</g>
<!-- HEAD -->
<g id="node3" class="node">
<title>HEAD</title>
<path fill="#fff68f" stroke="#cdbe70" d="M142,-180C142,-180 112,-180 112,-180 106,-180 100,-174 100,-168 100,-168 100,-156 100,-156 100,-150 106,-144 112,-144 112,-144 142,-144 142,-144 148,-144 154,-150 154,-156 154,-156 154,-168 154,-168 154,-174 148,-180 142,-180"/>
<text text-anchor="middle" x="127" y="-159.5" font-family="sans-serif" font-size="10.00" fill="#000000">HEAD</text>
</g>
<!-- HEAD&#45;&gt;master -->
<g id="edge2" class="edge">
<title>HEAD&#45;&gt;master</title>
<path fill="none" stroke="#000000" d="M127,-143.8314C127,-136.131 127,-126.9743 127,-118.4166"/>
<polygon fill="#000000" stroke="#000000" points="130.5001,-118.4132 127,-108.4133 123.5001,-118.4133 130.5001,-118.4132"/>
</g>
<!-- origin/master -->
<g id="node4" class="node">
<title>origin/master</title>
<path fill="#ffb6c1" stroke="#8b3a3a" d="M70,-108C70,-108 12,-108 12,-108 6,-108 0,-102 0,-96 0,-96 0,-84 0,-84 0,-78 6,-72 12,-72 12,-72 70,-72 70,-72 76,-72 82,-78 82,-84 82,-84 82,-96 82,-96 82,-102 76,-108 70,-108"/>
<text text-anchor="middle" x="41" y="-87.5" font-family="sans-serif" font-size="10.00" fill="#000000">origin/master</text>
</g>
<!-- origin/master&#45;&gt;80507e3 -->
<g id="edge3" class="edge">
<title>origin/master&#45;&gt;80507e3</title>
<path fill="none" stroke="#000000" d="M51.8507,-71.8314C56.7023,-63.7079 62.5217,-53.9637 67.868,-45.0118"/>
<polygon fill="#000000" stroke="#000000" points="70.8806,-46.7933 73.0032,-36.4133 64.8708,-43.2041 70.8806,-46.7933"/>
</g>
<!-- origin -->
<g id="node5" class="node">
<title>origin</title>
<path fill="#fff68f" stroke="#cdbe70" d="M56,-180C56,-180 26,-180 26,-180 20,-180 14,-174 14,-168 14,-168 14,-156 14,-156 14,-150 20,-144 26,-144 26,-144 56,-144 56,-144 62,-144 68,-150 68,-156 68,-156 68,-168 68,-168 68,-174 62,-180 56,-180"/>
<text text-anchor="middle" x="41" y="-159.5" font-family="sans-serif" font-size="10.00" fill="#000000">origin</text>
</g>
<!-- origin&#45;&gt;origin/master -->
<g id="edge4" class="edge">
<title>origin&#45;&gt;origin/master</title>
<path fill="none" stroke="#000000" d="M41,-143.8314C41,-136.131 41,-126.9743 41,-118.4166"/>
<polygon fill="#000000" stroke="#000000" points="44.5001,-118.4132 41,-108.4133 37.5001,-118.4133 44.5001,-118.4132"/>
</g>
</g>
</svg>
