<?xml version="1.0" encoding="UTF-8" standalone="no"?>
<!DOCTYPE svg PUBLIC "-//W3C//DTD SVG 1.1//EN"
 "http://www.w3.org/Graphics/SVG/1.1/DTD/svg11.dtd">
<!-- Generated by graphviz version 2.40.1 (20161225.0304)
 -->
<!-- Title: git history Pages: 1 -->
<svg width="238pt" height="260pt"
 viewBox="0.00 0.00 238.00 260.00" xmlns="http://www.w3.org/2000/svg" xmlns:xlink="http://www.w3.org/1999/xlink">
<g id="graph0" class="graph" transform="scale(1 1) rotate(0) translate(4 256)">
<title>git history</title>
<polygon fill="#ffffff" stroke="transparent" points="-4,4 -4,-256 234,-256 234,4 -4,4"/>
<!-- master -->
<g id="node1" class="node">
<title>master</title>
<path fill="#ffb6c1" stroke="#8b3a3a" d="M180,-180C180,-180 150,-180 150,-180 144,-180 138,-174 138,-168 138,-168 138,-156 138,-156 138,-150 144,-144 150,-144 150,-144 180,-144 180,-144 186,-144 192,-150 192,-156 192,-156 192,-168 192,-168 192,-174 186,-180 180,-180"/>
<text text-anchor="middle" x="165" y="-159.5" font-family="sans-serif" font-size="10.00" fill="#000000">master</text>
</g>
<!-- 205842a -->
<g id="node2" class="node">
<title>205842a</title>
<path fill="#c6e2ff" stroke="#4a708b" d="M218,-108C218,-108 112,-108 112,-108 106,-108 100,-102 100,-96 100,-96 100,-84 100,-84 100,-78 106,-72 112,-72 112,-72 218,-72 218,-72 224,-72 230,-78 230,-84 230,-84 230,-96 230,-96 230,-102 224,-108 218,-108"/>
<text text-anchor="middle" x="165" y="-93" font-family="sans-serif" font-size="10.00" fill="#000000">205842a</text>
<text text-anchor="middle" x="165" y="-82" font-family="sans-serif" font-size="10.00" fill="#000000">Add a return statement</text>
</g>
<!-- master&#45;&gt;205842a -->
<g id="edge1" class="edge">
<title>master&#45;&gt;205842a</title>
<path fill="none" stroke="#000000" d="M165,-143.8314C165,-136.131 165,-126.9743 165,-118.4166"/>
<polygon fill="#000000" stroke="#000000" points="168.5001,-118.4132 165,-108.4133 161.5001,-118.4133 168.5001,-118.4132"/>
</g>
<!-- 80507e3 -->
<g id="node5" class="node">
<title>80507e3</title>
<path fill="#c6e2ff" stroke="#4a708b" d="M133.5,-36C133.5,-36 72.5,-36 72.5,-36 66.5,-36 60.5,-30 60.5,-24 60.5,-24 60.5,-12 60.5,-12 60.5,-6 66.5,0 72.5,0 72.5,0 133.5,0 133.5,0 139.5,0 145.5,-6 145.5,-12 145.5,-12 145.5,-24 145.5,-24 145.5,-30 139.5,-36 133.5,-36"/>
<text text-anchor="middle" x="103" y="-21" font-family="sans-serif" font-size="10.00" fill="#000000">80507e3</text>
<text text-anchor="middle" x="103" y="-10" font-family="sans-serif" font-size="10.00" fill="#000000">Initial commit</text>
</g>
<!-- 205842a&#45;&gt;80507e3 -->
<g id="edge5" class="edge">
<title>205842a&#45;&gt;80507e3</title>
<path fill="none" stroke="#000000" d="M149.3548,-71.8314C142.1409,-63.454 133.443,-53.3531 125.5395,-44.1749"/>
<polygon fill="#000000" stroke="#000000" points="128.0333,-41.7071 118.8559,-36.4133 122.7289,-46.2748 128.0333,-41.7071"/>
</g>
<!-- HEAD -->
<g id="node3" class="node">
<title>HEAD</title>
<path fill="#fff68f" stroke="#cdbe70" d="M180,-252C180,-252 150,-252 150,-252 144,-252 138,-246 138,-240 138,-240 138,-228 138,-228 138,-222 144,-216 150,-216 150,-216 180,-216 180,-216 186,-216 192,-222 192,-228 192,-228 192,-240 192,-240 192,-246 186,-252 180,-252"/>
<text text-anchor="middle" x="165" y="-231.5" font-family="sans-serif" font-size="10.00" fill="#000000">HEAD</text>
</g>
<!-- HEAD&#45;&gt;master -->
<g id="edge2" class="edge">
<title>HEAD&#45;&gt;master</title>
<path fill="none" stroke="#000000" d="M165,-215.8314C165,-208.131 165,-198.9743 165,-190.4166"/>
<polygon fill="#000000" stroke="#000000" points="168.5001,-190.4132 165,-180.4133 161.5001,-190.4133 168.5001,-190.4132"/>
</g>
<!-- origin/master -->
<g id="node4" class="node">
<title>origin/master</title>
<path fill="#ffb6c1" stroke="#8b3a3a" d="M70,-108C70,-108 12,-108 12,-108 6,-108 0,-102 0,-96 0,-96 0,-84 0,-84 0,-78 6,-72 12,-72 12,-72 70,-72 70,-72 76,-72 82,-78 82,-84 82,-84 82,-96 82,-96 82,-102 76,-108 70,-108"/>
<text text-anchor="middle" x="41" y="-87.5" font-family="sans-serif" font-size="10.00" fill="#000000">origin/master</text>
</g>
<!-- origin/master&#45;&gt;80507e3 -->
<g id="edge3" class="edge">
<title>origin/master&#45;&gt;80507e3</title>
<path fill="none" stroke="#000000" d="M56.6452,-71.8314C63.8591,-63.454 72.557,-53.3531 80.4605,-44.1749"/>
<polygon fill="#000000" stroke="#000000" points="83.2711,-46.2748 87.1441,-36.4133 77.9667,-41.7071 83.2711,-46.2748"/>
</g>
<!-- origin -->
<g id="node6" class="node">
<title>origin</title>
<path fill="#fff68f" stroke="#cdbe70" d="M56,-180C56,-180 26,-180 26,-180 20,-180 14,-174 14,-168 14,-168 14,-156 14,-156 14,-150 20,-144 26,-144 26,-144 56,-144 56,-144 62,-144 68,-150 68,-156 68,-156 68,-168 68,-168 68,-174 62,-180 56,-180"/>
<text text-anchor="middle" x="41" y="-159.5" font-family="sans-serif" font-size="10.00" fill="#000000">origin</text>
</g>
<!-- origin&#45;&gt;origin/master -->
<g id="edge4" class="edge">
<title>origin&#45;&gt;origin/master</title>
<path fill="none" stroke="#000000" d="M41,-143.8314C41,-136.131 41,-126.9743 41,-118.4166"/>
<polygon fill="#000000" stroke="#000000" points="44.5001,-118.4132 41,-108.4133 37.5001,-118.4133 44.5001,-118.4132"/>
</g>
</g>
</svg>
