<?xml version="1.0" encoding="UTF-8" standalone="no"?>
<!DOCTYPE svg PUBLIC "-//W3C//DTD SVG 1.1//EN"
 "http://www.w3.org/Graphics/SVG/1.1/DTD/svg11.dtd">
<!-- Generated by graphviz version 2.40.1 (20161225.0304)
 -->
<!-- Title: git history Pages: 1 -->
<svg width="162pt" height="260pt"
 viewBox="0.00 0.00 162.00 260.00" xmlns="http://www.w3.org/2000/svg" xmlns:xlink="http://www.w3.org/1999/xlink">
<g id="graph0" class="graph" transform="scale(1 1) rotate(0) translate(4 256)">
<title>git history</title>
<polygon fill="#ffffff" stroke="transparent" points="-4,4 -4,-256 158,-256 158,4 -4,4"/>
<!-- master -->
<g id="node1" class="node">
<title>master</title>
<path fill="#ffb6c1" stroke="#8b3a3a" d="M142,-180C142,-180 112,-180 112,-180 106,-180 100,-174 100,-168 100,-168 100,-156 100,-156 100,-150 106,-144 112,-144 112,-144 142,-144 142,-144 148,-144 154,-150 154,-156 154,-156 154,-168 154,-168 154,-174 148,-180 142,-180"/>
<text text-anchor="middle" x="127" y="-159.5" font-family="sans-serif" font-size="10.00" fill="#000000">master</text>
</g>
<!-- 205842a -->
<g id="node2" class="node">
<title>205842a</title>
<path fill="#c6e2ff" stroke="#4a708b" d="M137,-108C137,-108 31,-108 31,-108 25,-108 19,-102 19,-96 19,-96 19,-84 19,-84 19,-78 25,-72 31,-72 31,-72 137,-72 137,-72 143,-72 149,-78 149,-84 149,-84 149,-96 149,-96 149,-102 143,-108 137,-108"/>
<text text-anchor="middle" x="84" y="-93" font-family="sans-serif" font-size="10.00" fill="#000000">205842a</text>
<text text-anchor="middle" x="84" y="-82" font-family="sans-serif" font-size="10.00" fill="#000000">Add a return statement</text>
</g>
<!-- master&#45;&gt;205842a -->
<g id="edge1" class="edge">
<title>master&#45;&gt;205842a</title>
<path fill="none" stroke="#000000" d="M116.1493,-143.8314C111.2977,-135.7079 105.4783,-125.9637 100.132,-117.0118"/>
<polygon fill="#000000" stroke="#000000" points="103.1292,-115.2041 94.9968,-108.4133 97.1194,-118.7933 103.1292,-115.2041"/>
</g>
<!-- 80507e3 -->
<g id="node6" class="node">
<title>80507e3</title>
<path fill="#c6e2ff" stroke="#4a708b" d="M114.5,-36C114.5,-36 53.5,-36 53.5,-36 47.5,-36 41.5,-30 41.5,-24 41.5,-24 41.5,-12 41.5,-12 41.5,-6 47.5,0 53.5,0 53.5,0 114.5,0 114.5,0 120.5,0 126.5,-6 126.5,-12 126.5,-12 126.5,-24 126.5,-24 126.5,-30 120.5,-36 114.5,-36"/>
<text text-anchor="middle" x="84" y="-21" font-family="sans-serif" font-size="10.00" fill="#000000">80507e3</text>
<text text-anchor="middle" x="84" y="-10" font-family="sans-serif" font-size="10.00" fill="#000000">Initial commit</text>
</g>
<!-- 205842a&#45;&gt;80507e3 -->
<g id="edge5" class="edge">
<title>205842a&#45;&gt;80507e3</title>
<path fill="none" stroke="#000000" d="M84,-71.8314C84,-64.131 84,-54.9743 84,-46.4166"/>
<polygon fill="#000000" stroke="#000000" points="87.5001,-46.4132 84,-36.4133 80.5001,-46.4133 87.5001,-46.4132"/>
</g>
<!-- HEAD -->
<g id="node3" class="node">
<title>HEAD</title>
<path fill="#fff68f" stroke="#cdbe70" d="M142,-252C142,-252 112,-252 112,-252 106,-252 100,-246 100,-240 100,-240 100,-228 100,-228 100,-222 106,-216 112,-216 112,-216 142,-216 142,-216 148,-216 154,-222 154,-228 154,-228 154,-240 154,-240 154,-246 148,-252 142,-252"/>
<text text-anchor="middle" x="127" y="-231.5" font-family="sans-serif" font-size="10.00" fill="#000000">HEAD</text>
</g>
<!-- HEAD&#45;&gt;master -->
<g id="edge2" class="edge">
<title>HEAD&#45;&gt;master</title>
<path fill="none" stroke="#000000" d="M127,-215.8314C127,-208.131 127,-198.9743 127,-190.4166"/>
<polygon fill="#000000" stroke="#000000" points="130.5001,-190.4132 127,-180.4133 123.5001,-190.4133 130.5001,-190.4132"/>
</g>
<!-- origin/master -->
<g id="node4" class="node">
<title>origin/master</title>
<path fill="#ffb6c1" stroke="#8b3a3a" d="M70,-180C70,-180 12,-180 12,-180 6,-180 0,-174 0,-168 0,-168 0,-156 0,-156 0,-150 6,-144 12,-144 12,-144 70,-144 70,-144 76,-144 82,-150 82,-156 82,-156 82,-168 82,-168 82,-174 76,-180 70,-180"/>
<text text-anchor="middle" x="41" y="-159.5" font-family="sans-serif" font-size="10.00" fill="#000000">origin/master</text>
</g>
<!-- origin/master&#45;&gt;205842a -->
<g id="edge3" class="edge">
<title>origin/master&#45;&gt;205842a</title>
<path fill="none" stroke="#000000" d="M51.8507,-143.8314C56.7023,-135.7079 62.5217,-125.9637 67.868,-117.0118"/>
<polygon fill="#000000" stroke="#000000" points="70.8806,-118.7933 73.0032,-108.4133 64.8708,-115.2041 70.8806,-118.7933"/>
</g>
<!-- origin -->
<g id="node5" class="node">
<title>origin</title>
<path fill="#fff68f" stroke="#cdbe70" d="M56,-252C56,-252 26,-252 26,-252 20,-252 14,-246 14,-240 14,-240 14,-228 14,-228 14,-222 20,-216 26,-216 26,-216 56,-216 56,-216 62,-216 68,-222 68,-228 68,-228 68,-240 68,-240 68,-246 62,-252 56,-252"/>
<text text-anchor="middle" x="41" y="-231.5" font-family="sans-serif" font-size="10.00" fill="#000000">origin</text>
</g>
<!-- origin&#45;&gt;origin/master -->
<g id="edge4" class="edge">
<title>origin&#45;&gt;origin/master</title>
<path fill="none" stroke="#000000" d="M41,-215.8314C41,-208.131 41,-198.9743 41,-190.4166"/>
<polygon fill="#000000" stroke="#000000" points="44.5001,-190.4132 41,-180.4133 37.5001,-190.4133 44.5001,-190.4132"/>
</g>
</g>
</svg>
