<?xml version="1.0" encoding="UTF-8" standalone="no"?>
<!DOCTYPE svg PUBLIC "-//W3C//DTD SVG 1.1//EN"
 "http://www.w3.org/Graphics/SVG/1.1/DTD/svg11.dtd">
<!-- Generated by graphviz version 2.40.1 (20161225.0304)
 -->
<!-- Title: git history Pages: 1 -->
<svg width="318pt" height="332pt"
 viewBox="0.00 0.00 318.00 332.00" xmlns="http://www.w3.org/2000/svg" xmlns:xlink="http://www.w3.org/1999/xlink">
<g id="graph0" class="graph" transform="scale(1 1) rotate(0) translate(4 328)">
<title>git history</title>
<polygon fill="#ffffff" stroke="transparent" points="-4,4 -4,-328 314,-328 314,4 -4,4"/>
<!-- master -->
<g id="node1" class="node">
<title>master</title>
<path fill="#ffb6c1" stroke="#8b3a3a" d="M205,-252C205,-252 175,-252 175,-252 169,-252 163,-246 163,-240 163,-240 163,-228 163,-228 163,-222 169,-216 175,-216 175,-216 205,-216 205,-216 211,-216 217,-222 217,-228 217,-228 217,-240 217,-240 217,-246 211,-252 205,-252"/>
<text text-anchor="middle" x="190" y="-231.5" font-family="sans-serif" font-size="10.00" fill="#000000">master</text>
</g>
<!-- eede1c8 -->
<g id="node2" class="node">
<title>eede1c8</title>
<path fill="#c6e2ff" stroke="#4a708b" d="M214,-180C214,-180 80,-180 80,-180 74,-180 68,-174 68,-168 68,-168 68,-156 68,-156 68,-150 74,-144 80,-144 80,-144 214,-144 214,-144 220,-144 226,-150 226,-156 226,-156 226,-168 226,-168 226,-174 220,-180 214,-180"/>
<text text-anchor="middle" x="147" y="-165" font-family="sans-serif" font-size="10.00" fill="#000000">eede1c8</text>
<text text-anchor="middle" x="147" y="-154" font-family="sans-serif" font-size="10.00" fill="#000000">Merge branch &#39;master&#39; of [...]</text>
</g>
<!-- master&#45;&gt;eede1c8 -->
<g id="edge1" class="edge">
<title>master&#45;&gt;eede1c8</title>
<path fill="none" stroke="#000000" d="M179.1493,-215.8314C174.2977,-207.7079 168.4783,-197.9637 163.132,-189.0118"/>
<polygon fill="#000000" stroke="#000000" points="166.1292,-187.2041 157.9968,-180.4133 160.1194,-190.7933 166.1292,-187.2041"/>
</g>
<!-- 205842a -->
<g id="node7" class="node">
<title>205842a</title>
<path fill="#c6e2ff" stroke="#4a708b" d="M118,-108C118,-108 12,-108 12,-108 6,-108 0,-102 0,-96 0,-96 0,-84 0,-84 0,-78 6,-72 12,-72 12,-72 118,-72 118,-72 124,-72 130,-78 130,-84 130,-84 130,-96 130,-96 130,-102 124,-108 118,-108"/>
<text text-anchor="middle" x="65" y="-93" font-family="sans-serif" font-size="10.00" fill="#000000">205842a</text>
<text text-anchor="middle" x="65" y="-82" font-family="sans-serif" font-size="10.00" fill="#000000">Add a return statement</text>
</g>
<!-- eede1c8&#45;&gt;205842a -->
<g id="edge8" class="edge">
<title>eede1c8&#45;&gt;205842a</title>
<path fill="none" stroke="#000000" d="M126.3079,-143.8314C116.3052,-135.0485 104.145,-124.3712 93.3001,-114.8489"/>
<polygon fill="#000000" stroke="#000000" points="95.5092,-112.1308 85.6854,-108.1628 90.8906,-117.3909 95.5092,-112.1308"/>
</g>
<!-- 73c6a3a -->
<g id="node8" class="node">
<title>73c6a3a</title>
<path fill="#c6e2ff" stroke="#4a708b" d="M298,-108C298,-108 160,-108 160,-108 154,-108 148,-102 148,-96 148,-96 148,-84 148,-84 148,-78 154,-72 160,-72 160,-72 298,-72 298,-72 304,-72 310,-78 310,-84 310,-84 310,-96 310,-96 310,-102 304,-108 298,-108"/>
<text text-anchor="middle" x="229" y="-93" font-family="sans-serif" font-size="10.00" fill="#000000">73c6a3a</text>
<text text-anchor="middle" x="229" y="-82" font-family="sans-serif" font-size="10.00" fill="#000000">Add missing return statement</text>
</g>
<!-- eede1c8&#45;&gt;73c6a3a -->
<g id="edge7" class="edge">
<title>eede1c8&#45;&gt;73c6a3a</title>
<path fill="none" stroke="#000000" d="M167.6921,-143.8314C177.6948,-135.0485 189.855,-124.3712 200.6999,-114.8489"/>
<polygon fill="#000000" stroke="#000000" points="203.1094,-117.3909 208.3146,-108.1628 198.4908,-112.1308 203.1094,-117.3909"/>
</g>
<!-- HEAD -->
<g id="node3" class="node">
<title>HEAD</title>
<path fill="#fff68f" stroke="#cdbe70" d="M205,-324C205,-324 175,-324 175,-324 169,-324 163,-318 163,-312 163,-312 163,-300 163,-300 163,-294 169,-288 175,-288 175,-288 205,-288 205,-288 211,-288 217,-294 217,-300 217,-300 217,-312 217,-312 217,-318 211,-324 205,-324"/>
<text text-anchor="middle" x="190" y="-303.5" font-family="sans-serif" font-size="10.00" fill="#000000">HEAD</text>
</g>
<!-- HEAD&#45;&gt;master -->
<g id="edge2" class="edge">
<title>HEAD&#45;&gt;master</title>
<path fill="none" stroke="#000000" d="M190,-287.8314C190,-280.131 190,-270.9743 190,-262.4166"/>
<polygon fill="#000000" stroke="#000000" points="193.5001,-262.4132 190,-252.4133 186.5001,-262.4133 193.5001,-262.4132"/>
</g>
<!-- origin/master -->
<g id="node4" class="node">
<title>origin/master</title>
<path fill="#ffb6c1" stroke="#8b3a3a" d="M133,-252C133,-252 75,-252 75,-252 69,-252 63,-246 63,-240 63,-240 63,-228 63,-228 63,-222 69,-216 75,-216 75,-216 133,-216 133,-216 139,-216 145,-222 145,-228 145,-228 145,-240 145,-240 145,-246 139,-252 133,-252"/>
<text text-anchor="middle" x="104" y="-231.5" font-family="sans-serif" font-size="10.00" fill="#000000">origin/master</text>
</g>
<!-- origin/master&#45;&gt;eede1c8 -->
<g id="edge3" class="edge">
<title>origin/master&#45;&gt;eede1c8</title>
<path fill="none" stroke="#000000" d="M114.8507,-215.8314C119.7023,-207.7079 125.5217,-197.9637 130.868,-189.0118"/>
<polygon fill="#000000" stroke="#000000" points="133.8806,-190.7933 136.0032,-180.4133 127.8708,-187.2041 133.8806,-190.7933"/>
</g>
<!-- origin -->
<g id="node5" class="node">
<title>origin</title>
<path fill="#fff68f" stroke="#cdbe70" d="M119,-324C119,-324 89,-324 89,-324 83,-324 77,-318 77,-312 77,-312 77,-300 77,-300 77,-294 83,-288 89,-288 89,-288 119,-288 119,-288 125,-288 131,-294 131,-300 131,-300 131,-312 131,-312 131,-318 125,-324 119,-324"/>
<text text-anchor="middle" x="104" y="-303.5" font-family="sans-serif" font-size="10.00" fill="#000000">origin</text>
</g>
<!-- origin&#45;&gt;origin/master -->
<g id="edge4" class="edge">
<title>origin&#45;&gt;origin/master</title>
<path fill="none" stroke="#000000" d="M104,-287.8314C104,-280.131 104,-270.9743 104,-262.4166"/>
<polygon fill="#000000" stroke="#000000" points="107.5001,-262.4132 104,-252.4133 100.5001,-262.4133 107.5001,-262.4132"/>
</g>
<!-- 80507e3 -->
<g id="node6" class="node">
<title>80507e3</title>
<path fill="#c6e2ff" stroke="#4a708b" d="M177.5,-36C177.5,-36 116.5,-36 116.5,-36 110.5,-36 104.5,-30 104.5,-24 104.5,-24 104.5,-12 104.5,-12 104.5,-6 110.5,0 116.5,0 116.5,0 177.5,0 177.5,0 183.5,0 189.5,-6 189.5,-12 189.5,-12 189.5,-24 189.5,-24 189.5,-30 183.5,-36 177.5,-36"/>
<text text-anchor="middle" x="147" y="-21" font-family="sans-serif" font-size="10.00" fill="#000000">80507e3</text>
<text text-anchor="middle" x="147" y="-10" font-family="sans-serif" font-size="10.00" fill="#000000">Initial commit</text>
</g>
<!-- 205842a&#45;&gt;80507e3 -->
<g id="edge5" class="edge">
<title>205842a&#45;&gt;80507e3</title>
<path fill="none" stroke="#000000" d="M85.6921,-71.8314C95.6948,-63.0485 107.855,-52.3712 118.6999,-42.8489"/>
<polygon fill="#000000" stroke="#000000" points="121.1094,-45.3909 126.3146,-36.1628 116.4908,-40.1308 121.1094,-45.3909"/>
</g>
<!-- 73c6a3a&#45;&gt;80507e3 -->
<g id="edge6" class="edge">
<title>73c6a3a&#45;&gt;80507e3</title>
<path fill="none" stroke="#000000" d="M208.3079,-71.8314C198.3052,-63.0485 186.145,-52.3712 175.3001,-42.8489"/>
<polygon fill="#000000" stroke="#000000" points="177.5092,-40.1308 167.6854,-36.1628 172.8906,-45.3909 177.5092,-40.1308"/>
</g>
</g>
</svg>
