<?xml version="1.0" encoding="UTF-8" standalone="no"?>
<!DOCTYPE svg PUBLIC "-//W3C//DTD SVG 1.1//EN"
 "http://www.w3.org/Graphics/SVG/1.1/DTD/svg11.dtd">
<!-- Generated by graphviz version 2.40.1 (20161225.0304)
 -->
<!-- Title: %3 Pages: 1 -->
<svg width="152pt" height="188pt"
 viewBox="0.00 0.00 152.26 188.00" xmlns="http://www.w3.org/2000/svg" xmlns:xlink="http://www.w3.org/1999/xlink">
<g id="graph0" class="graph" transform="scale(1 1) rotate(0) translate(4 184)">
<title>%3</title>
<polygon fill="#ffffff" stroke="transparent" points="-4,4 -4,-184 148.2561,-184 148.2561,4 -4,4"/>
<!-- untracked -->
<g id="node1" class="node">
<title>untracked</title>
<path fill="#ffffff" stroke="#000000" d="M58,-180C58,-180 12,-180 12,-180 6,-180 0,-174 0,-168 0,-168 0,-156 0,-156 0,-150 6,-144 12,-144 12,-144 58,-144 58,-144 64,-144 70,-150 70,-156 70,-156 70,-168 70,-168 70,-174 64,-180 58,-180"/>
<text text-anchor="middle" x="35" y="-159.5" font-family="sans-serif" font-size="10.00" fill="#000000">Non tracké</text>
</g>
<!-- staged -->
<g id="node3" class="node">
<title>staged</title>
<path fill="#ffffff" stroke="#000000" d="M90,-108C90,-108 60,-108 60,-108 54,-108 48,-102 48,-96 48,-96 48,-84 48,-84 48,-78 54,-72 60,-72 60,-72 90,-72 90,-72 96,-72 102,-78 102,-84 102,-84 102,-96 102,-96 102,-102 96,-108 90,-108"/>
<text text-anchor="middle" x="75" y="-87.5" font-family="sans-serif" font-size="10.00" fill="#000000">Staged</text>
</g>
<!-- untracked&#45;&gt;staged -->
<g id="edge1" class="edge">
<title>untracked&#45;&gt;staged</title>
<path fill="none" stroke="#000000" d="M45.0937,-143.8314C49.5597,-135.7925 54.9075,-126.1666 59.8379,-117.2918"/>
<polygon fill="#000000" stroke="#000000" points="62.9735,-118.8546 64.7704,-108.4133 56.8544,-115.4551 62.9735,-118.8546"/>
<text text-anchor="middle" x="22.7439" y="-121.9998" font-family="sans-serif" font-size="10.00" fill="#000000">git add</text>
</g>
<!-- modified -->
<g id="node2" class="node">
<title>modified</title>
<path fill="#ffffff" stroke="#000000" d="M130,-180C130,-180 100,-180 100,-180 94,-180 88,-174 88,-168 88,-168 88,-156 88,-156 88,-150 94,-144 100,-144 100,-144 130,-144 130,-144 136,-144 142,-150 142,-156 142,-156 142,-168 142,-168 142,-174 136,-180 130,-180"/>
<text text-anchor="middle" x="115" y="-159.5" font-family="sans-serif" font-size="10.00" fill="#000000">Modifié</text>
</g>
<!-- modified&#45;&gt;staged -->
<g id="edge2" class="edge">
<title>modified&#45;&gt;staged</title>
<path fill="none" stroke="#000000" d="M104.9063,-143.8314C100.4403,-135.7925 95.0925,-126.1666 90.1621,-117.2918"/>
<polygon fill="#000000" stroke="#000000" points="93.1456,-115.4551 85.2296,-108.4133 87.0265,-118.8546 93.1456,-115.4551"/>
<text text-anchor="middle" x="127.2561" y="-121.9998" font-family="sans-serif" font-size="10.00" fill="#000000">git add</text>
</g>
<!-- committed -->
<g id="node4" class="node">
<title>committed</title>
<path fill="#ffffff" stroke="#000000" d="M98.5,-36C98.5,-36 51.5,-36 51.5,-36 45.5,-36 39.5,-30 39.5,-24 39.5,-24 39.5,-12 39.5,-12 39.5,-6 45.5,0 51.5,0 51.5,0 98.5,0 98.5,0 104.5,0 110.5,-6 110.5,-12 110.5,-12 110.5,-24 110.5,-24 110.5,-30 104.5,-36 98.5,-36"/>
<text text-anchor="middle" x="75" y="-15.5" font-family="sans-serif" font-size="10.00" fill="#000000">Committed</text>
</g>
<!-- staged&#45;&gt;committed -->
<g id="edge3" class="edge">
<title>staged&#45;&gt;committed</title>
<path fill="none" stroke="#000000" d="M75,-71.8314C75,-64.131 75,-54.9743 75,-46.4166"/>
<polygon fill="#000000" stroke="#000000" points="78.5001,-46.4132 75,-36.4133 71.5001,-46.4133 78.5001,-46.4132"/>
<text text-anchor="middle" x="34.2161" y="-52.9311" font-family="sans-serif" font-size="10.00" fill="#000000">git commit</text>
</g>
</g>
</svg>
