<?xml version="1.0" encoding="UTF-8" standalone="no"?>
<!DOCTYPE svg PUBLIC "-//W3C//DTD SVG 1.1//EN"
 "http://www.w3.org/Graphics/SVG/1.1/DTD/svg11.dtd">
<!-- Generated by graphviz version 2.40.1 (20161225.0304)
 -->
<!-- Title: git history Pages: 1 -->
<svg width="352pt" height="404pt"
 viewBox="0.00 0.00 352.00 404.00" xmlns="http://www.w3.org/2000/svg" xmlns:xlink="http://www.w3.org/1999/xlink">
<g id="graph0" class="graph" transform="scale(1 1) rotate(0) translate(4 400)">
<title>git history</title>
<polygon fill="#ffffff" stroke="transparent" points="-4,4 -4,-400 348,-400 348,4 -4,4"/>
<!-- master -->
<g id="node1" class="node">
<title>master</title>
<path fill="#ffb6c1" stroke="#8b3a3a" d="M332,-324C332,-324 302,-324 302,-324 296,-324 290,-318 290,-312 290,-312 290,-300 290,-300 290,-294 296,-288 302,-288 302,-288 332,-288 332,-288 338,-288 344,-294 344,-300 344,-300 344,-312 344,-312 344,-318 338,-324 332,-324"/>
<text text-anchor="middle" x="317" y="-303.5" font-family="sans-serif" font-size="10.00" fill="#000000">master</text>
</g>
<!-- 245e4 -->
<g id="node2" class="node">
<title>245e4</title>
<path fill="#c6e2ff" stroke="#4a708b" d="M256,-252C256,-252 226,-252 226,-252 220,-252 214,-246 214,-240 214,-240 214,-228 214,-228 214,-222 220,-216 226,-216 226,-216 256,-216 256,-216 262,-216 268,-222 268,-228 268,-228 268,-240 268,-240 268,-246 262,-252 256,-252"/>
<text text-anchor="middle" x="241" y="-237" font-family="sans-serif" font-size="10.00" fill="#000000">245e4</text>
<text text-anchor="middle" x="241" y="-226" font-family="sans-serif" font-size="10.00" fill="#000000">e</text>
</g>
<!-- master&#45;&gt;245e4 -->
<g id="edge1" class="edge">
<title>master&#45;&gt;245e4</title>
<path fill="none" stroke="#000000" d="M297.822,-287.8314C288.6412,-279.1337 277.4994,-268.5783 267.5224,-259.1265"/>
<polygon fill="#000000" stroke="#000000" points="269.8385,-256.4995 260.1719,-252.1628 265.0243,-261.5811 269.8385,-256.4995"/>
</g>
<!-- 05e80 -->
<g id="node13" class="node">
<title>05e80</title>
<path fill="#c6e2ff" stroke="#4a708b" d="M287,-180C287,-180 195,-180 195,-180 189,-180 183,-174 183,-168 183,-168 183,-156 183,-156 183,-150 189,-144 195,-144 195,-144 287,-144 287,-144 293,-144 299,-150 299,-156 299,-156 299,-168 299,-168 299,-174 293,-180 287,-180"/>
<text text-anchor="middle" x="241" y="-165" font-family="sans-serif" font-size="10.00" fill="#000000">05e80</text>
<text text-anchor="middle" x="241" y="-154" font-family="sans-serif" font-size="10.00" fill="#000000">Merge branch &#39;hello&#39;</text>
</g>
<!-- 245e4&#45;&gt;05e80 -->
<g id="edge11" class="edge">
<title>245e4&#45;&gt;05e80</title>
<path fill="none" stroke="#000000" d="M241,-215.8314C241,-208.131 241,-198.9743 241,-190.4166"/>
<polygon fill="#000000" stroke="#000000" points="244.5001,-190.4132 241,-180.4133 237.5001,-190.4133 244.5001,-190.4132"/>
</g>
<!-- hello -->
<g id="node3" class="node">
<title>hello</title>
<path fill="#ffb6c1" stroke="#8b3a3a" d="M94,-396C94,-396 64,-396 64,-396 58,-396 52,-390 52,-384 52,-384 52,-372 52,-372 52,-366 58,-360 64,-360 64,-360 94,-360 94,-360 100,-360 106,-366 106,-372 106,-372 106,-384 106,-384 106,-390 100,-396 94,-396"/>
<text text-anchor="middle" x="79" y="-375.5" font-family="sans-serif" font-size="10.00" fill="#000000">hello</text>
</g>
<!-- f4dff -->
<g id="node4" class="node">
<title>f4dff</title>
<path fill="#c6e2ff" stroke="#4a708b" d="M94,-324C94,-324 64,-324 64,-324 58,-324 52,-318 52,-312 52,-312 52,-300 52,-300 52,-294 58,-288 64,-288 64,-288 94,-288 94,-288 100,-288 106,-294 106,-300 106,-300 106,-312 106,-312 106,-318 100,-324 94,-324"/>
<text text-anchor="middle" x="79" y="-309" font-family="sans-serif" font-size="10.00" fill="#000000">f4dff</text>
<text text-anchor="middle" x="79" y="-298" font-family="sans-serif" font-size="10.00" fill="#000000">f</text>
</g>
<!-- hello&#45;&gt;f4dff -->
<g id="edge2" class="edge">
<title>hello&#45;&gt;f4dff</title>
<path fill="none" stroke="#000000" d="M79,-359.8314C79,-352.131 79,-342.9743 79,-334.4166"/>
<polygon fill="#000000" stroke="#000000" points="82.5001,-334.4132 79,-324.4133 75.5001,-334.4133 82.5001,-334.4132"/>
</g>
<!-- 88305 -->
<g id="node12" class="node">
<title>88305</title>
<path fill="#c6e2ff" stroke="#4a708b" d="M170,-252C170,-252 140,-252 140,-252 134,-252 128,-246 128,-240 128,-240 128,-228 128,-228 128,-222 134,-216 140,-216 140,-216 170,-216 170,-216 176,-216 182,-222 182,-228 182,-228 182,-240 182,-240 182,-246 176,-252 170,-252"/>
<text text-anchor="middle" x="155" y="-237" font-family="sans-serif" font-size="10.00" fill="#000000">88305</text>
<text text-anchor="middle" x="155" y="-226" font-family="sans-serif" font-size="10.00" fill="#000000">d</text>
</g>
<!-- f4dff&#45;&gt;88305 -->
<g id="edge8" class="edge">
<title>f4dff&#45;&gt;88305</title>
<path fill="none" stroke="#000000" d="M98.178,-287.8314C107.3588,-279.1337 118.5006,-268.5783 128.4776,-259.1265"/>
<polygon fill="#000000" stroke="#000000" points="130.9757,-261.5811 135.8281,-252.1628 126.1615,-256.4995 130.9757,-261.5811"/>
</g>
<!-- hey -->
<g id="node5" class="node">
<title>hey</title>
<path fill="#ffb6c1" stroke="#8b3a3a" d="M42,-180C42,-180 12,-180 12,-180 6,-180 0,-174 0,-168 0,-168 0,-156 0,-156 0,-150 6,-144 12,-144 12,-144 42,-144 42,-144 48,-144 54,-150 54,-156 54,-156 54,-168 54,-168 54,-174 48,-180 42,-180"/>
<text text-anchor="middle" x="27" y="-159.5" font-family="sans-serif" font-size="10.00" fill="#000000">hey</text>
</g>
<!-- 22931 -->
<g id="node6" class="node">
<title>22931</title>
<path fill="#c6e2ff" stroke="#4a708b" d="M112,-108C112,-108 82,-108 82,-108 76,-108 70,-102 70,-96 70,-96 70,-84 70,-84 70,-78 76,-72 82,-72 82,-72 112,-72 112,-72 118,-72 124,-78 124,-84 124,-84 124,-96 124,-96 124,-102 118,-108 112,-108"/>
<text text-anchor="middle" x="97" y="-93" font-family="sans-serif" font-size="10.00" fill="#000000">22931</text>
<text text-anchor="middle" x="97" y="-82" font-family="sans-serif" font-size="10.00" fill="#000000">g</text>
</g>
<!-- hey&#45;&gt;22931 -->
<g id="edge3" class="edge">
<title>hey&#45;&gt;22931</title>
<path fill="none" stroke="#000000" d="M44.664,-143.8314C52.9732,-135.2848 63.0264,-124.9443 72.0918,-115.6198"/>
<polygon fill="#000000" stroke="#000000" points="74.6369,-118.023 79.0982,-108.4133 69.6179,-113.1435 74.6369,-118.023"/>
</g>
<!-- 54978 -->
<g id="node11" class="node">
<title>54978</title>
<path fill="#c6e2ff" stroke="#4a708b" d="M184,-36C184,-36 154,-36 154,-36 148,-36 142,-30 142,-24 142,-24 142,-12 142,-12 142,-6 148,0 154,0 154,0 184,0 184,0 190,0 196,-6 196,-12 196,-12 196,-24 196,-24 196,-30 190,-36 184,-36"/>
<text text-anchor="middle" x="169" y="-21" font-family="sans-serif" font-size="10.00" fill="#000000">54978</text>
<text text-anchor="middle" x="169" y="-10" font-family="sans-serif" font-size="10.00" fill="#000000">a</text>
</g>
<!-- 22931&#45;&gt;54978 -->
<g id="edge7" class="edge">
<title>22931&#45;&gt;54978</title>
<path fill="none" stroke="#000000" d="M115.1686,-71.8314C123.7152,-63.2848 134.0557,-52.9443 143.3802,-43.6198"/>
<polygon fill="#000000" stroke="#000000" points="145.9905,-45.9592 150.5867,-36.4133 141.0408,-41.0095 145.9905,-45.9592"/>
</g>
<!-- hi -->
<g id="node7" class="node">
<title>hi</title>
<path fill="#ffb6c1" stroke="#8b3a3a" d="M213,-396C213,-396 183,-396 183,-396 177,-396 171,-390 171,-384 171,-384 171,-372 171,-372 171,-366 177,-360 183,-360 183,-360 213,-360 213,-360 219,-360 225,-366 225,-372 225,-372 225,-384 225,-384 225,-390 219,-396 213,-396"/>
<text text-anchor="middle" x="198" y="-375.5" font-family="sans-serif" font-size="10.00" fill="#000000">hi</text>
</g>
<!-- 4cd75 -->
<g id="node8" class="node">
<title>4cd75</title>
<path fill="#c6e2ff" stroke="#4a708b" d="M260.5,-324C260.5,-324 135.5,-324 135.5,-324 129.5,-324 123.5,-318 123.5,-312 123.5,-312 123.5,-300 123.5,-300 123.5,-294 129.5,-288 135.5,-288 135.5,-288 260.5,-288 260.5,-288 266.5,-288 272.5,-294 272.5,-300 272.5,-300 272.5,-312 272.5,-312 272.5,-318 266.5,-324 260.5,-324"/>
<text text-anchor="middle" x="198" y="-309" font-family="sans-serif" font-size="10.00" fill="#000000">4cd75</text>
<text text-anchor="middle" x="198" y="-298" font-family="sans-serif" font-size="10.00" fill="#000000">Merge branch &#39;hello&#39; into hi</text>
</g>
<!-- hi&#45;&gt;4cd75 -->
<g id="edge4" class="edge">
<title>hi&#45;&gt;4cd75</title>
<path fill="none" stroke="#000000" d="M198,-359.8314C198,-352.131 198,-342.9743 198,-334.4166"/>
<polygon fill="#000000" stroke="#000000" points="201.5001,-334.4132 198,-324.4133 194.5001,-334.4133 201.5001,-334.4132"/>
</g>
<!-- 4cd75&#45;&gt;245e4 -->
<g id="edge9" class="edge">
<title>4cd75&#45;&gt;245e4</title>
<path fill="none" stroke="#000000" d="M208.8507,-287.8314C213.7023,-279.7079 219.5217,-269.9637 224.868,-261.0118"/>
<polygon fill="#000000" stroke="#000000" points="227.8806,-262.7933 230.0032,-252.4133 221.8708,-259.2041 227.8806,-262.7933"/>
</g>
<!-- 4cd75&#45;&gt;88305 -->
<g id="edge10" class="edge">
<title>4cd75&#45;&gt;88305</title>
<path fill="none" stroke="#000000" d="M187.1493,-287.8314C182.2977,-279.7079 176.4783,-269.9637 171.132,-261.0118"/>
<polygon fill="#000000" stroke="#000000" points="174.1292,-259.2041 165.9968,-252.4133 168.1194,-262.7933 174.1292,-259.2041"/>
</g>
<!-- ho -->
<g id="node9" class="node">
<title>ho</title>
<path fill="#ffb6c1" stroke="#8b3a3a" d="M114,-180C114,-180 84,-180 84,-180 78,-180 72,-174 72,-168 72,-168 72,-156 72,-156 72,-150 78,-144 84,-144 84,-144 114,-144 114,-144 120,-144 126,-150 126,-156 126,-156 126,-168 126,-168 126,-174 120,-180 114,-180"/>
<text text-anchor="middle" x="99" y="-159.5" font-family="sans-serif" font-size="10.00" fill="#000000">ho</text>
</g>
<!-- ho&#45;&gt;22931 -->
<g id="edge5" class="edge">
<title>ho&#45;&gt;22931</title>
<path fill="none" stroke="#000000" d="M98.4953,-143.8314C98.2814,-136.131 98.0271,-126.9743 97.7894,-118.4166"/>
<polygon fill="#000000" stroke="#000000" points="101.2879,-118.3122 97.5115,-108.4133 94.2906,-118.5066 101.2879,-118.3122"/>
</g>
<!-- HEAD -->
<g id="node10" class="node">
<title>HEAD</title>
<path fill="#fff68f" stroke="#cdbe70" d="M332,-396C332,-396 302,-396 302,-396 296,-396 290,-390 290,-384 290,-384 290,-372 290,-372 290,-366 296,-360 302,-360 302,-360 332,-360 332,-360 338,-360 344,-366 344,-372 344,-372 344,-384 344,-384 344,-390 338,-396 332,-396"/>
<text text-anchor="middle" x="317" y="-375.5" font-family="sans-serif" font-size="10.00" fill="#000000">HEAD</text>
</g>
<!-- HEAD&#45;&gt;master -->
<g id="edge6" class="edge">
<title>HEAD&#45;&gt;master</title>
<path fill="none" stroke="#000000" d="M317,-359.8314C317,-352.131 317,-342.9743 317,-334.4166"/>
<polygon fill="#000000" stroke="#000000" points="320.5001,-334.4132 317,-324.4133 313.5001,-334.4133 320.5001,-334.4132"/>
</g>
<!-- 0ef13 -->
<g id="node14" class="node">
<title>0ef13</title>
<path fill="#c6e2ff" stroke="#4a708b" d="M184,-108C184,-108 154,-108 154,-108 148,-108 142,-102 142,-96 142,-96 142,-84 142,-84 142,-78 148,-72 154,-72 154,-72 184,-72 184,-72 190,-72 196,-78 196,-84 196,-84 196,-96 196,-96 196,-102 190,-108 184,-108"/>
<text text-anchor="middle" x="169" y="-93" font-family="sans-serif" font-size="10.00" fill="#000000">0ef13</text>
<text text-anchor="middle" x="169" y="-82" font-family="sans-serif" font-size="10.00" fill="#000000">c</text>
</g>
<!-- 88305&#45;&gt;0ef13 -->
<g id="edge12" class="edge">
<title>88305&#45;&gt;0ef13</title>
<path fill="none" stroke="#000000" d="M156.7731,-215.7623C159.161,-191.201 163.4343,-147.2474 166.2434,-118.3541"/>
<polygon fill="#000000" stroke="#000000" points="169.7571,-118.3814 167.2413,-108.0896 162.79,-117.704 169.7571,-118.3814"/>
</g>
<!-- 05e80&#45;&gt;0ef13 -->
<g id="edge14" class="edge">
<title>05e80&#45;&gt;0ef13</title>
<path fill="none" stroke="#000000" d="M222.8314,-143.8314C214.2848,-135.2848 203.9443,-124.9443 194.6198,-115.6198"/>
<polygon fill="#000000" stroke="#000000" points="196.9592,-113.0095 187.4133,-108.4133 192.0095,-117.9592 196.9592,-113.0095"/>
</g>
<!-- b443e -->
<g id="node15" class="node">
<title>b443e</title>
<path fill="#c6e2ff" stroke="#4a708b" d="M256,-108C256,-108 226,-108 226,-108 220,-108 214,-102 214,-96 214,-96 214,-84 214,-84 214,-78 220,-72 226,-72 226,-72 256,-72 256,-72 262,-72 268,-78 268,-84 268,-84 268,-96 268,-96 268,-102 262,-108 256,-108"/>
<text text-anchor="middle" x="241" y="-93" font-family="sans-serif" font-size="10.00" fill="#000000">b443e</text>
<text text-anchor="middle" x="241" y="-82" font-family="sans-serif" font-size="10.00" fill="#000000">b</text>
</g>
<!-- 05e80&#45;&gt;b443e -->
<g id="edge13" class="edge">
<title>05e80&#45;&gt;b443e</title>
<path fill="none" stroke="#000000" d="M241,-143.8314C241,-136.131 241,-126.9743 241,-118.4166"/>
<polygon fill="#000000" stroke="#000000" points="244.5001,-118.4132 241,-108.4133 237.5001,-118.4133 244.5001,-118.4132"/>
</g>
<!-- 0ef13&#45;&gt;54978 -->
<g id="edge15" class="edge">
<title>0ef13&#45;&gt;54978</title>
<path fill="none" stroke="#000000" d="M169,-71.8314C169,-64.131 169,-54.9743 169,-46.4166"/>
<polygon fill="#000000" stroke="#000000" points="172.5001,-46.4132 169,-36.4133 165.5001,-46.4133 172.5001,-46.4132"/>
</g>
<!-- b443e&#45;&gt;54978 -->
<g id="edge16" class="edge">
<title>b443e&#45;&gt;54978</title>
<path fill="none" stroke="#000000" d="M222.8314,-71.8314C214.2848,-63.2848 203.9443,-52.9443 194.6198,-43.6198"/>
<polygon fill="#000000" stroke="#000000" points="196.9592,-41.0095 187.4133,-36.4133 192.0095,-45.9592 196.9592,-41.0095"/>
</g>
</g>
</svg>
