<?xml version="1.0" encoding="UTF-8" standalone="no"?>
<!DOCTYPE svg PUBLIC "-//W3C//DTD SVG 1.1//EN"
 "http://www.w3.org/Graphics/SVG/1.1/DTD/svg11.dtd">
<!-- Generated by graphviz version 2.40.1 (20161225.0304)
 -->
<!-- Title: git history Pages: 1 -->
<svg width="254pt" height="476pt"
 viewBox="0.00 0.00 253.50 476.00" xmlns="http://www.w3.org/2000/svg" xmlns:xlink="http://www.w3.org/1999/xlink">
<g id="graph0" class="graph" transform="scale(1 1) rotate(0) translate(4 472)">
<title>git history</title>
<polygon fill="#ffffff" stroke="transparent" points="-4,4 -4,-472 249.5,-472 249.5,4 -4,4"/>
<!-- master -->
<g id="node1" class="node">
<title>master</title>
<path fill="#ffb6c1" stroke="#8b3a3a" d="M42,-324C42,-324 12,-324 12,-324 6,-324 0,-318 0,-312 0,-312 0,-300 0,-300 0,-294 6,-288 12,-288 12,-288 42,-288 42,-288 48,-288 54,-294 54,-300 54,-300 54,-312 54,-312 54,-318 48,-324 42,-324"/>
<text text-anchor="middle" x="27" y="-303.5" font-family="sans-serif" font-size="10.00" fill="#000000">master</text>
</g>
<!-- c1f21 -->
<g id="node2" class="node">
<title>c1f21</title>
<path fill="#c6e2ff" stroke="#4a708b" d="M117.5,-252C117.5,-252 80.5,-252 80.5,-252 74.5,-252 68.5,-246 68.5,-240 68.5,-240 68.5,-228 68.5,-228 68.5,-222 74.5,-216 80.5,-216 80.5,-216 117.5,-216 117.5,-216 123.5,-216 129.5,-222 129.5,-228 129.5,-228 129.5,-240 129.5,-240 129.5,-246 123.5,-252 117.5,-252"/>
<text text-anchor="middle" x="99" y="-237" font-family="sans-serif" font-size="10.00" fill="#000000">c1f21</text>
<text text-anchor="middle" x="99" y="-226" font-family="sans-serif" font-size="10.00" fill="#000000">Add intro</text>
</g>
<!-- master&#45;&gt;c1f21 -->
<g id="edge1" class="edge">
<title>master&#45;&gt;c1f21</title>
<path fill="none" stroke="#000000" d="M45.1686,-287.8314C53.7152,-279.2848 64.0557,-268.9443 73.3802,-259.6198"/>
<polygon fill="#000000" stroke="#000000" points="75.9905,-261.9592 80.5867,-252.4133 71.0408,-257.0095 75.9905,-261.9592"/>
</g>
<!-- b1485 -->
<g id="node7" class="node">
<title>b1485</title>
<path fill="#c6e2ff" stroke="#4a708b" d="M129.5,-180C129.5,-180 68.5,-180 68.5,-180 62.5,-180 56.5,-174 56.5,-168 56.5,-168 56.5,-156 56.5,-156 56.5,-150 62.5,-144 68.5,-144 68.5,-144 129.5,-144 129.5,-144 135.5,-144 141.5,-150 141.5,-156 141.5,-156 141.5,-168 141.5,-168 141.5,-174 135.5,-180 129.5,-180"/>
<text text-anchor="middle" x="99" y="-165" font-family="sans-serif" font-size="10.00" fill="#000000">b1485</text>
<text text-anchor="middle" x="99" y="-154" font-family="sans-serif" font-size="10.00" fill="#000000">Add .gitignore</text>
</g>
<!-- c1f21&#45;&gt;b1485 -->
<g id="edge6" class="edge">
<title>c1f21&#45;&gt;b1485</title>
<path fill="none" stroke="#000000" d="M99,-215.8314C99,-208.131 99,-198.9743 99,-190.4166"/>
<polygon fill="#000000" stroke="#000000" points="102.5001,-190.4132 99,-180.4133 95.5001,-190.4133 102.5001,-190.4132"/>
</g>
<!-- pid -->
<g id="node3" class="node">
<title>pid</title>
<path fill="#ffb6c1" stroke="#8b3a3a" d="M114,-324C114,-324 84,-324 84,-324 78,-324 72,-318 72,-312 72,-312 72,-300 72,-300 72,-294 78,-288 84,-288 84,-288 114,-288 114,-288 120,-288 126,-294 126,-300 126,-300 126,-312 126,-312 126,-318 120,-324 114,-324"/>
<text text-anchor="middle" x="99" y="-303.5" font-family="sans-serif" font-size="10.00" fill="#000000">pid</text>
</g>
<!-- pid&#45;&gt;c1f21 -->
<g id="edge2" class="edge">
<title>pid&#45;&gt;c1f21</title>
<path fill="none" stroke="#000000" d="M99,-287.8314C99,-280.131 99,-270.9743 99,-262.4166"/>
<polygon fill="#000000" stroke="#000000" points="102.5001,-262.4132 99,-252.4133 95.5001,-262.4133 102.5001,-262.4132"/>
</g>
<!-- universal -->
<g id="node4" class="node">
<title>universal</title>
<path fill="#ffb6c1" stroke="#8b3a3a" d="M214,-396C214,-396 176,-396 176,-396 170,-396 164,-390 164,-384 164,-384 164,-372 164,-372 164,-366 170,-360 176,-360 176,-360 214,-360 214,-360 220,-360 226,-366 226,-372 226,-372 226,-384 226,-384 226,-390 220,-396 214,-396"/>
<text text-anchor="middle" x="195" y="-375.5" font-family="sans-serif" font-size="10.00" fill="#000000">universal</text>
</g>
<!-- e0c31 -->
<g id="node5" class="node">
<title>e0c31</title>
<path fill="#c6e2ff" stroke="#4a708b" d="M233.5,-324C233.5,-324 156.5,-324 156.5,-324 150.5,-324 144.5,-318 144.5,-312 144.5,-312 144.5,-300 144.5,-300 144.5,-294 150.5,-288 156.5,-288 156.5,-288 233.5,-288 233.5,-288 239.5,-288 245.5,-294 245.5,-300 245.5,-300 245.5,-312 245.5,-312 245.5,-318 239.5,-324 233.5,-324"/>
<text text-anchor="middle" x="195" y="-309" font-family="sans-serif" font-size="10.00" fill="#000000">e0c31</text>
<text text-anchor="middle" x="195" y="-298" font-family="sans-serif" font-size="10.00" fill="#000000">Make it universal</text>
</g>
<!-- universal&#45;&gt;e0c31 -->
<g id="edge3" class="edge">
<title>universal&#45;&gt;e0c31</title>
<path fill="none" stroke="#000000" d="M195,-359.8314C195,-352.131 195,-342.9743 195,-334.4166"/>
<polygon fill="#000000" stroke="#000000" points="198.5001,-334.4132 195,-324.4133 191.5001,-334.4133 198.5001,-334.4132"/>
</g>
<!-- e0c31&#45;&gt;c1f21 -->
<g id="edge5" class="edge">
<title>e0c31&#45;&gt;c1f21</title>
<path fill="none" stroke="#000000" d="M170.7751,-287.8314C158.8372,-278.8779 144.2744,-267.9558 131.394,-258.2955"/>
<polygon fill="#000000" stroke="#000000" points="133.3171,-255.3629 123.2171,-252.1628 129.1171,-260.9629 133.3171,-255.3629"/>
</g>
<!-- HEAD -->
<g id="node6" class="node">
<title>HEAD</title>
<path fill="#fff68f" stroke="#cdbe70" d="M210,-468C210,-468 180,-468 180,-468 174,-468 168,-462 168,-456 168,-456 168,-444 168,-444 168,-438 174,-432 180,-432 180,-432 210,-432 210,-432 216,-432 222,-438 222,-444 222,-444 222,-456 222,-456 222,-462 216,-468 210,-468"/>
<text text-anchor="middle" x="195" y="-447.5" font-family="sans-serif" font-size="10.00" fill="#000000">HEAD</text>
</g>
<!-- HEAD&#45;&gt;universal -->
<g id="edge4" class="edge">
<title>HEAD&#45;&gt;universal</title>
<path fill="none" stroke="#000000" d="M195,-431.8314C195,-424.131 195,-414.9743 195,-406.4166"/>
<polygon fill="#000000" stroke="#000000" points="198.5001,-406.4132 195,-396.4133 191.5001,-406.4133 198.5001,-406.4132"/>
</g>
<!-- bc620 -->
<g id="node8" class="node">
<title>bc620</title>
<path fill="#c6e2ff" stroke="#4a708b" d="M121,-108C121,-108 77,-108 77,-108 71,-108 65,-102 65,-96 65,-96 65,-84 65,-84 65,-78 71,-72 77,-72 77,-72 121,-72 121,-72 127,-72 133,-78 133,-84 133,-84 133,-96 133,-96 133,-102 127,-108 121,-108"/>
<text text-anchor="middle" x="99" y="-93" font-family="sans-serif" font-size="10.00" fill="#000000">bc620</text>
<text text-anchor="middle" x="99" y="-82" font-family="sans-serif" font-size="10.00" fill="#000000">Add return</text>
</g>
<!-- b1485&#45;&gt;bc620 -->
<g id="edge7" class="edge">
<title>b1485&#45;&gt;bc620</title>
<path fill="none" stroke="#000000" d="M99,-143.8314C99,-136.131 99,-126.9743 99,-118.4166"/>
<polygon fill="#000000" stroke="#000000" points="102.5001,-118.4132 99,-108.4133 95.5001,-118.4133 102.5001,-118.4132"/>
</g>
<!-- 76c16 -->
<g id="node9" class="node">
<title>76c16</title>
<path fill="#c6e2ff" stroke="#4a708b" d="M125.5,-36C125.5,-36 72.5,-36 72.5,-36 66.5,-36 60.5,-30 60.5,-24 60.5,-24 60.5,-12 60.5,-12 60.5,-6 66.5,0 72.5,0 72.5,0 125.5,0 125.5,0 131.5,0 137.5,-6 137.5,-12 137.5,-12 137.5,-24 137.5,-24 137.5,-30 131.5,-36 125.5,-36"/>
<text text-anchor="middle" x="99" y="-21" font-family="sans-serif" font-size="10.00" fill="#000000">76c16</text>
<text text-anchor="middle" x="99" y="-10" font-family="sans-serif" font-size="10.00" fill="#000000">First commit</text>
</g>
<!-- bc620&#45;&gt;76c16 -->
<g id="edge8" class="edge">
<title>bc620&#45;&gt;76c16</title>
<path fill="none" stroke="#000000" d="M99,-71.8314C99,-64.131 99,-54.9743 99,-46.4166"/>
<polygon fill="#000000" stroke="#000000" points="102.5001,-46.4132 99,-36.4133 95.5001,-46.4133 102.5001,-46.4132"/>
</g>
</g>
</svg>
