<?xml version="1.0" encoding="UTF-8" standalone="no"?>
<!DOCTYPE svg PUBLIC "-//W3C//DTD SVG 1.1//EN"
 "http://www.w3.org/Graphics/SVG/1.1/DTD/svg11.dtd">
<!-- Generated by graphviz version 2.40.1 (20161225.0304)
 -->
<!-- Title: git history Pages: 1 -->
<svg width="214pt" height="404pt"
 viewBox="0.00 0.00 214.00 404.00" xmlns="http://www.w3.org/2000/svg" xmlns:xlink="http://www.w3.org/1999/xlink">
<g id="graph0" class="graph" transform="scale(1 1) rotate(0) translate(4 400)">
<title>git history</title>
<polygon fill="#ffffff" stroke="transparent" points="-4,4 -4,-400 210,-400 210,4 -4,4"/>
<!-- master -->
<g id="node1" class="node">
<title>master</title>
<path fill="#ffb6c1" stroke="#8b3a3a" d="M42,-324C42,-324 12,-324 12,-324 6,-324 0,-318 0,-312 0,-312 0,-300 0,-300 0,-294 6,-288 12,-288 12,-288 42,-288 42,-288 48,-288 54,-294 54,-300 54,-300 54,-312 54,-312 54,-318 48,-324 42,-324"/>
<text text-anchor="middle" x="27" y="-303.5" font-family="sans-serif" font-size="10.00" fill="#000000">master</text>
</g>
<!-- c1f21 -->
<g id="node2" class="node">
<title>c1f21</title>
<path fill="#c6e2ff" stroke="#4a708b" d="M117.5,-252C117.5,-252 80.5,-252 80.5,-252 74.5,-252 68.5,-246 68.5,-240 68.5,-240 68.5,-228 68.5,-228 68.5,-222 74.5,-216 80.5,-216 80.5,-216 117.5,-216 117.5,-216 123.5,-216 129.5,-222 129.5,-228 129.5,-228 129.5,-240 129.5,-240 129.5,-246 123.5,-252 117.5,-252"/>
<text text-anchor="middle" x="99" y="-237" font-family="sans-serif" font-size="10.00" fill="#000000">c1f21</text>
<text text-anchor="middle" x="99" y="-226" font-family="sans-serif" font-size="10.00" fill="#000000">Add intro</text>
</g>
<!-- master&#45;&gt;c1f21 -->
<g id="edge1" class="edge">
<title>master&#45;&gt;c1f21</title>
<path fill="none" stroke="#000000" d="M45.1686,-287.8314C53.7152,-279.2848 64.0557,-268.9443 73.3802,-259.6198"/>
<polygon fill="#000000" stroke="#000000" points="75.9905,-261.9592 80.5867,-252.4133 71.0408,-257.0095 75.9905,-261.9592"/>
</g>
<!-- b1485 -->
<g id="node6" class="node">
<title>b1485</title>
<path fill="#c6e2ff" stroke="#4a708b" d="M129.5,-180C129.5,-180 68.5,-180 68.5,-180 62.5,-180 56.5,-174 56.5,-168 56.5,-168 56.5,-156 56.5,-156 56.5,-150 62.5,-144 68.5,-144 68.5,-144 129.5,-144 129.5,-144 135.5,-144 141.5,-150 141.5,-156 141.5,-156 141.5,-168 141.5,-168 141.5,-174 135.5,-180 129.5,-180"/>
<text text-anchor="middle" x="99" y="-165" font-family="sans-serif" font-size="10.00" fill="#000000">b1485</text>
<text text-anchor="middle" x="99" y="-154" font-family="sans-serif" font-size="10.00" fill="#000000">Add .gitignore</text>
</g>
<!-- c1f21&#45;&gt;b1485 -->
<g id="edge5" class="edge">
<title>c1f21&#45;&gt;b1485</title>
<path fill="none" stroke="#000000" d="M99,-215.8314C99,-208.131 99,-198.9743 99,-190.4166"/>
<polygon fill="#000000" stroke="#000000" points="102.5001,-190.4132 99,-180.4133 95.5001,-190.4133 102.5001,-190.4132"/>
</g>
<!-- pid -->
<g id="node3" class="node">
<title>pid</title>
<path fill="#ffb6c1" stroke="#8b3a3a" d="M114,-324C114,-324 84,-324 84,-324 78,-324 72,-318 72,-312 72,-312 72,-300 72,-300 72,-294 78,-288 84,-288 84,-288 114,-288 114,-288 120,-288 126,-294 126,-300 126,-300 126,-312 126,-312 126,-318 120,-324 114,-324"/>
<text text-anchor="middle" x="99" y="-303.5" font-family="sans-serif" font-size="10.00" fill="#000000">pid</text>
</g>
<!-- pid&#45;&gt;c1f21 -->
<g id="edge2" class="edge">
<title>pid&#45;&gt;c1f21</title>
<path fill="none" stroke="#000000" d="M99,-287.8314C99,-280.131 99,-270.9743 99,-262.4166"/>
<polygon fill="#000000" stroke="#000000" points="102.5001,-262.4132 99,-252.4133 95.5001,-262.4133 102.5001,-262.4132"/>
</g>
<!-- universal -->
<g id="node4" class="node">
<title>universal</title>
<path fill="#ffb6c1" stroke="#8b3a3a" d="M194,-324C194,-324 156,-324 156,-324 150,-324 144,-318 144,-312 144,-312 144,-300 144,-300 144,-294 150,-288 156,-288 156,-288 194,-288 194,-288 200,-288 206,-294 206,-300 206,-300 206,-312 206,-312 206,-318 200,-324 194,-324"/>
<text text-anchor="middle" x="175" y="-303.5" font-family="sans-serif" font-size="10.00" fill="#000000">universal</text>
</g>
<!-- universal&#45;&gt;c1f21 -->
<g id="edge3" class="edge">
<title>universal&#45;&gt;c1f21</title>
<path fill="none" stroke="#000000" d="M155.822,-287.8314C146.6412,-279.1337 135.4994,-268.5783 125.5224,-259.1265"/>
<polygon fill="#000000" stroke="#000000" points="127.8385,-256.4995 118.1719,-252.1628 123.0243,-261.5811 127.8385,-256.4995"/>
</g>
<!-- HEAD -->
<g id="node5" class="node">
<title>HEAD</title>
<path fill="#fff68f" stroke="#cdbe70" d="M190,-396C190,-396 160,-396 160,-396 154,-396 148,-390 148,-384 148,-384 148,-372 148,-372 148,-366 154,-360 160,-360 160,-360 190,-360 190,-360 196,-360 202,-366 202,-372 202,-372 202,-384 202,-384 202,-390 196,-396 190,-396"/>
<text text-anchor="middle" x="175" y="-375.5" font-family="sans-serif" font-size="10.00" fill="#000000">HEAD</text>
</g>
<!-- HEAD&#45;&gt;universal -->
<g id="edge4" class="edge">
<title>HEAD&#45;&gt;universal</title>
<path fill="none" stroke="#000000" d="M175,-359.8314C175,-352.131 175,-342.9743 175,-334.4166"/>
<polygon fill="#000000" stroke="#000000" points="178.5001,-334.4132 175,-324.4133 171.5001,-334.4133 178.5001,-334.4132"/>
</g>
<!-- bc620 -->
<g id="node7" class="node">
<title>bc620</title>
<path fill="#c6e2ff" stroke="#4a708b" d="M121,-108C121,-108 77,-108 77,-108 71,-108 65,-102 65,-96 65,-96 65,-84 65,-84 65,-78 71,-72 77,-72 77,-72 121,-72 121,-72 127,-72 133,-78 133,-84 133,-84 133,-96 133,-96 133,-102 127,-108 121,-108"/>
<text text-anchor="middle" x="99" y="-93" font-family="sans-serif" font-size="10.00" fill="#000000">bc620</text>
<text text-anchor="middle" x="99" y="-82" font-family="sans-serif" font-size="10.00" fill="#000000">Add return</text>
</g>
<!-- b1485&#45;&gt;bc620 -->
<g id="edge6" class="edge">
<title>b1485&#45;&gt;bc620</title>
<path fill="none" stroke="#000000" d="M99,-143.8314C99,-136.131 99,-126.9743 99,-118.4166"/>
<polygon fill="#000000" stroke="#000000" points="102.5001,-118.4132 99,-108.4133 95.5001,-118.4133 102.5001,-118.4132"/>
</g>
<!-- 76c16 -->
<g id="node8" class="node">
<title>76c16</title>
<path fill="#c6e2ff" stroke="#4a708b" d="M125.5,-36C125.5,-36 72.5,-36 72.5,-36 66.5,-36 60.5,-30 60.5,-24 60.5,-24 60.5,-12 60.5,-12 60.5,-6 66.5,0 72.5,0 72.5,0 125.5,0 125.5,0 131.5,0 137.5,-6 137.5,-12 137.5,-12 137.5,-24 137.5,-24 137.5,-30 131.5,-36 125.5,-36"/>
<text text-anchor="middle" x="99" y="-21" font-family="sans-serif" font-size="10.00" fill="#000000">76c16</text>
<text text-anchor="middle" x="99" y="-10" font-family="sans-serif" font-size="10.00" fill="#000000">First commit</text>
</g>
<!-- bc620&#45;&gt;76c16 -->
<g id="edge7" class="edge">
<title>bc620&#45;&gt;76c16</title>
<path fill="none" stroke="#000000" d="M99,-71.8314C99,-64.131 99,-54.9743 99,-46.4166"/>
<polygon fill="#000000" stroke="#000000" points="102.5001,-46.4132 99,-36.4133 95.5001,-46.4133 102.5001,-46.4132"/>
</g>
</g>
</svg>
