<?xml version="1.0" encoding="UTF-8" standalone="no"?>
<!DOCTYPE svg PUBLIC "-//W3C//DTD SVG 1.1//EN"
 "http://www.w3.org/Graphics/SVG/1.1/DTD/svg11.dtd">
<!-- Generated by graphviz version 2.40.1 (20161225.0304)
 -->
<!-- Title: git history Pages: 1 -->
<svg width="134pt" height="188pt"
 viewBox="0.00 0.00 134.00 188.00" xmlns="http://www.w3.org/2000/svg" xmlns:xlink="http://www.w3.org/1999/xlink">
<g id="graph0" class="graph" transform="scale(1 1) rotate(0) translate(4 184)">
<title>git history</title>
<polygon fill="#ffffff" stroke="transparent" points="-4,4 -4,-184 130,-184 130,4 -4,4"/>
<!-- master -->
<g id="node1" class="node">
<title>master</title>
<path fill="#ffb6c1" stroke="#8b3a3a" d="M114,-108C114,-108 84,-108 84,-108 78,-108 72,-102 72,-96 72,-96 72,-84 72,-84 72,-78 78,-72 84,-72 84,-72 114,-72 114,-72 120,-72 126,-78 126,-84 126,-84 126,-96 126,-96 126,-102 120,-108 114,-108"/>
<text text-anchor="middle" x="99" y="-87.5" font-family="sans-serif" font-size="10.00" fill="#000000">master</text>
</g>
<!-- 76c16 -->
<g id="node2" class="node">
<title>76c16</title>
<path fill="#c6e2ff" stroke="#4a708b" d="M89.5,-36C89.5,-36 36.5,-36 36.5,-36 30.5,-36 24.5,-30 24.5,-24 24.5,-24 24.5,-12 24.5,-12 24.5,-6 30.5,0 36.5,0 36.5,0 89.5,0 89.5,0 95.5,0 101.5,-6 101.5,-12 101.5,-12 101.5,-24 101.5,-24 101.5,-30 95.5,-36 89.5,-36"/>
<text text-anchor="middle" x="63" y="-21" font-family="sans-serif" font-size="10.00" fill="#000000">76c16</text>
<text text-anchor="middle" x="63" y="-10" font-family="sans-serif" font-size="10.00" fill="#000000">First commit</text>
</g>
<!-- master&#45;&gt;76c16 -->
<g id="edge1" class="edge">
<title>master&#45;&gt;76c16</title>
<path fill="none" stroke="#000000" d="M89.9157,-71.8314C85.9385,-63.8771 81.1845,-54.369 76.7861,-45.5723"/>
<polygon fill="#000000" stroke="#000000" points="79.8093,-43.7923 72.2066,-36.4133 73.5483,-46.9228 79.8093,-43.7923"/>
</g>
<!-- hello -->
<g id="node3" class="node">
<title>hello</title>
<path fill="#ffb6c1" stroke="#8b3a3a" d="M42,-108C42,-108 12,-108 12,-108 6,-108 0,-102 0,-96 0,-96 0,-84 0,-84 0,-78 6,-72 12,-72 12,-72 42,-72 42,-72 48,-72 54,-78 54,-84 54,-84 54,-96 54,-96 54,-102 48,-108 42,-108"/>
<text text-anchor="middle" x="27" y="-87.5" font-family="sans-serif" font-size="10.00" fill="#000000">hello</text>
</g>
<!-- hello&#45;&gt;76c16 -->
<g id="edge2" class="edge">
<title>hello&#45;&gt;76c16</title>
<path fill="none" stroke="#000000" d="M36.0843,-71.8314C40.0615,-63.8771 44.8155,-54.369 49.2139,-45.5723"/>
<polygon fill="#000000" stroke="#000000" points="52.4517,-46.9228 53.7934,-36.4133 46.1907,-43.7923 52.4517,-46.9228"/>
</g>
<!-- HEAD -->
<g id="node4" class="node">
<title>HEAD</title>
<path fill="#fff68f" stroke="#cdbe70" d="M114,-180C114,-180 84,-180 84,-180 78,-180 72,-174 72,-168 72,-168 72,-156 72,-156 72,-150 78,-144 84,-144 84,-144 114,-144 114,-144 120,-144 126,-150 126,-156 126,-156 126,-168 126,-168 126,-174 120,-180 114,-180"/>
<text text-anchor="middle" x="99" y="-159.5" font-family="sans-serif" font-size="10.00" fill="#000000">HEAD</text>
</g>
<!-- HEAD&#45;&gt;master -->
<g id="edge3" class="edge">
<title>HEAD&#45;&gt;master</title>
<path fill="none" stroke="#000000" d="M99,-143.8314C99,-136.131 99,-126.9743 99,-118.4166"/>
<polygon fill="#000000" stroke="#000000" points="102.5001,-118.4132 99,-108.4133 95.5001,-118.4133 102.5001,-118.4132"/>
</g>
</g>
</svg>
