<?xml version="1.0" encoding="UTF-8" standalone="no"?>
<!DOCTYPE svg PUBLIC "-//W3C//DTD SVG 1.1//EN"
 "http://www.w3.org/Graphics/SVG/1.1/DTD/svg11.dtd">
<!-- Generated by graphviz version 2.40.1 (20161225.0304)
 -->
<!-- Title: git history Pages: 1 -->
<svg width="322pt" height="548pt"
 viewBox="0.00 0.00 321.50 548.00" xmlns="http://www.w3.org/2000/svg" xmlns:xlink="http://www.w3.org/1999/xlink">
<g id="graph0" class="graph" transform="scale(1 1) rotate(0) translate(4 544)">
<title>git history</title>
<polygon fill="#ffffff" stroke="transparent" points="-4,4 -4,-544 317.5,-544 317.5,4 -4,4"/>
<!-- master -->
<g id="node1" class="node">
<title>master</title>
<path fill="#ffb6c1" stroke="#8b3a3a" d="M279,-468C279,-468 249,-468 249,-468 243,-468 237,-462 237,-456 237,-456 237,-444 237,-444 237,-438 243,-432 249,-432 249,-432 279,-432 279,-432 285,-432 291,-438 291,-444 291,-444 291,-456 291,-456 291,-462 285,-468 279,-468"/>
<text text-anchor="middle" x="264" y="-447.5" font-family="sans-serif" font-size="10.00" fill="#000000">master</text>
</g>
<!-- eda36 -->
<g id="node2" class="node">
<title>eda36</title>
<path fill="#c6e2ff" stroke="#4a708b" d="M301.5,-396C301.5,-396 226.5,-396 226.5,-396 220.5,-396 214.5,-390 214.5,-384 214.5,-384 214.5,-372 214.5,-372 214.5,-366 220.5,-360 226.5,-360 226.5,-360 301.5,-360 301.5,-360 307.5,-360 313.5,-366 313.5,-372 313.5,-372 313.5,-384 313.5,-384 313.5,-390 307.5,-396 301.5,-396"/>
<text text-anchor="middle" x="264" y="-381" font-family="sans-serif" font-size="10.00" fill="#000000">eda36</text>
<text text-anchor="middle" x="264" y="-370" font-family="sans-serif" font-size="10.00" fill="#000000">Add pid/ppid info</text>
</g>
<!-- master&#45;&gt;eda36 -->
<g id="edge1" class="edge">
<title>master&#45;&gt;eda36</title>
<path fill="none" stroke="#000000" d="M264,-431.8314C264,-424.131 264,-414.9743 264,-406.4166"/>
<polygon fill="#000000" stroke="#000000" points="267.5001,-406.4132 264,-396.4133 260.5001,-406.4133 267.5001,-406.4132"/>
</g>
<!-- c35a8 -->
<g id="node6" class="node">
<title>c35a8</title>
<path fill="#c6e2ff" stroke="#4a708b" d="M235,-324C235,-324 179,-324 179,-324 173,-324 167,-318 167,-312 167,-312 167,-300 167,-300 167,-294 173,-288 179,-288 179,-288 235,-288 235,-288 241,-288 247,-294 247,-300 247,-300 247,-312 247,-312 247,-318 241,-324 235,-324"/>
<text text-anchor="middle" x="207" y="-309" font-family="sans-serif" font-size="10.00" fill="#000000">c35a8</text>
<text text-anchor="middle" x="207" y="-298" font-family="sans-serif" font-size="10.00" fill="#000000">Add Makefile</text>
</g>
<!-- eda36&#45;&gt;c35a8 -->
<g id="edge4" class="edge">
<title>eda36&#45;&gt;c35a8</title>
<path fill="none" stroke="#000000" d="M249.6165,-359.8314C243.0514,-351.5386 235.1493,-341.557 227.9422,-332.4533"/>
<polygon fill="#000000" stroke="#000000" points="230.5284,-330.0813 221.5772,-324.4133 225.0401,-334.4262 230.5284,-330.0813"/>
</g>
<!-- universal -->
<g id="node3" class="node">
<title>universal</title>
<path fill="#ffb6c1" stroke="#8b3a3a" d="M117,-468C117,-468 79,-468 79,-468 73,-468 67,-462 67,-456 67,-456 67,-444 67,-444 67,-438 73,-432 79,-432 79,-432 117,-432 117,-432 123,-432 129,-438 129,-444 129,-444 129,-456 129,-456 129,-462 123,-468 117,-468"/>
<text text-anchor="middle" x="98" y="-447.5" font-family="sans-serif" font-size="10.00" fill="#000000">universal</text>
</g>
<!-- 88d2c -->
<g id="node4" class="node">
<title>88d2c</title>
<path fill="#c6e2ff" stroke="#4a708b" d="M184,-396C184,-396 12,-396 12,-396 6,-396 0,-390 0,-384 0,-384 0,-372 0,-372 0,-366 6,-360 12,-360 12,-360 184,-360 184,-360 190,-360 196,-366 196,-372 196,-372 196,-384 196,-384 196,-390 190,-396 184,-396"/>
<text text-anchor="middle" x="98" y="-381" font-family="sans-serif" font-size="10.00" fill="#000000">88d2c</text>
<text text-anchor="middle" x="98" y="-370" font-family="sans-serif" font-size="10.00" fill="#000000">Merge branch &#39;master&#39; into universal</text>
</g>
<!-- universal&#45;&gt;88d2c -->
<g id="edge2" class="edge">
<title>universal&#45;&gt;88d2c</title>
<path fill="none" stroke="#000000" d="M98,-431.8314C98,-424.131 98,-414.9743 98,-406.4166"/>
<polygon fill="#000000" stroke="#000000" points="101.5001,-406.4132 98,-396.4133 94.5001,-406.4133 101.5001,-406.4132"/>
</g>
<!-- 88d2c&#45;&gt;c35a8 -->
<g id="edge6" class="edge">
<title>88d2c&#45;&gt;c35a8</title>
<path fill="none" stroke="#000000" d="M125.5053,-359.8314C139.318,-350.7074 156.2256,-339.539 171.0529,-329.7449"/>
<polygon fill="#000000" stroke="#000000" points="173.0886,-332.5949 179.5035,-324.1628 169.2304,-326.7541 173.0886,-332.5949"/>
</g>
<!-- e0c31 -->
<g id="node7" class="node">
<title>e0c31</title>
<path fill="#c6e2ff" stroke="#4a708b" d="M136.5,-324C136.5,-324 59.5,-324 59.5,-324 53.5,-324 47.5,-318 47.5,-312 47.5,-312 47.5,-300 47.5,-300 47.5,-294 53.5,-288 59.5,-288 59.5,-288 136.5,-288 136.5,-288 142.5,-288 148.5,-294 148.5,-300 148.5,-300 148.5,-312 148.5,-312 148.5,-318 142.5,-324 136.5,-324"/>
<text text-anchor="middle" x="98" y="-309" font-family="sans-serif" font-size="10.00" fill="#000000">e0c31</text>
<text text-anchor="middle" x="98" y="-298" font-family="sans-serif" font-size="10.00" fill="#000000">Make it universal</text>
</g>
<!-- 88d2c&#45;&gt;e0c31 -->
<g id="edge5" class="edge">
<title>88d2c&#45;&gt;e0c31</title>
<path fill="none" stroke="#000000" d="M98,-359.8314C98,-352.131 98,-342.9743 98,-334.4166"/>
<polygon fill="#000000" stroke="#000000" points="101.5001,-334.4132 98,-324.4133 94.5001,-334.4133 101.5001,-334.4132"/>
</g>
<!-- HEAD -->
<g id="node5" class="node">
<title>HEAD</title>
<path fill="#fff68f" stroke="#cdbe70" d="M279,-540C279,-540 249,-540 249,-540 243,-540 237,-534 237,-528 237,-528 237,-516 237,-516 237,-510 243,-504 249,-504 249,-504 279,-504 279,-504 285,-504 291,-510 291,-516 291,-516 291,-528 291,-528 291,-534 285,-540 279,-540"/>
<text text-anchor="middle" x="264" y="-519.5" font-family="sans-serif" font-size="10.00" fill="#000000">HEAD</text>
</g>
<!-- HEAD&#45;&gt;master -->
<g id="edge3" class="edge">
<title>HEAD&#45;&gt;master</title>
<path fill="none" stroke="#000000" d="M264,-503.8314C264,-496.131 264,-486.9743 264,-478.4166"/>
<polygon fill="#000000" stroke="#000000" points="267.5001,-478.4132 264,-468.4133 260.5001,-478.4133 267.5001,-478.4132"/>
</g>
<!-- c1f21 -->
<g id="node8" class="node">
<title>c1f21</title>
<path fill="#c6e2ff" stroke="#4a708b" d="M170.5,-252C170.5,-252 133.5,-252 133.5,-252 127.5,-252 121.5,-246 121.5,-240 121.5,-240 121.5,-228 121.5,-228 121.5,-222 127.5,-216 133.5,-216 133.5,-216 170.5,-216 170.5,-216 176.5,-216 182.5,-222 182.5,-228 182.5,-228 182.5,-240 182.5,-240 182.5,-246 176.5,-252 170.5,-252"/>
<text text-anchor="middle" x="152" y="-237" font-family="sans-serif" font-size="10.00" fill="#000000">c1f21</text>
<text text-anchor="middle" x="152" y="-226" font-family="sans-serif" font-size="10.00" fill="#000000">Add intro</text>
</g>
<!-- c35a8&#45;&gt;c1f21 -->
<g id="edge7" class="edge">
<title>c35a8&#45;&gt;c1f21</title>
<path fill="none" stroke="#000000" d="M193.1212,-287.8314C186.7864,-279.5386 179.1616,-269.557 172.2074,-260.4533"/>
<polygon fill="#000000" stroke="#000000" points="174.9175,-258.2353 166.0657,-252.4133 169.3548,-262.4847 174.9175,-258.2353"/>
</g>
<!-- e0c31&#45;&gt;c1f21 -->
<g id="edge8" class="edge">
<title>e0c31&#45;&gt;c1f21</title>
<path fill="none" stroke="#000000" d="M111.6265,-287.8314C117.846,-279.5386 125.3322,-269.557 132.16,-260.4533"/>
<polygon fill="#000000" stroke="#000000" points="134.99,-262.5133 138.19,-252.4133 129.39,-258.3133 134.99,-262.5133"/>
</g>
<!-- b1485 -->
<g id="node9" class="node">
<title>b1485</title>
<path fill="#c6e2ff" stroke="#4a708b" d="M182.5,-180C182.5,-180 121.5,-180 121.5,-180 115.5,-180 109.5,-174 109.5,-168 109.5,-168 109.5,-156 109.5,-156 109.5,-150 115.5,-144 121.5,-144 121.5,-144 182.5,-144 182.5,-144 188.5,-144 194.5,-150 194.5,-156 194.5,-156 194.5,-168 194.5,-168 194.5,-174 188.5,-180 182.5,-180"/>
<text text-anchor="middle" x="152" y="-165" font-family="sans-serif" font-size="10.00" fill="#000000">b1485</text>
<text text-anchor="middle" x="152" y="-154" font-family="sans-serif" font-size="10.00" fill="#000000">Add .gitignore</text>
</g>
<!-- c1f21&#45;&gt;b1485 -->
<g id="edge9" class="edge">
<title>c1f21&#45;&gt;b1485</title>
<path fill="none" stroke="#000000" d="M152,-215.8314C152,-208.131 152,-198.9743 152,-190.4166"/>
<polygon fill="#000000" stroke="#000000" points="155.5001,-190.4132 152,-180.4133 148.5001,-190.4133 155.5001,-190.4132"/>
</g>
<!-- bc620 -->
<g id="node10" class="node">
<title>bc620</title>
<path fill="#c6e2ff" stroke="#4a708b" d="M174,-108C174,-108 130,-108 130,-108 124,-108 118,-102 118,-96 118,-96 118,-84 118,-84 118,-78 124,-72 130,-72 130,-72 174,-72 174,-72 180,-72 186,-78 186,-84 186,-84 186,-96 186,-96 186,-102 180,-108 174,-108"/>
<text text-anchor="middle" x="152" y="-93" font-family="sans-serif" font-size="10.00" fill="#000000">bc620</text>
<text text-anchor="middle" x="152" y="-82" font-family="sans-serif" font-size="10.00" fill="#000000">Add return</text>
</g>
<!-- b1485&#45;&gt;bc620 -->
<g id="edge10" class="edge">
<title>b1485&#45;&gt;bc620</title>
<path fill="none" stroke="#000000" d="M152,-143.8314C152,-136.131 152,-126.9743 152,-118.4166"/>
<polygon fill="#000000" stroke="#000000" points="155.5001,-118.4132 152,-108.4133 148.5001,-118.4133 155.5001,-118.4132"/>
</g>
<!-- 76c16 -->
<g id="node11" class="node">
<title>76c16</title>
<path fill="#c6e2ff" stroke="#4a708b" d="M178.5,-36C178.5,-36 125.5,-36 125.5,-36 119.5,-36 113.5,-30 113.5,-24 113.5,-24 113.5,-12 113.5,-12 113.5,-6 119.5,0 125.5,0 125.5,0 178.5,0 178.5,0 184.5,0 190.5,-6 190.5,-12 190.5,-12 190.5,-24 190.5,-24 190.5,-30 184.5,-36 178.5,-36"/>
<text text-anchor="middle" x="152" y="-21" font-family="sans-serif" font-size="10.00" fill="#000000">76c16</text>
<text text-anchor="middle" x="152" y="-10" font-family="sans-serif" font-size="10.00" fill="#000000">First commit</text>
</g>
<!-- bc620&#45;&gt;76c16 -->
<g id="edge11" class="edge">
<title>bc620&#45;&gt;76c16</title>
<path fill="none" stroke="#000000" d="M152,-71.8314C152,-64.131 152,-54.9743 152,-46.4166"/>
<polygon fill="#000000" stroke="#000000" points="155.5001,-46.4132 152,-36.4133 148.5001,-46.4133 155.5001,-46.4132"/>
</g>
</g>
</svg>
