<?xml version="1.0" encoding="UTF-8" standalone="no"?>
<!DOCTYPE svg PUBLIC "-//W3C//DTD SVG 1.1//EN"
 "http://www.w3.org/Graphics/SVG/1.1/DTD/svg11.dtd">
<!-- Generated by graphviz version 2.40.1 (20161225.0304)
 -->
<!-- Title: git history Pages: 1 -->
<svg width="394pt" height="548pt"
 viewBox="0.00 0.00 394.00 548.00" xmlns="http://www.w3.org/2000/svg" xmlns:xlink="http://www.w3.org/1999/xlink">
<g id="graph0" class="graph" transform="scale(1 1) rotate(0) translate(4 544)">
<title>git history</title>
<polygon fill="#ffffff" stroke="transparent" points="-4,4 -4,-544 390,-544 390,4 -4,4"/>
<!-- master -->
<g id="node1" class="node">
<title>master</title>
<path fill="#ffb6c1" stroke="#8b3a3a" d="M42,-396C42,-396 12,-396 12,-396 6,-396 0,-390 0,-384 0,-384 0,-372 0,-372 0,-366 6,-360 12,-360 12,-360 42,-360 42,-360 48,-360 54,-366 54,-372 54,-372 54,-384 54,-384 54,-390 48,-396 42,-396"/>
<text text-anchor="middle" x="27" y="-375.5" font-family="sans-serif" font-size="10.00" fill="#000000">master</text>
</g>
<!-- c35a8 -->
<g id="node2" class="node">
<title>c35a8</title>
<path fill="#c6e2ff" stroke="#4a708b" d="M178,-324C178,-324 122,-324 122,-324 116,-324 110,-318 110,-312 110,-312 110,-300 110,-300 110,-294 116,-288 122,-288 122,-288 178,-288 178,-288 184,-288 190,-294 190,-300 190,-300 190,-312 190,-312 190,-318 184,-324 178,-324"/>
<text text-anchor="middle" x="150" y="-309" font-family="sans-serif" font-size="10.00" fill="#000000">c35a8</text>
<text text-anchor="middle" x="150" y="-298" font-family="sans-serif" font-size="10.00" fill="#000000">Add Makefile</text>
</g>
<!-- master&#45;&gt;c35a8 -->
<g id="edge1" class="edge">
<title>master&#45;&gt;c35a8</title>
<path fill="none" stroke="#000000" d="M54.2977,-362.0209C70.7197,-352.408 91.9124,-340.0025 110.179,-329.3099"/>
<polygon fill="#000000" stroke="#000000" points="112.0155,-332.2905 118.8775,-324.2181 108.4792,-326.2494 112.0155,-332.2905"/>
</g>
<!-- c1f21 -->
<g id="node9" class="node">
<title>c1f21</title>
<path fill="#c6e2ff" stroke="#4a708b" d="M222.5,-252C222.5,-252 185.5,-252 185.5,-252 179.5,-252 173.5,-246 173.5,-240 173.5,-240 173.5,-228 173.5,-228 173.5,-222 179.5,-216 185.5,-216 185.5,-216 222.5,-216 222.5,-216 228.5,-216 234.5,-222 234.5,-228 234.5,-228 234.5,-240 234.5,-240 234.5,-246 228.5,-252 222.5,-252"/>
<text text-anchor="middle" x="204" y="-237" font-family="sans-serif" font-size="10.00" fill="#000000">c1f21</text>
<text text-anchor="middle" x="204" y="-226" font-family="sans-serif" font-size="10.00" fill="#000000">Add intro</text>
</g>
<!-- c35a8&#45;&gt;c1f21 -->
<g id="edge8" class="edge">
<title>c35a8&#45;&gt;c1f21</title>
<path fill="none" stroke="#000000" d="M163.6265,-287.8314C169.846,-279.5386 177.3322,-269.557 184.16,-260.4533"/>
<polygon fill="#000000" stroke="#000000" points="186.99,-262.5133 190.19,-252.4133 181.39,-258.3133 186.99,-262.5133"/>
</g>
<!-- pid -->
<g id="node3" class="node">
<title>pid</title>
<path fill="#ffb6c1" stroke="#8b3a3a" d="M137,-468C137,-468 107,-468 107,-468 101,-468 95,-462 95,-456 95,-456 95,-444 95,-444 95,-438 101,-432 107,-432 107,-432 137,-432 137,-432 143,-432 149,-438 149,-444 149,-444 149,-456 149,-456 149,-462 143,-468 137,-468"/>
<text text-anchor="middle" x="122" y="-447.5" font-family="sans-serif" font-size="10.00" fill="#000000">pid</text>
</g>
<!-- eda36 -->
<g id="node4" class="node">
<title>eda36</title>
<path fill="#c6e2ff" stroke="#4a708b" d="M159.5,-396C159.5,-396 84.5,-396 84.5,-396 78.5,-396 72.5,-390 72.5,-384 72.5,-384 72.5,-372 72.5,-372 72.5,-366 78.5,-360 84.5,-360 84.5,-360 159.5,-360 159.5,-360 165.5,-360 171.5,-366 171.5,-372 171.5,-372 171.5,-384 171.5,-384 171.5,-390 165.5,-396 159.5,-396"/>
<text text-anchor="middle" x="122" y="-381" font-family="sans-serif" font-size="10.00" fill="#000000">eda36</text>
<text text-anchor="middle" x="122" y="-370" font-family="sans-serif" font-size="10.00" fill="#000000">Add pid/ppid info</text>
</g>
<!-- pid&#45;&gt;eda36 -->
<g id="edge2" class="edge">
<title>pid&#45;&gt;eda36</title>
<path fill="none" stroke="#000000" d="M122,-431.8314C122,-424.131 122,-414.9743 122,-406.4166"/>
<polygon fill="#000000" stroke="#000000" points="125.5001,-406.4132 122,-396.4133 118.5001,-406.4133 125.5001,-406.4132"/>
</g>
<!-- eda36&#45;&gt;c35a8 -->
<g id="edge5" class="edge">
<title>eda36&#45;&gt;c35a8</title>
<path fill="none" stroke="#000000" d="M129.0656,-359.8314C132.126,-351.9617 135.7779,-342.5712 139.1682,-333.8533"/>
<polygon fill="#000000" stroke="#000000" points="142.4768,-335.0019 142.8393,-324.4133 135.9527,-332.4647 142.4768,-335.0019"/>
</g>
<!-- universal -->
<g id="node5" class="node">
<title>universal</title>
<path fill="#ffb6c1" stroke="#8b3a3a" d="M307,-468C307,-468 269,-468 269,-468 263,-468 257,-462 257,-456 257,-456 257,-444 257,-444 257,-438 263,-432 269,-432 269,-432 307,-432 307,-432 313,-432 319,-438 319,-444 319,-444 319,-456 319,-456 319,-462 313,-468 307,-468"/>
<text text-anchor="middle" x="288" y="-447.5" font-family="sans-serif" font-size="10.00" fill="#000000">universal</text>
</g>
<!-- 88d2c -->
<g id="node6" class="node">
<title>88d2c</title>
<path fill="#c6e2ff" stroke="#4a708b" d="M374,-396C374,-396 202,-396 202,-396 196,-396 190,-390 190,-384 190,-384 190,-372 190,-372 190,-366 196,-360 202,-360 202,-360 374,-360 374,-360 380,-360 386,-366 386,-372 386,-372 386,-384 386,-384 386,-390 380,-396 374,-396"/>
<text text-anchor="middle" x="288" y="-381" font-family="sans-serif" font-size="10.00" fill="#000000">88d2c</text>
<text text-anchor="middle" x="288" y="-370" font-family="sans-serif" font-size="10.00" fill="#000000">Merge branch &#39;master&#39; into universal</text>
</g>
<!-- universal&#45;&gt;88d2c -->
<g id="edge3" class="edge">
<title>universal&#45;&gt;88d2c</title>
<path fill="none" stroke="#000000" d="M288,-431.8314C288,-424.131 288,-414.9743 288,-406.4166"/>
<polygon fill="#000000" stroke="#000000" points="291.5001,-406.4132 288,-396.4133 284.5001,-406.4133 291.5001,-406.4132"/>
</g>
<!-- 88d2c&#45;&gt;c35a8 -->
<g id="edge7" class="edge">
<title>88d2c&#45;&gt;c35a8</title>
<path fill="none" stroke="#000000" d="M253.1768,-359.8314C235.1989,-350.4516 213.0797,-338.9112 193.9384,-328.9244"/>
<polygon fill="#000000" stroke="#000000" points="195.2969,-325.6855 184.8121,-324.1628 192.0589,-331.8916 195.2969,-325.6855"/>
</g>
<!-- e0c31 -->
<g id="node8" class="node">
<title>e0c31</title>
<path fill="#c6e2ff" stroke="#4a708b" d="M311.5,-324C311.5,-324 234.5,-324 234.5,-324 228.5,-324 222.5,-318 222.5,-312 222.5,-312 222.5,-300 222.5,-300 222.5,-294 228.5,-288 234.5,-288 234.5,-288 311.5,-288 311.5,-288 317.5,-288 323.5,-294 323.5,-300 323.5,-300 323.5,-312 323.5,-312 323.5,-318 317.5,-324 311.5,-324"/>
<text text-anchor="middle" x="273" y="-309" font-family="sans-serif" font-size="10.00" fill="#000000">e0c31</text>
<text text-anchor="middle" x="273" y="-298" font-family="sans-serif" font-size="10.00" fill="#000000">Make it universal</text>
</g>
<!-- 88d2c&#45;&gt;e0c31 -->
<g id="edge6" class="edge">
<title>88d2c&#45;&gt;e0c31</title>
<path fill="none" stroke="#000000" d="M284.2149,-359.8314C282.6106,-352.131 280.703,-342.9743 278.9201,-334.4166"/>
<polygon fill="#000000" stroke="#000000" points="282.3021,-333.4892 276.8361,-324.4133 275.4493,-334.9169 282.3021,-333.4892"/>
</g>
<!-- HEAD -->
<g id="node7" class="node">
<title>HEAD</title>
<path fill="#fff68f" stroke="#cdbe70" d="M137,-540C137,-540 107,-540 107,-540 101,-540 95,-534 95,-528 95,-528 95,-516 95,-516 95,-510 101,-504 107,-504 107,-504 137,-504 137,-504 143,-504 149,-510 149,-516 149,-516 149,-528 149,-528 149,-534 143,-540 137,-540"/>
<text text-anchor="middle" x="122" y="-519.5" font-family="sans-serif" font-size="10.00" fill="#000000">HEAD</text>
</g>
<!-- HEAD&#45;&gt;pid -->
<g id="edge4" class="edge">
<title>HEAD&#45;&gt;pid</title>
<path fill="none" stroke="#000000" d="M122,-503.8314C122,-496.131 122,-486.9743 122,-478.4166"/>
<polygon fill="#000000" stroke="#000000" points="125.5001,-478.4132 122,-468.4133 118.5001,-478.4133 125.5001,-478.4132"/>
</g>
<!-- e0c31&#45;&gt;c1f21 -->
<g id="edge9" class="edge">
<title>e0c31&#45;&gt;c1f21</title>
<path fill="none" stroke="#000000" d="M255.5884,-287.8314C247.479,-279.3694 237.6844,-269.1489 228.818,-259.8971"/>
<polygon fill="#000000" stroke="#000000" points="231.0921,-257.2115 221.646,-252.4133 226.0382,-262.0549 231.0921,-257.2115"/>
</g>
<!-- b1485 -->
<g id="node10" class="node">
<title>b1485</title>
<path fill="#c6e2ff" stroke="#4a708b" d="M234.5,-180C234.5,-180 173.5,-180 173.5,-180 167.5,-180 161.5,-174 161.5,-168 161.5,-168 161.5,-156 161.5,-156 161.5,-150 167.5,-144 173.5,-144 173.5,-144 234.5,-144 234.5,-144 240.5,-144 246.5,-150 246.5,-156 246.5,-156 246.5,-168 246.5,-168 246.5,-174 240.5,-180 234.5,-180"/>
<text text-anchor="middle" x="204" y="-165" font-family="sans-serif" font-size="10.00" fill="#000000">b1485</text>
<text text-anchor="middle" x="204" y="-154" font-family="sans-serif" font-size="10.00" fill="#000000">Add .gitignore</text>
</g>
<!-- c1f21&#45;&gt;b1485 -->
<g id="edge10" class="edge">
<title>c1f21&#45;&gt;b1485</title>
<path fill="none" stroke="#000000" d="M204,-215.8314C204,-208.131 204,-198.9743 204,-190.4166"/>
<polygon fill="#000000" stroke="#000000" points="207.5001,-190.4132 204,-180.4133 200.5001,-190.4133 207.5001,-190.4132"/>
</g>
<!-- bc620 -->
<g id="node11" class="node">
<title>bc620</title>
<path fill="#c6e2ff" stroke="#4a708b" d="M226,-108C226,-108 182,-108 182,-108 176,-108 170,-102 170,-96 170,-96 170,-84 170,-84 170,-78 176,-72 182,-72 182,-72 226,-72 226,-72 232,-72 238,-78 238,-84 238,-84 238,-96 238,-96 238,-102 232,-108 226,-108"/>
<text text-anchor="middle" x="204" y="-93" font-family="sans-serif" font-size="10.00" fill="#000000">bc620</text>
<text text-anchor="middle" x="204" y="-82" font-family="sans-serif" font-size="10.00" fill="#000000">Add return</text>
</g>
<!-- b1485&#45;&gt;bc620 -->
<g id="edge11" class="edge">
<title>b1485&#45;&gt;bc620</title>
<path fill="none" stroke="#000000" d="M204,-143.8314C204,-136.131 204,-126.9743 204,-118.4166"/>
<polygon fill="#000000" stroke="#000000" points="207.5001,-118.4132 204,-108.4133 200.5001,-118.4133 207.5001,-118.4132"/>
</g>
<!-- 76c16 -->
<g id="node12" class="node">
<title>76c16</title>
<path fill="#c6e2ff" stroke="#4a708b" d="M230.5,-36C230.5,-36 177.5,-36 177.5,-36 171.5,-36 165.5,-30 165.5,-24 165.5,-24 165.5,-12 165.5,-12 165.5,-6 171.5,0 177.5,0 177.5,0 230.5,0 230.5,0 236.5,0 242.5,-6 242.5,-12 242.5,-12 242.5,-24 242.5,-24 242.5,-30 236.5,-36 230.5,-36"/>
<text text-anchor="middle" x="204" y="-21" font-family="sans-serif" font-size="10.00" fill="#000000">76c16</text>
<text text-anchor="middle" x="204" y="-10" font-family="sans-serif" font-size="10.00" fill="#000000">First commit</text>
</g>
<!-- bc620&#45;&gt;76c16 -->
<g id="edge12" class="edge">
<title>bc620&#45;&gt;76c16</title>
<path fill="none" stroke="#000000" d="M204,-71.8314C204,-64.131 204,-54.9743 204,-46.4166"/>
<polygon fill="#000000" stroke="#000000" points="207.5001,-46.4132 204,-36.4133 200.5001,-46.4133 207.5001,-46.4132"/>
</g>
</g>
</svg>
