<?xml version="1.0" encoding="UTF-8" standalone="no"?>
<!DOCTYPE svg PUBLIC "-//W3C//DTD SVG 1.1//EN"
 "http://www.w3.org/Graphics/SVG/1.1/DTD/svg11.dtd">
<!-- Generated by graphviz version 2.40.1 (20161225.0304)
 -->
<!-- Title: git history Pages: 1 -->
<svg width="322pt" height="620pt"
 viewBox="0.00 0.00 321.50 620.00" xmlns="http://www.w3.org/2000/svg" xmlns:xlink="http://www.w3.org/1999/xlink">
<g id="graph0" class="graph" transform="scale(1 1) rotate(0) translate(4 616)">
<title>git history</title>
<polygon fill="#ffffff" stroke="transparent" points="-4,4 -4,-616 317.5,-616 317.5,4 -4,4"/>
<!-- master -->
<g id="node1" class="node">
<title>master</title>
<path fill="#ffb6c1" stroke="#8b3a3a" d="M64.5,-468C64.5,-468 34.5,-468 34.5,-468 28.5,-468 22.5,-462 22.5,-456 22.5,-456 22.5,-444 22.5,-444 22.5,-438 28.5,-432 34.5,-432 34.5,-432 64.5,-432 64.5,-432 70.5,-432 76.5,-438 76.5,-444 76.5,-444 76.5,-456 76.5,-456 76.5,-462 70.5,-468 64.5,-468"/>
<text text-anchor="middle" x="49.5" y="-447.5" font-family="sans-serif" font-size="10.00" fill="#000000">master</text>
</g>
<!-- eda36 -->
<g id="node2" class="node">
<title>eda36</title>
<path fill="#c6e2ff" stroke="#4a708b" d="M87,-396C87,-396 12,-396 12,-396 6,-396 0,-390 0,-384 0,-384 0,-372 0,-372 0,-366 6,-360 12,-360 12,-360 87,-360 87,-360 93,-360 99,-366 99,-372 99,-372 99,-384 99,-384 99,-390 93,-396 87,-396"/>
<text text-anchor="middle" x="49.5" y="-381" font-family="sans-serif" font-size="10.00" fill="#000000">eda36</text>
<text text-anchor="middle" x="49.5" y="-370" font-family="sans-serif" font-size="10.00" fill="#000000">Add pid/ppid info</text>
</g>
<!-- master&#45;&gt;eda36 -->
<g id="edge1" class="edge">
<title>master&#45;&gt;eda36</title>
<path fill="none" stroke="#000000" d="M49.5,-431.8314C49.5,-424.131 49.5,-414.9743 49.5,-406.4166"/>
<polygon fill="#000000" stroke="#000000" points="53.0001,-406.4132 49.5,-396.4133 46.0001,-406.4133 53.0001,-406.4132"/>
</g>
<!-- c35a8 -->
<g id="node7" class="node">
<title>c35a8</title>
<path fill="#c6e2ff" stroke="#4a708b" d="M134.5,-324C134.5,-324 78.5,-324 78.5,-324 72.5,-324 66.5,-318 66.5,-312 66.5,-312 66.5,-300 66.5,-300 66.5,-294 72.5,-288 78.5,-288 78.5,-288 134.5,-288 134.5,-288 140.5,-288 146.5,-294 146.5,-300 146.5,-300 146.5,-312 146.5,-312 146.5,-318 140.5,-324 134.5,-324"/>
<text text-anchor="middle" x="106.5" y="-309" font-family="sans-serif" font-size="10.00" fill="#000000">c35a8</text>
<text text-anchor="middle" x="106.5" y="-298" font-family="sans-serif" font-size="10.00" fill="#000000">Add Makefile</text>
</g>
<!-- eda36&#45;&gt;c35a8 -->
<g id="edge5" class="edge">
<title>eda36&#45;&gt;c35a8</title>
<path fill="none" stroke="#000000" d="M63.8835,-359.8314C70.4486,-351.5386 78.3507,-341.557 85.5578,-332.4533"/>
<polygon fill="#000000" stroke="#000000" points="88.4599,-334.4262 91.9228,-324.4133 82.9716,-330.0813 88.4599,-334.4262"/>
</g>
<!-- universal -->
<g id="node3" class="node">
<title>universal</title>
<path fill="#ffb6c1" stroke="#8b3a3a" d="M234.5,-540C234.5,-540 196.5,-540 196.5,-540 190.5,-540 184.5,-534 184.5,-528 184.5,-528 184.5,-516 184.5,-516 184.5,-510 190.5,-504 196.5,-504 196.5,-504 234.5,-504 234.5,-504 240.5,-504 246.5,-510 246.5,-516 246.5,-516 246.5,-528 246.5,-528 246.5,-534 240.5,-540 234.5,-540"/>
<text text-anchor="middle" x="215.5" y="-519.5" font-family="sans-serif" font-size="10.00" fill="#000000">universal</text>
</g>
<!-- 6fd2e -->
<g id="node4" class="node">
<title>6fd2e</title>
<path fill="#c6e2ff" stroke="#4a708b" d="M269.5,-468C269.5,-468 161.5,-468 161.5,-468 155.5,-468 149.5,-462 149.5,-456 149.5,-456 149.5,-444 149.5,-444 149.5,-438 155.5,-432 161.5,-432 161.5,-432 269.5,-432 269.5,-432 275.5,-432 281.5,-438 281.5,-444 281.5,-444 281.5,-456 281.5,-456 281.5,-462 275.5,-468 269.5,-468"/>
<text text-anchor="middle" x="215.5" y="-453" font-family="sans-serif" font-size="10.00" fill="#000000">6fd2e</text>
<text text-anchor="middle" x="215.5" y="-442" font-family="sans-serif" font-size="10.00" fill="#000000">Fix SIGSEV without args</text>
</g>
<!-- universal&#45;&gt;6fd2e -->
<g id="edge2" class="edge">
<title>universal&#45;&gt;6fd2e</title>
<path fill="none" stroke="#000000" d="M215.5,-503.8314C215.5,-496.131 215.5,-486.9743 215.5,-478.4166"/>
<polygon fill="#000000" stroke="#000000" points="219.0001,-478.4132 215.5,-468.4133 212.0001,-478.4133 219.0001,-478.4132"/>
</g>
<!-- 88d2c -->
<g id="node6" class="node">
<title>88d2c</title>
<path fill="#c6e2ff" stroke="#4a708b" d="M301.5,-396C301.5,-396 129.5,-396 129.5,-396 123.5,-396 117.5,-390 117.5,-384 117.5,-384 117.5,-372 117.5,-372 117.5,-366 123.5,-360 129.5,-360 129.5,-360 301.5,-360 301.5,-360 307.5,-360 313.5,-366 313.5,-372 313.5,-372 313.5,-384 313.5,-384 313.5,-390 307.5,-396 301.5,-396"/>
<text text-anchor="middle" x="215.5" y="-381" font-family="sans-serif" font-size="10.00" fill="#000000">88d2c</text>
<text text-anchor="middle" x="215.5" y="-370" font-family="sans-serif" font-size="10.00" fill="#000000">Merge branch &#39;master&#39; into universal</text>
</g>
<!-- 6fd2e&#45;&gt;88d2c -->
<g id="edge4" class="edge">
<title>6fd2e&#45;&gt;88d2c</title>
<path fill="none" stroke="#000000" d="M215.5,-431.8314C215.5,-424.131 215.5,-414.9743 215.5,-406.4166"/>
<polygon fill="#000000" stroke="#000000" points="219.0001,-406.4132 215.5,-396.4133 212.0001,-406.4133 219.0001,-406.4132"/>
</g>
<!-- HEAD -->
<g id="node5" class="node">
<title>HEAD</title>
<path fill="#fff68f" stroke="#cdbe70" d="M230.5,-612C230.5,-612 200.5,-612 200.5,-612 194.5,-612 188.5,-606 188.5,-600 188.5,-600 188.5,-588 188.5,-588 188.5,-582 194.5,-576 200.5,-576 200.5,-576 230.5,-576 230.5,-576 236.5,-576 242.5,-582 242.5,-588 242.5,-588 242.5,-600 242.5,-600 242.5,-606 236.5,-612 230.5,-612"/>
<text text-anchor="middle" x="215.5" y="-591.5" font-family="sans-serif" font-size="10.00" fill="#000000">HEAD</text>
</g>
<!-- HEAD&#45;&gt;universal -->
<g id="edge3" class="edge">
<title>HEAD&#45;&gt;universal</title>
<path fill="none" stroke="#000000" d="M215.5,-575.8314C215.5,-568.131 215.5,-558.9743 215.5,-550.4166"/>
<polygon fill="#000000" stroke="#000000" points="219.0001,-550.4132 215.5,-540.4133 212.0001,-550.4133 219.0001,-550.4132"/>
</g>
<!-- 88d2c&#45;&gt;c35a8 -->
<g id="edge7" class="edge">
<title>88d2c&#45;&gt;c35a8</title>
<path fill="none" stroke="#000000" d="M187.9947,-359.8314C174.182,-350.7074 157.2744,-339.539 142.4471,-329.7449"/>
<polygon fill="#000000" stroke="#000000" points="144.2696,-326.7541 133.9965,-324.1628 140.4114,-332.5949 144.2696,-326.7541"/>
</g>
<!-- e0c31 -->
<g id="node8" class="node">
<title>e0c31</title>
<path fill="#c6e2ff" stroke="#4a708b" d="M254,-324C254,-324 177,-324 177,-324 171,-324 165,-318 165,-312 165,-312 165,-300 165,-300 165,-294 171,-288 177,-288 177,-288 254,-288 254,-288 260,-288 266,-294 266,-300 266,-300 266,-312 266,-312 266,-318 260,-324 254,-324"/>
<text text-anchor="middle" x="215.5" y="-309" font-family="sans-serif" font-size="10.00" fill="#000000">e0c31</text>
<text text-anchor="middle" x="215.5" y="-298" font-family="sans-serif" font-size="10.00" fill="#000000">Make it universal</text>
</g>
<!-- 88d2c&#45;&gt;e0c31 -->
<g id="edge6" class="edge">
<title>88d2c&#45;&gt;e0c31</title>
<path fill="none" stroke="#000000" d="M215.5,-359.8314C215.5,-352.131 215.5,-342.9743 215.5,-334.4166"/>
<polygon fill="#000000" stroke="#000000" points="219.0001,-334.4132 215.5,-324.4133 212.0001,-334.4133 219.0001,-334.4132"/>
</g>
<!-- c1f21 -->
<g id="node9" class="node">
<title>c1f21</title>
<path fill="#c6e2ff" stroke="#4a708b" d="M179,-252C179,-252 142,-252 142,-252 136,-252 130,-246 130,-240 130,-240 130,-228 130,-228 130,-222 136,-216 142,-216 142,-216 179,-216 179,-216 185,-216 191,-222 191,-228 191,-228 191,-240 191,-240 191,-246 185,-252 179,-252"/>
<text text-anchor="middle" x="160.5" y="-237" font-family="sans-serif" font-size="10.00" fill="#000000">c1f21</text>
<text text-anchor="middle" x="160.5" y="-226" font-family="sans-serif" font-size="10.00" fill="#000000">Add intro</text>
</g>
<!-- c35a8&#45;&gt;c1f21 -->
<g id="edge8" class="edge">
<title>c35a8&#45;&gt;c1f21</title>
<path fill="none" stroke="#000000" d="M120.1265,-287.8314C126.346,-279.5386 133.8322,-269.557 140.66,-260.4533"/>
<polygon fill="#000000" stroke="#000000" points="143.49,-262.5133 146.69,-252.4133 137.89,-258.3133 143.49,-262.5133"/>
</g>
<!-- e0c31&#45;&gt;c1f21 -->
<g id="edge9" class="edge">
<title>e0c31&#45;&gt;c1f21</title>
<path fill="none" stroke="#000000" d="M201.6212,-287.8314C195.2864,-279.5386 187.6616,-269.557 180.7074,-260.4533"/>
<polygon fill="#000000" stroke="#000000" points="183.4175,-258.2353 174.5657,-252.4133 177.8548,-262.4847 183.4175,-258.2353"/>
</g>
<!-- b1485 -->
<g id="node10" class="node">
<title>b1485</title>
<path fill="#c6e2ff" stroke="#4a708b" d="M191,-180C191,-180 130,-180 130,-180 124,-180 118,-174 118,-168 118,-168 118,-156 118,-156 118,-150 124,-144 130,-144 130,-144 191,-144 191,-144 197,-144 203,-150 203,-156 203,-156 203,-168 203,-168 203,-174 197,-180 191,-180"/>
<text text-anchor="middle" x="160.5" y="-165" font-family="sans-serif" font-size="10.00" fill="#000000">b1485</text>
<text text-anchor="middle" x="160.5" y="-154" font-family="sans-serif" font-size="10.00" fill="#000000">Add .gitignore</text>
</g>
<!-- c1f21&#45;&gt;b1485 -->
<g id="edge10" class="edge">
<title>c1f21&#45;&gt;b1485</title>
<path fill="none" stroke="#000000" d="M160.5,-215.8314C160.5,-208.131 160.5,-198.9743 160.5,-190.4166"/>
<polygon fill="#000000" stroke="#000000" points="164.0001,-190.4132 160.5,-180.4133 157.0001,-190.4133 164.0001,-190.4132"/>
</g>
<!-- bc620 -->
<g id="node11" class="node">
<title>bc620</title>
<path fill="#c6e2ff" stroke="#4a708b" d="M182.5,-108C182.5,-108 138.5,-108 138.5,-108 132.5,-108 126.5,-102 126.5,-96 126.5,-96 126.5,-84 126.5,-84 126.5,-78 132.5,-72 138.5,-72 138.5,-72 182.5,-72 182.5,-72 188.5,-72 194.5,-78 194.5,-84 194.5,-84 194.5,-96 194.5,-96 194.5,-102 188.5,-108 182.5,-108"/>
<text text-anchor="middle" x="160.5" y="-93" font-family="sans-serif" font-size="10.00" fill="#000000">bc620</text>
<text text-anchor="middle" x="160.5" y="-82" font-family="sans-serif" font-size="10.00" fill="#000000">Add return</text>
</g>
<!-- b1485&#45;&gt;bc620 -->
<g id="edge11" class="edge">
<title>b1485&#45;&gt;bc620</title>
<path fill="none" stroke="#000000" d="M160.5,-143.8314C160.5,-136.131 160.5,-126.9743 160.5,-118.4166"/>
<polygon fill="#000000" stroke="#000000" points="164.0001,-118.4132 160.5,-108.4133 157.0001,-118.4133 164.0001,-118.4132"/>
</g>
<!-- 76c16 -->
<g id="node12" class="node">
<title>76c16</title>
<path fill="#c6e2ff" stroke="#4a708b" d="M187,-36C187,-36 134,-36 134,-36 128,-36 122,-30 122,-24 122,-24 122,-12 122,-12 122,-6 128,0 134,0 134,0 187,0 187,0 193,0 199,-6 199,-12 199,-12 199,-24 199,-24 199,-30 193,-36 187,-36"/>
<text text-anchor="middle" x="160.5" y="-21" font-family="sans-serif" font-size="10.00" fill="#000000">76c16</text>
<text text-anchor="middle" x="160.5" y="-10" font-family="sans-serif" font-size="10.00" fill="#000000">First commit</text>
</g>
<!-- bc620&#45;&gt;76c16 -->
<g id="edge12" class="edge">
<title>bc620&#45;&gt;76c16</title>
<path fill="none" stroke="#000000" d="M160.5,-71.8314C160.5,-64.131 160.5,-54.9743 160.5,-46.4166"/>
<polygon fill="#000000" stroke="#000000" points="164.0001,-46.4132 160.5,-36.4133 157.0001,-46.4133 164.0001,-46.4132"/>
</g>
</g>
</svg>
