<?xml version="1.0" encoding="UTF-8" standalone="no"?>
<!DOCTYPE svg PUBLIC "-//W3C//DTD SVG 1.1//EN"
 "http://www.w3.org/Graphics/SVG/1.1/DTD/svg11.dtd">
<!-- Generated by graphviz version 2.40.1 (20161225.0304)
 -->
<!-- Title: git history Pages: 1 -->
<svg width="308pt" height="548pt"
 viewBox="0.00 0.00 308.00 548.00" xmlns="http://www.w3.org/2000/svg" xmlns:xlink="http://www.w3.org/1999/xlink">
<g id="graph0" class="graph" transform="scale(1 1) rotate(0) translate(4 544)">
<title>git history</title>
<polygon fill="#ffffff" stroke="transparent" points="-4,4 -4,-544 304,-544 304,4 -4,4"/>
<!-- master -->
<g id="node1" class="node">
<title>master</title>
<path fill="#ffb6c1" stroke="#8b3a3a" d="M55,-396C55,-396 25,-396 25,-396 19,-396 13,-390 13,-384 13,-384 13,-372 13,-372 13,-366 19,-360 25,-360 25,-360 55,-360 55,-360 61,-360 67,-366 67,-372 67,-372 67,-384 67,-384 67,-390 61,-396 55,-396"/>
<text text-anchor="middle" x="40" y="-375.5" font-family="sans-serif" font-size="10.00" fill="#000000">master</text>
</g>
<!-- c35a8 -->
<g id="node2" class="node">
<title>c35a8</title>
<path fill="#c6e2ff" stroke="#4a708b" d="M68,-324C68,-324 12,-324 12,-324 6,-324 0,-318 0,-312 0,-312 0,-300 0,-300 0,-294 6,-288 12,-288 12,-288 68,-288 68,-288 74,-288 80,-294 80,-300 80,-300 80,-312 80,-312 80,-318 74,-324 68,-324"/>
<text text-anchor="middle" x="40" y="-309" font-family="sans-serif" font-size="10.00" fill="#000000">c35a8</text>
<text text-anchor="middle" x="40" y="-298" font-family="sans-serif" font-size="10.00" fill="#000000">Add Makefile</text>
</g>
<!-- master&#45;&gt;c35a8 -->
<g id="edge1" class="edge">
<title>master&#45;&gt;c35a8</title>
<path fill="none" stroke="#000000" d="M40,-359.8314C40,-352.131 40,-342.9743 40,-334.4166"/>
<polygon fill="#000000" stroke="#000000" points="43.5001,-334.4132 40,-324.4133 36.5001,-334.4133 43.5001,-334.4132"/>
</g>
<!-- c1f21 -->
<g id="node4" class="node">
<title>c1f21</title>
<path fill="#c6e2ff" stroke="#4a708b" d="M143.5,-252C143.5,-252 106.5,-252 106.5,-252 100.5,-252 94.5,-246 94.5,-240 94.5,-240 94.5,-228 94.5,-228 94.5,-222 100.5,-216 106.5,-216 106.5,-216 143.5,-216 143.5,-216 149.5,-216 155.5,-222 155.5,-228 155.5,-228 155.5,-240 155.5,-240 155.5,-246 149.5,-252 143.5,-252"/>
<text text-anchor="middle" x="125" y="-237" font-family="sans-serif" font-size="10.00" fill="#000000">c1f21</text>
<text text-anchor="middle" x="125" y="-226" font-family="sans-serif" font-size="10.00" fill="#000000">Add intro</text>
</g>
<!-- c35a8&#45;&gt;c1f21 -->
<g id="edge7" class="edge">
<title>c35a8&#45;&gt;c1f21</title>
<path fill="none" stroke="#000000" d="M61.4491,-287.8314C71.8178,-279.0485 84.4229,-268.3712 95.6646,-258.8489"/>
<polygon fill="#000000" stroke="#000000" points="98.1895,-261.297 103.5578,-252.1628 93.6651,-255.9556 98.1895,-261.297"/>
</g>
<!-- pid -->
<g id="node3" class="node">
<title>pid</title>
<path fill="#ffb6c1" stroke="#8b3a3a" d="M140,-324C140,-324 110,-324 110,-324 104,-324 98,-318 98,-312 98,-312 98,-300 98,-300 98,-294 104,-288 110,-288 110,-288 140,-288 140,-288 146,-288 152,-294 152,-300 152,-300 152,-312 152,-312 152,-318 146,-324 140,-324"/>
<text text-anchor="middle" x="125" y="-303.5" font-family="sans-serif" font-size="10.00" fill="#000000">pid</text>
</g>
<!-- pid&#45;&gt;c1f21 -->
<g id="edge2" class="edge">
<title>pid&#45;&gt;c1f21</title>
<path fill="none" stroke="#000000" d="M125,-287.8314C125,-280.131 125,-270.9743 125,-262.4166"/>
<polygon fill="#000000" stroke="#000000" points="128.5001,-262.4132 125,-252.4133 121.5001,-262.4133 128.5001,-262.4132"/>
</g>
<!-- b1485 -->
<g id="node9" class="node">
<title>b1485</title>
<path fill="#c6e2ff" stroke="#4a708b" d="M155.5,-180C155.5,-180 94.5,-180 94.5,-180 88.5,-180 82.5,-174 82.5,-168 82.5,-168 82.5,-156 82.5,-156 82.5,-150 88.5,-144 94.5,-144 94.5,-144 155.5,-144 155.5,-144 161.5,-144 167.5,-150 167.5,-156 167.5,-156 167.5,-168 167.5,-168 167.5,-174 161.5,-180 155.5,-180"/>
<text text-anchor="middle" x="125" y="-165" font-family="sans-serif" font-size="10.00" fill="#000000">b1485</text>
<text text-anchor="middle" x="125" y="-154" font-family="sans-serif" font-size="10.00" fill="#000000">Add .gitignore</text>
</g>
<!-- c1f21&#45;&gt;b1485 -->
<g id="edge9" class="edge">
<title>c1f21&#45;&gt;b1485</title>
<path fill="none" stroke="#000000" d="M125,-215.8314C125,-208.131 125,-198.9743 125,-190.4166"/>
<polygon fill="#000000" stroke="#000000" points="128.5001,-190.4132 125,-180.4133 121.5001,-190.4133 128.5001,-190.4132"/>
</g>
<!-- universal -->
<g id="node5" class="node">
<title>universal</title>
<path fill="#ffb6c1" stroke="#8b3a3a" d="M221,-468C221,-468 183,-468 183,-468 177,-468 171,-462 171,-456 171,-456 171,-444 171,-444 171,-438 177,-432 183,-432 183,-432 221,-432 221,-432 227,-432 233,-438 233,-444 233,-444 233,-456 233,-456 233,-462 227,-468 221,-468"/>
<text text-anchor="middle" x="202" y="-447.5" font-family="sans-serif" font-size="10.00" fill="#000000">universal</text>
</g>
<!-- 88d2c -->
<g id="node6" class="node">
<title>88d2c</title>
<path fill="#c6e2ff" stroke="#4a708b" d="M288,-396C288,-396 116,-396 116,-396 110,-396 104,-390 104,-384 104,-384 104,-372 104,-372 104,-366 110,-360 116,-360 116,-360 288,-360 288,-360 294,-360 300,-366 300,-372 300,-372 300,-384 300,-384 300,-390 294,-396 288,-396"/>
<text text-anchor="middle" x="202" y="-381" font-family="sans-serif" font-size="10.00" fill="#000000">88d2c</text>
<text text-anchor="middle" x="202" y="-370" font-family="sans-serif" font-size="10.00" fill="#000000">Merge branch &#39;master&#39; into universal</text>
</g>
<!-- universal&#45;&gt;88d2c -->
<g id="edge3" class="edge">
<title>universal&#45;&gt;88d2c</title>
<path fill="none" stroke="#000000" d="M202,-431.8314C202,-424.131 202,-414.9743 202,-406.4166"/>
<polygon fill="#000000" stroke="#000000" points="205.5001,-406.4132 202,-396.4133 198.5001,-406.4133 205.5001,-406.4132"/>
</g>
<!-- 88d2c&#45;&gt;c35a8 -->
<g id="edge6" class="edge">
<title>88d2c&#45;&gt;c35a8</title>
<path fill="none" stroke="#000000" d="M161.1206,-359.8314C139.2893,-350.1286 112.2559,-338.1137 89.2711,-327.8983"/>
<polygon fill="#000000" stroke="#000000" points="90.5851,-324.6522 80.0255,-323.7891 87.7421,-331.0489 90.5851,-324.6522"/>
</g>
<!-- e0c31 -->
<g id="node8" class="node">
<title>e0c31</title>
<path fill="#c6e2ff" stroke="#4a708b" d="M259.5,-324C259.5,-324 182.5,-324 182.5,-324 176.5,-324 170.5,-318 170.5,-312 170.5,-312 170.5,-300 170.5,-300 170.5,-294 176.5,-288 182.5,-288 182.5,-288 259.5,-288 259.5,-288 265.5,-288 271.5,-294 271.5,-300 271.5,-300 271.5,-312 271.5,-312 271.5,-318 265.5,-324 259.5,-324"/>
<text text-anchor="middle" x="221" y="-309" font-family="sans-serif" font-size="10.00" fill="#000000">e0c31</text>
<text text-anchor="middle" x="221" y="-298" font-family="sans-serif" font-size="10.00" fill="#000000">Make it universal</text>
</g>
<!-- 88d2c&#45;&gt;e0c31 -->
<g id="edge5" class="edge">
<title>88d2c&#45;&gt;e0c31</title>
<path fill="none" stroke="#000000" d="M206.7945,-359.8314C208.8489,-352.0463 211.296,-342.7729 213.5756,-334.1347"/>
<polygon fill="#000000" stroke="#000000" points="216.9735,-334.9753 216.1409,-324.4133 210.2052,-333.1892 216.9735,-334.9753"/>
</g>
<!-- HEAD -->
<g id="node7" class="node">
<title>HEAD</title>
<path fill="#fff68f" stroke="#cdbe70" d="M217,-540C217,-540 187,-540 187,-540 181,-540 175,-534 175,-528 175,-528 175,-516 175,-516 175,-510 181,-504 187,-504 187,-504 217,-504 217,-504 223,-504 229,-510 229,-516 229,-516 229,-528 229,-528 229,-534 223,-540 217,-540"/>
<text text-anchor="middle" x="202" y="-519.5" font-family="sans-serif" font-size="10.00" fill="#000000">HEAD</text>
</g>
<!-- HEAD&#45;&gt;universal -->
<g id="edge4" class="edge">
<title>HEAD&#45;&gt;universal</title>
<path fill="none" stroke="#000000" d="M202,-503.8314C202,-496.131 202,-486.9743 202,-478.4166"/>
<polygon fill="#000000" stroke="#000000" points="205.5001,-478.4132 202,-468.4133 198.5001,-478.4133 205.5001,-478.4132"/>
</g>
<!-- e0c31&#45;&gt;c1f21 -->
<g id="edge8" class="edge">
<title>e0c31&#45;&gt;c1f21</title>
<path fill="none" stroke="#000000" d="M196.7751,-287.8314C184.8372,-278.8779 170.2744,-267.9558 157.394,-258.2955"/>
<polygon fill="#000000" stroke="#000000" points="159.3171,-255.3629 149.2171,-252.1628 155.1171,-260.9629 159.3171,-255.3629"/>
</g>
<!-- bc620 -->
<g id="node10" class="node">
<title>bc620</title>
<path fill="#c6e2ff" stroke="#4a708b" d="M147,-108C147,-108 103,-108 103,-108 97,-108 91,-102 91,-96 91,-96 91,-84 91,-84 91,-78 97,-72 103,-72 103,-72 147,-72 147,-72 153,-72 159,-78 159,-84 159,-84 159,-96 159,-96 159,-102 153,-108 147,-108"/>
<text text-anchor="middle" x="125" y="-93" font-family="sans-serif" font-size="10.00" fill="#000000">bc620</text>
<text text-anchor="middle" x="125" y="-82" font-family="sans-serif" font-size="10.00" fill="#000000">Add return</text>
</g>
<!-- b1485&#45;&gt;bc620 -->
<g id="edge10" class="edge">
<title>b1485&#45;&gt;bc620</title>
<path fill="none" stroke="#000000" d="M125,-143.8314C125,-136.131 125,-126.9743 125,-118.4166"/>
<polygon fill="#000000" stroke="#000000" points="128.5001,-118.4132 125,-108.4133 121.5001,-118.4133 128.5001,-118.4132"/>
</g>
<!-- 76c16 -->
<g id="node11" class="node">
<title>76c16</title>
<path fill="#c6e2ff" stroke="#4a708b" d="M151.5,-36C151.5,-36 98.5,-36 98.5,-36 92.5,-36 86.5,-30 86.5,-24 86.5,-24 86.5,-12 86.5,-12 86.5,-6 92.5,0 98.5,0 98.5,0 151.5,0 151.5,0 157.5,0 163.5,-6 163.5,-12 163.5,-12 163.5,-24 163.5,-24 163.5,-30 157.5,-36 151.5,-36"/>
<text text-anchor="middle" x="125" y="-21" font-family="sans-serif" font-size="10.00" fill="#000000">76c16</text>
<text text-anchor="middle" x="125" y="-10" font-family="sans-serif" font-size="10.00" fill="#000000">First commit</text>
</g>
<!-- bc620&#45;&gt;76c16 -->
<g id="edge11" class="edge">
<title>bc620&#45;&gt;76c16</title>
<path fill="none" stroke="#000000" d="M125,-71.8314C125,-64.131 125,-54.9743 125,-46.4166"/>
<polygon fill="#000000" stroke="#000000" points="128.5001,-46.4132 125,-36.4133 121.5001,-46.4133 128.5001,-46.4132"/>
</g>
</g>
</svg>
