<?xml version="1.0" encoding="UTF-8" standalone="no"?>
<!DOCTYPE svg PUBLIC "-//W3C//DTD SVG 1.1//EN"
 "http://www.w3.org/Graphics/SVG/1.1/DTD/svg11.dtd">
<!-- Generated by graphviz version 2.40.1 (20161225.0304)
 -->
<!-- Title: git history Pages: 1 -->
<svg width="148pt" height="260pt"
 viewBox="0.00 0.00 148.00 260.00" xmlns="http://www.w3.org/2000/svg" xmlns:xlink="http://www.w3.org/1999/xlink">
<g id="graph0" class="graph" transform="scale(1 1) rotate(0) translate(4 256)">
<title>git history</title>
<polygon fill="#ffffff" stroke="transparent" points="-4,4 -4,-256 144,-256 144,4 -4,4"/>
<!-- master -->
<g id="node1" class="node">
<title>master</title>
<path fill="#ffb6c1" stroke="#8b3a3a" d="M121,-180C121,-180 91,-180 91,-180 85,-180 79,-174 79,-168 79,-168 79,-156 79,-156 79,-150 85,-144 91,-144 91,-144 121,-144 121,-144 127,-144 133,-150 133,-156 133,-156 133,-168 133,-168 133,-174 127,-180 121,-180"/>
<text text-anchor="middle" x="106" y="-159.5" font-family="sans-serif" font-size="10.00" fill="#000000">master</text>
</g>
<!-- bc620 -->
<g id="node2" class="node">
<title>bc620</title>
<path fill="#c6e2ff" stroke="#4a708b" d="M128,-108C128,-108 84,-108 84,-108 78,-108 72,-102 72,-96 72,-96 72,-84 72,-84 72,-78 78,-72 84,-72 84,-72 128,-72 128,-72 134,-72 140,-78 140,-84 140,-84 140,-96 140,-96 140,-102 134,-108 128,-108"/>
<text text-anchor="middle" x="106" y="-93" font-family="sans-serif" font-size="10.00" fill="#000000">bc620</text>
<text text-anchor="middle" x="106" y="-82" font-family="sans-serif" font-size="10.00" fill="#000000">Add return</text>
</g>
<!-- master&#45;&gt;bc620 -->
<g id="edge1" class="edge">
<title>master&#45;&gt;bc620</title>
<path fill="none" stroke="#000000" d="M106,-143.8314C106,-136.131 106,-126.9743 106,-118.4166"/>
<polygon fill="#000000" stroke="#000000" points="109.5001,-118.4132 106,-108.4133 102.5001,-118.4133 109.5001,-118.4132"/>
</g>
<!-- 76c16 -->
<g id="node4" class="node">
<title>76c16</title>
<path fill="#c6e2ff" stroke="#4a708b" d="M92.5,-36C92.5,-36 39.5,-36 39.5,-36 33.5,-36 27.5,-30 27.5,-24 27.5,-24 27.5,-12 27.5,-12 27.5,-6 33.5,0 39.5,0 39.5,0 92.5,0 92.5,0 98.5,0 104.5,-6 104.5,-12 104.5,-12 104.5,-24 104.5,-24 104.5,-30 98.5,-36 92.5,-36"/>
<text text-anchor="middle" x="66" y="-21" font-family="sans-serif" font-size="10.00" fill="#000000">76c16</text>
<text text-anchor="middle" x="66" y="-10" font-family="sans-serif" font-size="10.00" fill="#000000">First commit</text>
</g>
<!-- bc620&#45;&gt;76c16 -->
<g id="edge4" class="edge">
<title>bc620&#45;&gt;76c16</title>
<path fill="none" stroke="#000000" d="M95.9063,-71.8314C91.4403,-63.7925 86.0925,-54.1666 81.1621,-45.2918"/>
<polygon fill="#000000" stroke="#000000" points="84.1456,-43.4551 76.2296,-36.4133 78.0265,-46.8546 84.1456,-43.4551"/>
</g>
<!-- hello -->
<g id="node3" class="node">
<title>hello</title>
<path fill="#ffb6c1" stroke="#8b3a3a" d="M42,-108C42,-108 12,-108 12,-108 6,-108 0,-102 0,-96 0,-96 0,-84 0,-84 0,-78 6,-72 12,-72 12,-72 42,-72 42,-72 48,-72 54,-78 54,-84 54,-84 54,-96 54,-96 54,-102 48,-108 42,-108"/>
<text text-anchor="middle" x="27" y="-87.5" font-family="sans-serif" font-size="10.00" fill="#000000">hello</text>
</g>
<!-- hello&#45;&gt;76c16 -->
<g id="edge2" class="edge">
<title>hello&#45;&gt;76c16</title>
<path fill="none" stroke="#000000" d="M36.8413,-71.8314C41.1957,-63.7925 46.4098,-54.1666 51.2169,-45.2918"/>
<polygon fill="#000000" stroke="#000000" points="54.3408,-46.8732 56.0261,-36.4133 48.1857,-43.5392 54.3408,-46.8732"/>
</g>
<!-- HEAD -->
<g id="node5" class="node">
<title>HEAD</title>
<path fill="#fff68f" stroke="#cdbe70" d="M121,-252C121,-252 91,-252 91,-252 85,-252 79,-246 79,-240 79,-240 79,-228 79,-228 79,-222 85,-216 91,-216 91,-216 121,-216 121,-216 127,-216 133,-222 133,-228 133,-228 133,-240 133,-240 133,-246 127,-252 121,-252"/>
<text text-anchor="middle" x="106" y="-231.5" font-family="sans-serif" font-size="10.00" fill="#000000">HEAD</text>
</g>
<!-- HEAD&#45;&gt;master -->
<g id="edge3" class="edge">
<title>HEAD&#45;&gt;master</title>
<path fill="none" stroke="#000000" d="M106,-215.8314C106,-208.131 106,-198.9743 106,-190.4166"/>
<polygon fill="#000000" stroke="#000000" points="109.5001,-190.4132 106,-180.4133 102.5001,-190.4133 109.5001,-190.4132"/>
</g>
</g>
</svg>
