<?xml version="1.0" encoding="UTF-8" standalone="no"?>
<!DOCTYPE svg PUBLIC "-//W3C//DTD SVG 1.1//EN"
 "http://www.w3.org/Graphics/SVG/1.1/DTD/svg11.dtd">
<!-- Generated by graphviz version 2.40.1 (20161225.0304)
 -->
<!-- Title: git history Pages: 1 -->
<svg width="348pt" height="476pt"
 viewBox="0.00 0.00 348.00 476.00" xmlns="http://www.w3.org/2000/svg" xmlns:xlink="http://www.w3.org/1999/xlink">
<g id="graph0" class="graph" transform="scale(1 1) rotate(0) translate(4 472)">
<title>git history</title>
<polygon fill="#ffffff" stroke="transparent" points="-4,4 -4,-472 344,-472 344,4 -4,4"/>
<!-- master -->
<g id="node1" class="node">
<title>master</title>
<path fill="#ffb6c1" stroke="#8b3a3a" d="M42,-396C42,-396 12,-396 12,-396 6,-396 0,-390 0,-384 0,-384 0,-372 0,-372 0,-366 6,-360 12,-360 12,-360 42,-360 42,-360 48,-360 54,-366 54,-372 54,-372 54,-384 54,-384 54,-390 48,-396 42,-396"/>
<text text-anchor="middle" x="27" y="-375.5" font-family="sans-serif" font-size="10.00" fill="#000000">master</text>
</g>
<!-- c35a8 -->
<g id="node2" class="node">
<title>c35a8</title>
<path fill="#c6e2ff" stroke="#4a708b" d="M144,-324C144,-324 88,-324 88,-324 82,-324 76,-318 76,-312 76,-312 76,-300 76,-300 76,-294 82,-288 88,-288 88,-288 144,-288 144,-288 150,-288 156,-294 156,-300 156,-300 156,-312 156,-312 156,-318 150,-324 144,-324"/>
<text text-anchor="middle" x="116" y="-309" font-family="sans-serif" font-size="10.00" fill="#000000">c35a8</text>
<text text-anchor="middle" x="116" y="-298" font-family="sans-serif" font-size="10.00" fill="#000000">Add Makefile</text>
</g>
<!-- master&#45;&gt;c35a8 -->
<g id="edge1" class="edge">
<title>master&#45;&gt;c35a8</title>
<path fill="none" stroke="#000000" d="M49.4585,-359.8314C60.4205,-350.9632 73.7699,-340.1637 85.6265,-330.5718"/>
<polygon fill="#000000" stroke="#000000" points="87.9755,-333.1734 93.5487,-324.1628 83.5729,-327.7313 87.9755,-333.1734"/>
</g>
<!-- c1f21 -->
<g id="node8" class="node">
<title>c1f21</title>
<path fill="#c6e2ff" stroke="#4a708b" d="M188.5,-252C188.5,-252 151.5,-252 151.5,-252 145.5,-252 139.5,-246 139.5,-240 139.5,-240 139.5,-228 139.5,-228 139.5,-222 145.5,-216 151.5,-216 151.5,-216 188.5,-216 188.5,-216 194.5,-216 200.5,-222 200.5,-228 200.5,-228 200.5,-240 200.5,-240 200.5,-246 194.5,-252 188.5,-252"/>
<text text-anchor="middle" x="170" y="-237" font-family="sans-serif" font-size="10.00" fill="#000000">c1f21</text>
<text text-anchor="middle" x="170" y="-226" font-family="sans-serif" font-size="10.00" fill="#000000">Add intro</text>
</g>
<!-- c35a8&#45;&gt;c1f21 -->
<g id="edge7" class="edge">
<title>c35a8&#45;&gt;c1f21</title>
<path fill="none" stroke="#000000" d="M129.6265,-287.8314C135.846,-279.5386 143.3322,-269.557 150.16,-260.4533"/>
<polygon fill="#000000" stroke="#000000" points="152.99,-262.5133 156.19,-252.4133 147.39,-258.3133 152.99,-262.5133"/>
</g>
<!-- pid -->
<g id="node3" class="node">
<title>pid</title>
<path fill="#ffb6c1" stroke="#8b3a3a" d="M114,-396C114,-396 84,-396 84,-396 78,-396 72,-390 72,-384 72,-384 72,-372 72,-372 72,-366 78,-360 84,-360 84,-360 114,-360 114,-360 120,-360 126,-366 126,-372 126,-372 126,-384 126,-384 126,-390 120,-396 114,-396"/>
<text text-anchor="middle" x="99" y="-375.5" font-family="sans-serif" font-size="10.00" fill="#000000">pid</text>
</g>
<!-- pid&#45;&gt;c35a8 -->
<g id="edge2" class="edge">
<title>pid&#45;&gt;c35a8</title>
<path fill="none" stroke="#000000" d="M103.2898,-359.8314C105.108,-352.131 107.2699,-342.9743 109.2905,-334.4166"/>
<polygon fill="#000000" stroke="#000000" points="112.7608,-334.95 111.6524,-324.4133 105.9481,-333.3414 112.7608,-334.95"/>
</g>
<!-- universal -->
<g id="node4" class="node">
<title>universal</title>
<path fill="#ffb6c1" stroke="#8b3a3a" d="M261,-468C261,-468 223,-468 223,-468 217,-468 211,-462 211,-456 211,-456 211,-444 211,-444 211,-438 217,-432 223,-432 223,-432 261,-432 261,-432 267,-432 273,-438 273,-444 273,-444 273,-456 273,-456 273,-462 267,-468 261,-468"/>
<text text-anchor="middle" x="242" y="-447.5" font-family="sans-serif" font-size="10.00" fill="#000000">universal</text>
</g>
<!-- 88d2c -->
<g id="node5" class="node">
<title>88d2c</title>
<path fill="#c6e2ff" stroke="#4a708b" d="M328,-396C328,-396 156,-396 156,-396 150,-396 144,-390 144,-384 144,-384 144,-372 144,-372 144,-366 150,-360 156,-360 156,-360 328,-360 328,-360 334,-360 340,-366 340,-372 340,-372 340,-384 340,-384 340,-390 334,-396 328,-396"/>
<text text-anchor="middle" x="242" y="-381" font-family="sans-serif" font-size="10.00" fill="#000000">88d2c</text>
<text text-anchor="middle" x="242" y="-370" font-family="sans-serif" font-size="10.00" fill="#000000">Merge branch &#39;master&#39; into universal</text>
</g>
<!-- universal&#45;&gt;88d2c -->
<g id="edge3" class="edge">
<title>universal&#45;&gt;88d2c</title>
<path fill="none" stroke="#000000" d="M242,-431.8314C242,-424.131 242,-414.9743 242,-406.4166"/>
<polygon fill="#000000" stroke="#000000" points="245.5001,-406.4132 242,-396.4133 238.5001,-406.4133 245.5001,-406.4132"/>
</g>
<!-- 88d2c&#45;&gt;c35a8 -->
<g id="edge6" class="edge">
<title>88d2c&#45;&gt;c35a8</title>
<path fill="none" stroke="#000000" d="M210.2049,-359.8314C193.9395,-350.5368 173.9614,-339.1208 156.5949,-329.1971"/>
<polygon fill="#000000" stroke="#000000" points="158.2039,-326.0854 147.7849,-324.1628 154.7309,-332.1631 158.2039,-326.0854"/>
</g>
<!-- e0c31 -->
<g id="node7" class="node">
<title>e0c31</title>
<path fill="#c6e2ff" stroke="#4a708b" d="M271.5,-324C271.5,-324 194.5,-324 194.5,-324 188.5,-324 182.5,-318 182.5,-312 182.5,-312 182.5,-300 182.5,-300 182.5,-294 188.5,-288 194.5,-288 194.5,-288 271.5,-288 271.5,-288 277.5,-288 283.5,-294 283.5,-300 283.5,-300 283.5,-312 283.5,-312 283.5,-318 277.5,-324 271.5,-324"/>
<text text-anchor="middle" x="233" y="-309" font-family="sans-serif" font-size="10.00" fill="#000000">e0c31</text>
<text text-anchor="middle" x="233" y="-298" font-family="sans-serif" font-size="10.00" fill="#000000">Make it universal</text>
</g>
<!-- 88d2c&#45;&gt;e0c31 -->
<g id="edge5" class="edge">
<title>88d2c&#45;&gt;e0c31</title>
<path fill="none" stroke="#000000" d="M239.7289,-359.8314C238.7664,-352.131 237.6218,-342.9743 236.5521,-334.4166"/>
<polygon fill="#000000" stroke="#000000" points="240.0151,-333.9019 235.3017,-324.4133 233.0691,-334.7702 240.0151,-333.9019"/>
</g>
<!-- HEAD -->
<g id="node6" class="node">
<title>HEAD</title>
<path fill="#fff68f" stroke="#cdbe70" d="M114,-468C114,-468 84,-468 84,-468 78,-468 72,-462 72,-456 72,-456 72,-444 72,-444 72,-438 78,-432 84,-432 84,-432 114,-432 114,-432 120,-432 126,-438 126,-444 126,-444 126,-456 126,-456 126,-462 120,-468 114,-468"/>
<text text-anchor="middle" x="99" y="-447.5" font-family="sans-serif" font-size="10.00" fill="#000000">HEAD</text>
</g>
<!-- HEAD&#45;&gt;pid -->
<g id="edge4" class="edge">
<title>HEAD&#45;&gt;pid</title>
<path fill="none" stroke="#000000" d="M99,-431.8314C99,-424.131 99,-414.9743 99,-406.4166"/>
<polygon fill="#000000" stroke="#000000" points="102.5001,-406.4132 99,-396.4133 95.5001,-406.4133 102.5001,-406.4132"/>
</g>
<!-- e0c31&#45;&gt;c1f21 -->
<g id="edge8" class="edge">
<title>e0c31&#45;&gt;c1f21</title>
<path fill="none" stroke="#000000" d="M217.1024,-287.8314C209.7722,-279.454 200.934,-269.3531 192.9031,-260.1749"/>
<polygon fill="#000000" stroke="#000000" points="195.3307,-257.6343 186.1116,-252.4133 190.0627,-262.2438 195.3307,-257.6343"/>
</g>
<!-- b1485 -->
<g id="node9" class="node">
<title>b1485</title>
<path fill="#c6e2ff" stroke="#4a708b" d="M200.5,-180C200.5,-180 139.5,-180 139.5,-180 133.5,-180 127.5,-174 127.5,-168 127.5,-168 127.5,-156 127.5,-156 127.5,-150 133.5,-144 139.5,-144 139.5,-144 200.5,-144 200.5,-144 206.5,-144 212.5,-150 212.5,-156 212.5,-156 212.5,-168 212.5,-168 212.5,-174 206.5,-180 200.5,-180"/>
<text text-anchor="middle" x="170" y="-165" font-family="sans-serif" font-size="10.00" fill="#000000">b1485</text>
<text text-anchor="middle" x="170" y="-154" font-family="sans-serif" font-size="10.00" fill="#000000">Add .gitignore</text>
</g>
<!-- c1f21&#45;&gt;b1485 -->
<g id="edge9" class="edge">
<title>c1f21&#45;&gt;b1485</title>
<path fill="none" stroke="#000000" d="M170,-215.8314C170,-208.131 170,-198.9743 170,-190.4166"/>
<polygon fill="#000000" stroke="#000000" points="173.5001,-190.4132 170,-180.4133 166.5001,-190.4133 173.5001,-190.4132"/>
</g>
<!-- bc620 -->
<g id="node10" class="node">
<title>bc620</title>
<path fill="#c6e2ff" stroke="#4a708b" d="M192,-108C192,-108 148,-108 148,-108 142,-108 136,-102 136,-96 136,-96 136,-84 136,-84 136,-78 142,-72 148,-72 148,-72 192,-72 192,-72 198,-72 204,-78 204,-84 204,-84 204,-96 204,-96 204,-102 198,-108 192,-108"/>
<text text-anchor="middle" x="170" y="-93" font-family="sans-serif" font-size="10.00" fill="#000000">bc620</text>
<text text-anchor="middle" x="170" y="-82" font-family="sans-serif" font-size="10.00" fill="#000000">Add return</text>
</g>
<!-- b1485&#45;&gt;bc620 -->
<g id="edge10" class="edge">
<title>b1485&#45;&gt;bc620</title>
<path fill="none" stroke="#000000" d="M170,-143.8314C170,-136.131 170,-126.9743 170,-118.4166"/>
<polygon fill="#000000" stroke="#000000" points="173.5001,-118.4132 170,-108.4133 166.5001,-118.4133 173.5001,-118.4132"/>
</g>
<!-- 76c16 -->
<g id="node11" class="node">
<title>76c16</title>
<path fill="#c6e2ff" stroke="#4a708b" d="M196.5,-36C196.5,-36 143.5,-36 143.5,-36 137.5,-36 131.5,-30 131.5,-24 131.5,-24 131.5,-12 131.5,-12 131.5,-6 137.5,0 143.5,0 143.5,0 196.5,0 196.5,0 202.5,0 208.5,-6 208.5,-12 208.5,-12 208.5,-24 208.5,-24 208.5,-30 202.5,-36 196.5,-36"/>
<text text-anchor="middle" x="170" y="-21" font-family="sans-serif" font-size="10.00" fill="#000000">76c16</text>
<text text-anchor="middle" x="170" y="-10" font-family="sans-serif" font-size="10.00" fill="#000000">First commit</text>
</g>
<!-- bc620&#45;&gt;76c16 -->
<g id="edge11" class="edge">
<title>bc620&#45;&gt;76c16</title>
<path fill="none" stroke="#000000" d="M170,-71.8314C170,-64.131 170,-54.9743 170,-46.4166"/>
<polygon fill="#000000" stroke="#000000" points="173.5001,-46.4132 170,-36.4133 166.5001,-46.4133 173.5001,-46.4132"/>
</g>
</g>
</svg>
