<?xml version="1.0" encoding="UTF-8" standalone="no"?>
<!DOCTYPE svg PUBLIC "-//W3C//DTD SVG 1.1//EN"
 "http://www.w3.org/Graphics/SVG/1.1/DTD/svg11.dtd">
<!-- Generated by graphviz version 2.40.1 (20161225.0304)
 -->
<!-- Title: git history Pages: 1 -->
<svg width="214pt" height="332pt"
 viewBox="0.00 0.00 214.00 332.00" xmlns="http://www.w3.org/2000/svg" xmlns:xlink="http://www.w3.org/1999/xlink">
<g id="graph0" class="graph" transform="scale(1 1) rotate(0) translate(4 328)">
<title>git history</title>
<polygon fill="#ffffff" stroke="transparent" points="-4,4 -4,-328 210,-328 210,4 -4,4"/>
<!-- master -->
<g id="node1" class="node">
<title>master</title>
<path fill="#ffb6c1" stroke="#8b3a3a" d="M194,-252C194,-252 164,-252 164,-252 158,-252 152,-246 152,-240 152,-240 152,-228 152,-228 152,-222 158,-216 164,-216 164,-216 194,-216 194,-216 200,-216 206,-222 206,-228 206,-228 206,-240 206,-240 206,-246 200,-252 194,-252"/>
<text text-anchor="middle" x="179" y="-231.5" font-family="sans-serif" font-size="10.00" fill="#000000">master</text>
</g>
<!-- b1485 -->
<g id="node2" class="node">
<title>b1485</title>
<path fill="#c6e2ff" stroke="#4a708b" d="M133.5,-180C133.5,-180 72.5,-180 72.5,-180 66.5,-180 60.5,-174 60.5,-168 60.5,-168 60.5,-156 60.5,-156 60.5,-150 66.5,-144 72.5,-144 72.5,-144 133.5,-144 133.5,-144 139.5,-144 145.5,-150 145.5,-156 145.5,-156 145.5,-168 145.5,-168 145.5,-174 139.5,-180 133.5,-180"/>
<text text-anchor="middle" x="103" y="-165" font-family="sans-serif" font-size="10.00" fill="#000000">b1485</text>
<text text-anchor="middle" x="103" y="-154" font-family="sans-serif" font-size="10.00" fill="#000000">Add .gitignore</text>
</g>
<!-- master&#45;&gt;b1485 -->
<g id="edge1" class="edge">
<title>master&#45;&gt;b1485</title>
<path fill="none" stroke="#000000" d="M159.822,-215.8314C150.6412,-207.1337 139.4994,-196.5783 129.5224,-187.1265"/>
<polygon fill="#000000" stroke="#000000" points="131.8385,-184.4995 122.1719,-180.1628 127.0243,-189.5811 131.8385,-184.4995"/>
</g>
<!-- bc620 -->
<g id="node6" class="node">
<title>bc620</title>
<path fill="#c6e2ff" stroke="#4a708b" d="M125,-108C125,-108 81,-108 81,-108 75,-108 69,-102 69,-96 69,-96 69,-84 69,-84 69,-78 75,-72 81,-72 81,-72 125,-72 125,-72 131,-72 137,-78 137,-84 137,-84 137,-96 137,-96 137,-102 131,-108 125,-108"/>
<text text-anchor="middle" x="103" y="-93" font-family="sans-serif" font-size="10.00" fill="#000000">bc620</text>
<text text-anchor="middle" x="103" y="-82" font-family="sans-serif" font-size="10.00" fill="#000000">Add return</text>
</g>
<!-- b1485&#45;&gt;bc620 -->
<g id="edge5" class="edge">
<title>b1485&#45;&gt;bc620</title>
<path fill="none" stroke="#000000" d="M103,-143.8314C103,-136.131 103,-126.9743 103,-118.4166"/>
<polygon fill="#000000" stroke="#000000" points="106.5001,-118.4132 103,-108.4133 99.5001,-118.4133 106.5001,-118.4132"/>
</g>
<!-- pid -->
<g id="node3" class="node">
<title>pid</title>
<path fill="#ffb6c1" stroke="#8b3a3a" d="M42,-252C42,-252 12,-252 12,-252 6,-252 0,-246 0,-240 0,-240 0,-228 0,-228 0,-222 6,-216 12,-216 12,-216 42,-216 42,-216 48,-216 54,-222 54,-228 54,-228 54,-240 54,-240 54,-246 48,-252 42,-252"/>
<text text-anchor="middle" x="27" y="-231.5" font-family="sans-serif" font-size="10.00" fill="#000000">pid</text>
</g>
<!-- pid&#45;&gt;b1485 -->
<g id="edge2" class="edge">
<title>pid&#45;&gt;b1485</title>
<path fill="none" stroke="#000000" d="M46.178,-215.8314C55.3588,-207.1337 66.5006,-196.5783 76.4776,-187.1265"/>
<polygon fill="#000000" stroke="#000000" points="78.9757,-189.5811 83.8281,-180.1628 74.1615,-184.4995 78.9757,-189.5811"/>
</g>
<!-- universal -->
<g id="node4" class="node">
<title>universal</title>
<path fill="#ffb6c1" stroke="#8b3a3a" d="M122,-252C122,-252 84,-252 84,-252 78,-252 72,-246 72,-240 72,-240 72,-228 72,-228 72,-222 78,-216 84,-216 84,-216 122,-216 122,-216 128,-216 134,-222 134,-228 134,-228 134,-240 134,-240 134,-246 128,-252 122,-252"/>
<text text-anchor="middle" x="103" y="-231.5" font-family="sans-serif" font-size="10.00" fill="#000000">universal</text>
</g>
<!-- universal&#45;&gt;b1485 -->
<g id="edge3" class="edge">
<title>universal&#45;&gt;b1485</title>
<path fill="none" stroke="#000000" d="M103,-215.8314C103,-208.131 103,-198.9743 103,-190.4166"/>
<polygon fill="#000000" stroke="#000000" points="106.5001,-190.4132 103,-180.4133 99.5001,-190.4133 106.5001,-190.4132"/>
</g>
<!-- HEAD -->
<g id="node5" class="node">
<title>HEAD</title>
<path fill="#fff68f" stroke="#cdbe70" d="M194,-324C194,-324 164,-324 164,-324 158,-324 152,-318 152,-312 152,-312 152,-300 152,-300 152,-294 158,-288 164,-288 164,-288 194,-288 194,-288 200,-288 206,-294 206,-300 206,-300 206,-312 206,-312 206,-318 200,-324 194,-324"/>
<text text-anchor="middle" x="179" y="-303.5" font-family="sans-serif" font-size="10.00" fill="#000000">HEAD</text>
</g>
<!-- HEAD&#45;&gt;master -->
<g id="edge4" class="edge">
<title>HEAD&#45;&gt;master</title>
<path fill="none" stroke="#000000" d="M179,-287.8314C179,-280.131 179,-270.9743 179,-262.4166"/>
<polygon fill="#000000" stroke="#000000" points="182.5001,-262.4132 179,-252.4133 175.5001,-262.4133 182.5001,-262.4132"/>
</g>
<!-- 76c16 -->
<g id="node7" class="node">
<title>76c16</title>
<path fill="#c6e2ff" stroke="#4a708b" d="M129.5,-36C129.5,-36 76.5,-36 76.5,-36 70.5,-36 64.5,-30 64.5,-24 64.5,-24 64.5,-12 64.5,-12 64.5,-6 70.5,0 76.5,0 76.5,0 129.5,0 129.5,0 135.5,0 141.5,-6 141.5,-12 141.5,-12 141.5,-24 141.5,-24 141.5,-30 135.5,-36 129.5,-36"/>
<text text-anchor="middle" x="103" y="-21" font-family="sans-serif" font-size="10.00" fill="#000000">76c16</text>
<text text-anchor="middle" x="103" y="-10" font-family="sans-serif" font-size="10.00" fill="#000000">First commit</text>
</g>
<!-- bc620&#45;&gt;76c16 -->
<g id="edge6" class="edge">
<title>bc620&#45;&gt;76c16</title>
<path fill="none" stroke="#000000" d="M103,-71.8314C103,-64.131 103,-54.9743 103,-46.4166"/>
<polygon fill="#000000" stroke="#000000" points="106.5001,-46.4132 103,-36.4133 99.5001,-46.4133 106.5001,-46.4132"/>
</g>
</g>
</svg>
