<?xml version="1.0" encoding="UTF-8" standalone="no"?>
<!DOCTYPE svg PUBLIC "-//W3C//DTD SVG 1.1//EN"
 "http://www.w3.org/Graphics/SVG/1.1/DTD/svg11.dtd">
<!-- Generated by graphviz version 2.40.1 (20161225.0304)
 -->
<!-- Title: git history Pages: 1 -->
<svg width="222pt" height="404pt"
 viewBox="0.00 0.00 221.50 404.00" xmlns="http://www.w3.org/2000/svg" xmlns:xlink="http://www.w3.org/1999/xlink">
<g id="graph0" class="graph" transform="scale(1 1) rotate(0) translate(4 400)">
<title>git history</title>
<polygon fill="#ffffff" stroke="transparent" points="-4,4 -4,-400 217.5,-400 217.5,4 -4,4"/>
<!-- master -->
<g id="node1" class="node">
<title>master</title>
<path fill="#ffb6c1" stroke="#8b3a3a" d="M198,-324C198,-324 168,-324 168,-324 162,-324 156,-318 156,-312 156,-312 156,-300 156,-300 156,-294 162,-288 168,-288 168,-288 198,-288 198,-288 204,-288 210,-294 210,-300 210,-300 210,-312 210,-312 210,-318 204,-324 198,-324"/>
<text text-anchor="middle" x="183" y="-303.5" font-family="sans-serif" font-size="10.00" fill="#000000">master</text>
</g>
<!-- c1f21 -->
<g id="node2" class="node">
<title>c1f21</title>
<path fill="#c6e2ff" stroke="#4a708b" d="M201.5,-252C201.5,-252 164.5,-252 164.5,-252 158.5,-252 152.5,-246 152.5,-240 152.5,-240 152.5,-228 152.5,-228 152.5,-222 158.5,-216 164.5,-216 164.5,-216 201.5,-216 201.5,-216 207.5,-216 213.5,-222 213.5,-228 213.5,-228 213.5,-240 213.5,-240 213.5,-246 207.5,-252 201.5,-252"/>
<text text-anchor="middle" x="183" y="-237" font-family="sans-serif" font-size="10.00" fill="#000000">c1f21</text>
<text text-anchor="middle" x="183" y="-226" font-family="sans-serif" font-size="10.00" fill="#000000">Add intro</text>
</g>
<!-- master&#45;&gt;c1f21 -->
<g id="edge1" class="edge">
<title>master&#45;&gt;c1f21</title>
<path fill="none" stroke="#000000" d="M183,-287.8314C183,-280.131 183,-270.9743 183,-262.4166"/>
<polygon fill="#000000" stroke="#000000" points="186.5001,-262.4132 183,-252.4133 179.5001,-262.4133 186.5001,-262.4132"/>
</g>
<!-- b1485 -->
<g id="node4" class="node">
<title>b1485</title>
<path fill="#c6e2ff" stroke="#4a708b" d="M133.5,-180C133.5,-180 72.5,-180 72.5,-180 66.5,-180 60.5,-174 60.5,-168 60.5,-168 60.5,-156 60.5,-156 60.5,-150 66.5,-144 72.5,-144 72.5,-144 133.5,-144 133.5,-144 139.5,-144 145.5,-150 145.5,-156 145.5,-156 145.5,-168 145.5,-168 145.5,-174 139.5,-180 133.5,-180"/>
<text text-anchor="middle" x="103" y="-165" font-family="sans-serif" font-size="10.00" fill="#000000">b1485</text>
<text text-anchor="middle" x="103" y="-154" font-family="sans-serif" font-size="10.00" fill="#000000">Add .gitignore</text>
</g>
<!-- c1f21&#45;&gt;b1485 -->
<g id="edge5" class="edge">
<title>c1f21&#45;&gt;b1485</title>
<path fill="none" stroke="#000000" d="M162.8126,-215.8314C153.1486,-207.1337 141.4204,-196.5783 130.9184,-187.1265"/>
<polygon fill="#000000" stroke="#000000" points="132.9553,-184.251 123.1809,-180.1628 128.2725,-189.454 132.9553,-184.251"/>
</g>
<!-- pid -->
<g id="node3" class="node">
<title>pid</title>
<path fill="#ffb6c1" stroke="#8b3a3a" d="M42,-252C42,-252 12,-252 12,-252 6,-252 0,-246 0,-240 0,-240 0,-228 0,-228 0,-222 6,-216 12,-216 12,-216 42,-216 42,-216 48,-216 54,-222 54,-228 54,-228 54,-240 54,-240 54,-246 48,-252 42,-252"/>
<text text-anchor="middle" x="27" y="-231.5" font-family="sans-serif" font-size="10.00" fill="#000000">pid</text>
</g>
<!-- pid&#45;&gt;b1485 -->
<g id="edge2" class="edge">
<title>pid&#45;&gt;b1485</title>
<path fill="none" stroke="#000000" d="M46.178,-215.8314C55.3588,-207.1337 66.5006,-196.5783 76.4776,-187.1265"/>
<polygon fill="#000000" stroke="#000000" points="78.9757,-189.5811 83.8281,-180.1628 74.1615,-184.4995 78.9757,-189.5811"/>
</g>
<!-- bc620 -->
<g id="node7" class="node">
<title>bc620</title>
<path fill="#c6e2ff" stroke="#4a708b" d="M125,-108C125,-108 81,-108 81,-108 75,-108 69,-102 69,-96 69,-96 69,-84 69,-84 69,-78 75,-72 81,-72 81,-72 125,-72 125,-72 131,-72 137,-78 137,-84 137,-84 137,-96 137,-96 137,-102 131,-108 125,-108"/>
<text text-anchor="middle" x="103" y="-93" font-family="sans-serif" font-size="10.00" fill="#000000">bc620</text>
<text text-anchor="middle" x="103" y="-82" font-family="sans-serif" font-size="10.00" fill="#000000">Add return</text>
</g>
<!-- b1485&#45;&gt;bc620 -->
<g id="edge6" class="edge">
<title>b1485&#45;&gt;bc620</title>
<path fill="none" stroke="#000000" d="M103,-143.8314C103,-136.131 103,-126.9743 103,-118.4166"/>
<polygon fill="#000000" stroke="#000000" points="106.5001,-118.4132 103,-108.4133 99.5001,-118.4133 106.5001,-118.4132"/>
</g>
<!-- universal -->
<g id="node5" class="node">
<title>universal</title>
<path fill="#ffb6c1" stroke="#8b3a3a" d="M122,-252C122,-252 84,-252 84,-252 78,-252 72,-246 72,-240 72,-240 72,-228 72,-228 72,-222 78,-216 84,-216 84,-216 122,-216 122,-216 128,-216 134,-222 134,-228 134,-228 134,-240 134,-240 134,-246 128,-252 122,-252"/>
<text text-anchor="middle" x="103" y="-231.5" font-family="sans-serif" font-size="10.00" fill="#000000">universal</text>
</g>
<!-- universal&#45;&gt;b1485 -->
<g id="edge3" class="edge">
<title>universal&#45;&gt;b1485</title>
<path fill="none" stroke="#000000" d="M103,-215.8314C103,-208.131 103,-198.9743 103,-190.4166"/>
<polygon fill="#000000" stroke="#000000" points="106.5001,-190.4132 103,-180.4133 99.5001,-190.4133 106.5001,-190.4132"/>
</g>
<!-- HEAD -->
<g id="node6" class="node">
<title>HEAD</title>
<path fill="#fff68f" stroke="#cdbe70" d="M198,-396C198,-396 168,-396 168,-396 162,-396 156,-390 156,-384 156,-384 156,-372 156,-372 156,-366 162,-360 168,-360 168,-360 198,-360 198,-360 204,-360 210,-366 210,-372 210,-372 210,-384 210,-384 210,-390 204,-396 198,-396"/>
<text text-anchor="middle" x="183" y="-375.5" font-family="sans-serif" font-size="10.00" fill="#000000">HEAD</text>
</g>
<!-- HEAD&#45;&gt;master -->
<g id="edge4" class="edge">
<title>HEAD&#45;&gt;master</title>
<path fill="none" stroke="#000000" d="M183,-359.8314C183,-352.131 183,-342.9743 183,-334.4166"/>
<polygon fill="#000000" stroke="#000000" points="186.5001,-334.4132 183,-324.4133 179.5001,-334.4133 186.5001,-334.4132"/>
</g>
<!-- 76c16 -->
<g id="node8" class="node">
<title>76c16</title>
<path fill="#c6e2ff" stroke="#4a708b" d="M129.5,-36C129.5,-36 76.5,-36 76.5,-36 70.5,-36 64.5,-30 64.5,-24 64.5,-24 64.5,-12 64.5,-12 64.5,-6 70.5,0 76.5,0 76.5,0 129.5,0 129.5,0 135.5,0 141.5,-6 141.5,-12 141.5,-12 141.5,-24 141.5,-24 141.5,-30 135.5,-36 129.5,-36"/>
<text text-anchor="middle" x="103" y="-21" font-family="sans-serif" font-size="10.00" fill="#000000">76c16</text>
<text text-anchor="middle" x="103" y="-10" font-family="sans-serif" font-size="10.00" fill="#000000">First commit</text>
</g>
<!-- bc620&#45;&gt;76c16 -->
<g id="edge7" class="edge">
<title>bc620&#45;&gt;76c16</title>
<path fill="none" stroke="#000000" d="M103,-71.8314C103,-64.131 103,-54.9743 103,-46.4166"/>
<polygon fill="#000000" stroke="#000000" points="106.5001,-46.4132 103,-36.4133 99.5001,-46.4133 106.5001,-46.4132"/>
</g>
</g>
</svg>
