<?xml version="1.0" encoding="UTF-8" standalone="no"?>
<!DOCTYPE svg PUBLIC "-//W3C//DTD SVG 1.1//EN"
 "http://www.w3.org/Graphics/SVG/1.1/DTD/svg11.dtd">
<!-- Generated by graphviz version 2.40.1 (20161225.0304)
 -->
<!-- Title: git history Pages: 1 -->
<svg width="329pt" height="692pt"
 viewBox="0.00 0.00 328.50 692.00" xmlns="http://www.w3.org/2000/svg" xmlns:xlink="http://www.w3.org/1999/xlink">
<g id="graph0" class="graph" transform="scale(1 1) rotate(0) translate(4 688)">
<title>git history</title>
<polygon fill="#ffffff" stroke="transparent" points="-4,4 -4,-688 324.5,-688 324.5,4 -4,4"/>
<!-- master -->
<g id="node1" class="node">
<title>master</title>
<path fill="#ffb6c1" stroke="#8b3a3a" d="M267,-612C267,-612 237,-612 237,-612 231,-612 225,-606 225,-600 225,-600 225,-588 225,-588 225,-582 231,-576 237,-576 237,-576 267,-576 267,-576 273,-576 279,-582 279,-588 279,-588 279,-600 279,-600 279,-606 273,-612 267,-612"/>
<text text-anchor="middle" x="252" y="-591.5" font-family="sans-serif" font-size="10.00" fill="#000000">master</text>
</g>
<!-- 0dd6c -->
<g id="node2" class="node">
<title>0dd6c</title>
<path fill="#c6e2ff" stroke="#4a708b" d="M308.5,-540C308.5,-540 195.5,-540 195.5,-540 189.5,-540 183.5,-534 183.5,-528 183.5,-528 183.5,-516 183.5,-516 183.5,-510 189.5,-504 195.5,-504 195.5,-504 308.5,-504 308.5,-504 314.5,-504 320.5,-510 320.5,-516 320.5,-516 320.5,-528 320.5,-528 320.5,-534 314.5,-540 308.5,-540"/>
<text text-anchor="middle" x="252" y="-525" font-family="sans-serif" font-size="10.00" fill="#000000">0dd6c</text>
<text text-anchor="middle" x="252" y="-514" font-family="sans-serif" font-size="10.00" fill="#000000">Merge branch &#39;universal&#39;</text>
</g>
<!-- master&#45;&gt;0dd6c -->
<g id="edge1" class="edge">
<title>master&#45;&gt;0dd6c</title>
<path fill="none" stroke="#000000" d="M252,-575.8314C252,-568.131 252,-558.9743 252,-550.4166"/>
<polygon fill="#000000" stroke="#000000" points="255.5001,-550.4132 252,-540.4133 248.5001,-550.4133 255.5001,-550.4132"/>
</g>
<!-- 6fd2e -->
<g id="node4" class="node">
<title>6fd2e</title>
<path fill="#c6e2ff" stroke="#4a708b" d="M164,-468C164,-468 56,-468 56,-468 50,-468 44,-462 44,-456 44,-456 44,-444 44,-444 44,-438 50,-432 56,-432 56,-432 164,-432 164,-432 170,-432 176,-438 176,-444 176,-444 176,-456 176,-456 176,-462 170,-468 164,-468"/>
<text text-anchor="middle" x="110" y="-453" font-family="sans-serif" font-size="10.00" fill="#000000">6fd2e</text>
<text text-anchor="middle" x="110" y="-442" font-family="sans-serif" font-size="10.00" fill="#000000">Fix SIGSEV without args</text>
</g>
<!-- 0dd6c&#45;&gt;6fd2e -->
<g id="edge5" class="edge">
<title>0dd6c&#45;&gt;6fd2e</title>
<path fill="none" stroke="#000000" d="M216.1674,-503.8314C197.5843,-494.4089 174.7011,-482.8062 154.9435,-472.7883"/>
<polygon fill="#000000" stroke="#000000" points="156.323,-469.5635 145.8211,-468.1628 153.1573,-475.8069 156.323,-469.5635"/>
</g>
<!-- eda36 -->
<g id="node6" class="node">
<title>eda36</title>
<path fill="#c6e2ff" stroke="#4a708b" d="M301.5,-396C301.5,-396 226.5,-396 226.5,-396 220.5,-396 214.5,-390 214.5,-384 214.5,-384 214.5,-372 214.5,-372 214.5,-366 220.5,-360 226.5,-360 226.5,-360 301.5,-360 301.5,-360 307.5,-360 313.5,-366 313.5,-372 313.5,-372 313.5,-384 313.5,-384 313.5,-390 307.5,-396 301.5,-396"/>
<text text-anchor="middle" x="264" y="-381" font-family="sans-serif" font-size="10.00" fill="#000000">eda36</text>
<text text-anchor="middle" x="264" y="-370" font-family="sans-serif" font-size="10.00" fill="#000000">Add pid/ppid info</text>
</g>
<!-- 0dd6c&#45;&gt;eda36 -->
<g id="edge4" class="edge">
<title>0dd6c&#45;&gt;eda36</title>
<path fill="none" stroke="#000000" d="M253.5198,-503.7623C255.5666,-479.201 259.2294,-435.2474 261.6372,-406.3541"/>
<polygon fill="#000000" stroke="#000000" points="265.1499,-406.3458 262.4925,-396.0896 258.1741,-405.7644 265.1499,-406.3458"/>
</g>
<!-- universal -->
<g id="node3" class="node">
<title>universal</title>
<path fill="#ffb6c1" stroke="#8b3a3a" d="M129,-540C129,-540 91,-540 91,-540 85,-540 79,-534 79,-528 79,-528 79,-516 79,-516 79,-510 85,-504 91,-504 91,-504 129,-504 129,-504 135,-504 141,-510 141,-516 141,-516 141,-528 141,-528 141,-534 135,-540 129,-540"/>
<text text-anchor="middle" x="110" y="-519.5" font-family="sans-serif" font-size="10.00" fill="#000000">universal</text>
</g>
<!-- universal&#45;&gt;6fd2e -->
<g id="edge2" class="edge">
<title>universal&#45;&gt;6fd2e</title>
<path fill="none" stroke="#000000" d="M110,-503.8314C110,-496.131 110,-486.9743 110,-478.4166"/>
<polygon fill="#000000" stroke="#000000" points="113.5001,-478.4132 110,-468.4133 106.5001,-478.4133 113.5001,-478.4132"/>
</g>
<!-- 88d2c -->
<g id="node7" class="node">
<title>88d2c</title>
<path fill="#c6e2ff" stroke="#4a708b" d="M184,-396C184,-396 12,-396 12,-396 6,-396 0,-390 0,-384 0,-384 0,-372 0,-372 0,-366 6,-360 12,-360 12,-360 184,-360 184,-360 190,-360 196,-366 196,-372 196,-372 196,-384 196,-384 196,-390 190,-396 184,-396"/>
<text text-anchor="middle" x="98" y="-381" font-family="sans-serif" font-size="10.00" fill="#000000">88d2c</text>
<text text-anchor="middle" x="98" y="-370" font-family="sans-serif" font-size="10.00" fill="#000000">Merge branch &#39;master&#39; into universal</text>
</g>
<!-- 6fd2e&#45;&gt;88d2c -->
<g id="edge6" class="edge">
<title>6fd2e&#45;&gt;88d2c</title>
<path fill="none" stroke="#000000" d="M106.9719,-431.8314C105.6885,-424.131 104.1624,-414.9743 102.7361,-406.4166"/>
<polygon fill="#000000" stroke="#000000" points="106.1653,-405.7018 101.0689,-396.4133 99.2606,-406.8526 106.1653,-405.7018"/>
</g>
<!-- HEAD -->
<g id="node5" class="node">
<title>HEAD</title>
<path fill="#fff68f" stroke="#cdbe70" d="M267,-684C267,-684 237,-684 237,-684 231,-684 225,-678 225,-672 225,-672 225,-660 225,-660 225,-654 231,-648 237,-648 237,-648 267,-648 267,-648 273,-648 279,-654 279,-660 279,-660 279,-672 279,-672 279,-678 273,-684 267,-684"/>
<text text-anchor="middle" x="252" y="-663.5" font-family="sans-serif" font-size="10.00" fill="#000000">HEAD</text>
</g>
<!-- HEAD&#45;&gt;master -->
<g id="edge3" class="edge">
<title>HEAD&#45;&gt;master</title>
<path fill="none" stroke="#000000" d="M252,-647.8314C252,-640.131 252,-630.9743 252,-622.4166"/>
<polygon fill="#000000" stroke="#000000" points="255.5001,-622.4132 252,-612.4133 248.5001,-622.4133 255.5001,-622.4132"/>
</g>
<!-- c35a8 -->
<g id="node8" class="node">
<title>c35a8</title>
<path fill="#c6e2ff" stroke="#4a708b" d="M235,-324C235,-324 179,-324 179,-324 173,-324 167,-318 167,-312 167,-312 167,-300 167,-300 167,-294 173,-288 179,-288 179,-288 235,-288 235,-288 241,-288 247,-294 247,-300 247,-300 247,-312 247,-312 247,-318 241,-324 235,-324"/>
<text text-anchor="middle" x="207" y="-309" font-family="sans-serif" font-size="10.00" fill="#000000">c35a8</text>
<text text-anchor="middle" x="207" y="-298" font-family="sans-serif" font-size="10.00" fill="#000000">Add Makefile</text>
</g>
<!-- eda36&#45;&gt;c35a8 -->
<g id="edge7" class="edge">
<title>eda36&#45;&gt;c35a8</title>
<path fill="none" stroke="#000000" d="M249.6165,-359.8314C243.0514,-351.5386 235.1493,-341.557 227.9422,-332.4533"/>
<polygon fill="#000000" stroke="#000000" points="230.5284,-330.0813 221.5772,-324.4133 225.0401,-334.4262 230.5284,-330.0813"/>
</g>
<!-- 88d2c&#45;&gt;c35a8 -->
<g id="edge9" class="edge">
<title>88d2c&#45;&gt;c35a8</title>
<path fill="none" stroke="#000000" d="M125.5053,-359.8314C139.318,-350.7074 156.2256,-339.539 171.0529,-329.7449"/>
<polygon fill="#000000" stroke="#000000" points="173.0886,-332.5949 179.5035,-324.1628 169.2304,-326.7541 173.0886,-332.5949"/>
</g>
<!-- e0c31 -->
<g id="node9" class="node">
<title>e0c31</title>
<path fill="#c6e2ff" stroke="#4a708b" d="M136.5,-324C136.5,-324 59.5,-324 59.5,-324 53.5,-324 47.5,-318 47.5,-312 47.5,-312 47.5,-300 47.5,-300 47.5,-294 53.5,-288 59.5,-288 59.5,-288 136.5,-288 136.5,-288 142.5,-288 148.5,-294 148.5,-300 148.5,-300 148.5,-312 148.5,-312 148.5,-318 142.5,-324 136.5,-324"/>
<text text-anchor="middle" x="98" y="-309" font-family="sans-serif" font-size="10.00" fill="#000000">e0c31</text>
<text text-anchor="middle" x="98" y="-298" font-family="sans-serif" font-size="10.00" fill="#000000">Make it universal</text>
</g>
<!-- 88d2c&#45;&gt;e0c31 -->
<g id="edge8" class="edge">
<title>88d2c&#45;&gt;e0c31</title>
<path fill="none" stroke="#000000" d="M98,-359.8314C98,-352.131 98,-342.9743 98,-334.4166"/>
<polygon fill="#000000" stroke="#000000" points="101.5001,-334.4132 98,-324.4133 94.5001,-334.4133 101.5001,-334.4132"/>
</g>
<!-- c1f21 -->
<g id="node10" class="node">
<title>c1f21</title>
<path fill="#c6e2ff" stroke="#4a708b" d="M170.5,-252C170.5,-252 133.5,-252 133.5,-252 127.5,-252 121.5,-246 121.5,-240 121.5,-240 121.5,-228 121.5,-228 121.5,-222 127.5,-216 133.5,-216 133.5,-216 170.5,-216 170.5,-216 176.5,-216 182.5,-222 182.5,-228 182.5,-228 182.5,-240 182.5,-240 182.5,-246 176.5,-252 170.5,-252"/>
<text text-anchor="middle" x="152" y="-237" font-family="sans-serif" font-size="10.00" fill="#000000">c1f21</text>
<text text-anchor="middle" x="152" y="-226" font-family="sans-serif" font-size="10.00" fill="#000000">Add intro</text>
</g>
<!-- c35a8&#45;&gt;c1f21 -->
<g id="edge10" class="edge">
<title>c35a8&#45;&gt;c1f21</title>
<path fill="none" stroke="#000000" d="M193.1212,-287.8314C186.7864,-279.5386 179.1616,-269.557 172.2074,-260.4533"/>
<polygon fill="#000000" stroke="#000000" points="174.9175,-258.2353 166.0657,-252.4133 169.3548,-262.4847 174.9175,-258.2353"/>
</g>
<!-- e0c31&#45;&gt;c1f21 -->
<g id="edge11" class="edge">
<title>e0c31&#45;&gt;c1f21</title>
<path fill="none" stroke="#000000" d="M111.6265,-287.8314C117.846,-279.5386 125.3322,-269.557 132.16,-260.4533"/>
<polygon fill="#000000" stroke="#000000" points="134.99,-262.5133 138.19,-252.4133 129.39,-258.3133 134.99,-262.5133"/>
</g>
<!-- b1485 -->
<g id="node11" class="node">
<title>b1485</title>
<path fill="#c6e2ff" stroke="#4a708b" d="M182.5,-180C182.5,-180 121.5,-180 121.5,-180 115.5,-180 109.5,-174 109.5,-168 109.5,-168 109.5,-156 109.5,-156 109.5,-150 115.5,-144 121.5,-144 121.5,-144 182.5,-144 182.5,-144 188.5,-144 194.5,-150 194.5,-156 194.5,-156 194.5,-168 194.5,-168 194.5,-174 188.5,-180 182.5,-180"/>
<text text-anchor="middle" x="152" y="-165" font-family="sans-serif" font-size="10.00" fill="#000000">b1485</text>
<text text-anchor="middle" x="152" y="-154" font-family="sans-serif" font-size="10.00" fill="#000000">Add .gitignore</text>
</g>
<!-- c1f21&#45;&gt;b1485 -->
<g id="edge12" class="edge">
<title>c1f21&#45;&gt;b1485</title>
<path fill="none" stroke="#000000" d="M152,-215.8314C152,-208.131 152,-198.9743 152,-190.4166"/>
<polygon fill="#000000" stroke="#000000" points="155.5001,-190.4132 152,-180.4133 148.5001,-190.4133 155.5001,-190.4132"/>
</g>
<!-- bc620 -->
<g id="node12" class="node">
<title>bc620</title>
<path fill="#c6e2ff" stroke="#4a708b" d="M174,-108C174,-108 130,-108 130,-108 124,-108 118,-102 118,-96 118,-96 118,-84 118,-84 118,-78 124,-72 130,-72 130,-72 174,-72 174,-72 180,-72 186,-78 186,-84 186,-84 186,-96 186,-96 186,-102 180,-108 174,-108"/>
<text text-anchor="middle" x="152" y="-93" font-family="sans-serif" font-size="10.00" fill="#000000">bc620</text>
<text text-anchor="middle" x="152" y="-82" font-family="sans-serif" font-size="10.00" fill="#000000">Add return</text>
</g>
<!-- b1485&#45;&gt;bc620 -->
<g id="edge13" class="edge">
<title>b1485&#45;&gt;bc620</title>
<path fill="none" stroke="#000000" d="M152,-143.8314C152,-136.131 152,-126.9743 152,-118.4166"/>
<polygon fill="#000000" stroke="#000000" points="155.5001,-118.4132 152,-108.4133 148.5001,-118.4133 155.5001,-118.4132"/>
</g>
<!-- 76c16 -->
<g id="node13" class="node">
<title>76c16</title>
<path fill="#c6e2ff" stroke="#4a708b" d="M178.5,-36C178.5,-36 125.5,-36 125.5,-36 119.5,-36 113.5,-30 113.5,-24 113.5,-24 113.5,-12 113.5,-12 113.5,-6 119.5,0 125.5,0 125.5,0 178.5,0 178.5,0 184.5,0 190.5,-6 190.5,-12 190.5,-12 190.5,-24 190.5,-24 190.5,-30 184.5,-36 178.5,-36"/>
<text text-anchor="middle" x="152" y="-21" font-family="sans-serif" font-size="10.00" fill="#000000">76c16</text>
<text text-anchor="middle" x="152" y="-10" font-family="sans-serif" font-size="10.00" fill="#000000">First commit</text>
</g>
<!-- bc620&#45;&gt;76c16 -->
<g id="edge14" class="edge">
<title>bc620&#45;&gt;76c16</title>
<path fill="none" stroke="#000000" d="M152,-71.8314C152,-64.131 152,-54.9743 152,-46.4166"/>
<polygon fill="#000000" stroke="#000000" points="155.5001,-46.4132 152,-36.4133 148.5001,-46.4133 155.5001,-46.4132"/>
</g>
</g>
</svg>
