<?xml version="1.0" encoding="UTF-8" standalone="no"?>
<!DOCTYPE svg PUBLIC "-//W3C//DTD SVG 1.1//EN"
 "http://www.w3.org/Graphics/SVG/1.1/DTD/svg11.dtd">
<!-- Generated by graphviz version 2.40.1 (20161225.0304)
 -->
<!-- Title: git history Pages: 1 -->
<svg width="280pt" height="476pt"
 viewBox="0.00 0.00 280.00 476.00" xmlns="http://www.w3.org/2000/svg" xmlns:xlink="http://www.w3.org/1999/xlink">
<g id="graph0" class="graph" transform="scale(1 1) rotate(0) translate(4 472)">
<title>git history</title>
<polygon fill="#ffffff" stroke="transparent" points="-4,4 -4,-472 276,-472 276,4 -4,4"/>
<!-- master -->
<g id="node1" class="node">
<title>master</title>
<path fill="#ffb6c1" stroke="#8b3a3a" d="M247,-396C247,-396 217,-396 217,-396 211,-396 205,-390 205,-384 205,-384 205,-372 205,-372 205,-366 211,-360 217,-360 217,-360 247,-360 247,-360 253,-360 259,-366 259,-372 259,-372 259,-384 259,-384 259,-390 253,-396 247,-396"/>
<text text-anchor="middle" x="232" y="-375.5" font-family="sans-serif" font-size="10.00" fill="#000000">master</text>
</g>
<!-- c35a8 -->
<g id="node2" class="node">
<title>c35a8</title>
<path fill="#c6e2ff" stroke="#4a708b" d="M260,-324C260,-324 204,-324 204,-324 198,-324 192,-318 192,-312 192,-312 192,-300 192,-300 192,-294 198,-288 204,-288 204,-288 260,-288 260,-288 266,-288 272,-294 272,-300 272,-300 272,-312 272,-312 272,-318 266,-324 260,-324"/>
<text text-anchor="middle" x="232" y="-309" font-family="sans-serif" font-size="10.00" fill="#000000">c35a8</text>
<text text-anchor="middle" x="232" y="-298" font-family="sans-serif" font-size="10.00" fill="#000000">Add Makefile</text>
</g>
<!-- master&#45;&gt;c35a8 -->
<g id="edge1" class="edge">
<title>master&#45;&gt;c35a8</title>
<path fill="none" stroke="#000000" d="M232,-359.8314C232,-352.131 232,-342.9743 232,-334.4166"/>
<polygon fill="#000000" stroke="#000000" points="235.5001,-334.4132 232,-324.4133 228.5001,-334.4133 235.5001,-334.4132"/>
</g>
<!-- c1f21 -->
<g id="node4" class="node">
<title>c1f21</title>
<path fill="#c6e2ff" stroke="#4a708b" d="M141.5,-252C141.5,-252 104.5,-252 104.5,-252 98.5,-252 92.5,-246 92.5,-240 92.5,-240 92.5,-228 92.5,-228 92.5,-222 98.5,-216 104.5,-216 104.5,-216 141.5,-216 141.5,-216 147.5,-216 153.5,-222 153.5,-228 153.5,-228 153.5,-240 153.5,-240 153.5,-246 147.5,-252 141.5,-252"/>
<text text-anchor="middle" x="123" y="-237" font-family="sans-serif" font-size="10.00" fill="#000000">c1f21</text>
<text text-anchor="middle" x="123" y="-226" font-family="sans-serif" font-size="10.00" fill="#000000">Add intro</text>
</g>
<!-- c35a8&#45;&gt;c1f21 -->
<g id="edge5" class="edge">
<title>c35a8&#45;&gt;c1f21</title>
<path fill="none" stroke="#000000" d="M204.4947,-287.8314C190.682,-278.7074 173.7744,-267.539 158.9471,-257.7449"/>
<polygon fill="#000000" stroke="#000000" points="160.7696,-254.7541 150.4965,-252.1628 156.9114,-260.5949 160.7696,-254.7541"/>
</g>
<!-- pid -->
<g id="node3" class="node">
<title>pid</title>
<path fill="#ffb6c1" stroke="#8b3a3a" d="M42,-324C42,-324 12,-324 12,-324 6,-324 0,-318 0,-312 0,-312 0,-300 0,-300 0,-294 6,-288 12,-288 12,-288 42,-288 42,-288 48,-288 54,-294 54,-300 54,-300 54,-312 54,-312 54,-318 48,-324 42,-324"/>
<text text-anchor="middle" x="27" y="-303.5" font-family="sans-serif" font-size="10.00" fill="#000000">pid</text>
</g>
<!-- pid&#45;&gt;c1f21 -->
<g id="edge2" class="edge">
<title>pid&#45;&gt;c1f21</title>
<path fill="none" stroke="#000000" d="M51.2249,-287.8314C63.1628,-278.8779 77.7256,-267.9558 90.606,-258.2955"/>
<polygon fill="#000000" stroke="#000000" points="92.8829,-260.9629 98.7829,-252.1628 88.6829,-255.3629 92.8829,-260.9629"/>
</g>
<!-- b1485 -->
<g id="node8" class="node">
<title>b1485</title>
<path fill="#c6e2ff" stroke="#4a708b" d="M153.5,-180C153.5,-180 92.5,-180 92.5,-180 86.5,-180 80.5,-174 80.5,-168 80.5,-168 80.5,-156 80.5,-156 80.5,-150 86.5,-144 92.5,-144 92.5,-144 153.5,-144 153.5,-144 159.5,-144 165.5,-150 165.5,-156 165.5,-156 165.5,-168 165.5,-168 165.5,-174 159.5,-180 153.5,-180"/>
<text text-anchor="middle" x="123" y="-165" font-family="sans-serif" font-size="10.00" fill="#000000">b1485</text>
<text text-anchor="middle" x="123" y="-154" font-family="sans-serif" font-size="10.00" fill="#000000">Add .gitignore</text>
</g>
<!-- c1f21&#45;&gt;b1485 -->
<g id="edge7" class="edge">
<title>c1f21&#45;&gt;b1485</title>
<path fill="none" stroke="#000000" d="M123,-215.8314C123,-208.131 123,-198.9743 123,-190.4166"/>
<polygon fill="#000000" stroke="#000000" points="126.5001,-190.4132 123,-180.4133 119.5001,-190.4133 126.5001,-190.4132"/>
</g>
<!-- universal -->
<g id="node5" class="node">
<title>universal</title>
<path fill="#ffb6c1" stroke="#8b3a3a" d="M142,-396C142,-396 104,-396 104,-396 98,-396 92,-390 92,-384 92,-384 92,-372 92,-372 92,-366 98,-360 104,-360 104,-360 142,-360 142,-360 148,-360 154,-366 154,-372 154,-372 154,-384 154,-384 154,-390 148,-396 142,-396"/>
<text text-anchor="middle" x="123" y="-375.5" font-family="sans-serif" font-size="10.00" fill="#000000">universal</text>
</g>
<!-- e0c31 -->
<g id="node6" class="node">
<title>e0c31</title>
<path fill="#c6e2ff" stroke="#4a708b" d="M161.5,-324C161.5,-324 84.5,-324 84.5,-324 78.5,-324 72.5,-318 72.5,-312 72.5,-312 72.5,-300 72.5,-300 72.5,-294 78.5,-288 84.5,-288 84.5,-288 161.5,-288 161.5,-288 167.5,-288 173.5,-294 173.5,-300 173.5,-300 173.5,-312 173.5,-312 173.5,-318 167.5,-324 161.5,-324"/>
<text text-anchor="middle" x="123" y="-309" font-family="sans-serif" font-size="10.00" fill="#000000">e0c31</text>
<text text-anchor="middle" x="123" y="-298" font-family="sans-serif" font-size="10.00" fill="#000000">Make it universal</text>
</g>
<!-- universal&#45;&gt;e0c31 -->
<g id="edge3" class="edge">
<title>universal&#45;&gt;e0c31</title>
<path fill="none" stroke="#000000" d="M123,-359.8314C123,-352.131 123,-342.9743 123,-334.4166"/>
<polygon fill="#000000" stroke="#000000" points="126.5001,-334.4132 123,-324.4133 119.5001,-334.4133 126.5001,-334.4132"/>
</g>
<!-- e0c31&#45;&gt;c1f21 -->
<g id="edge6" class="edge">
<title>e0c31&#45;&gt;c1f21</title>
<path fill="none" stroke="#000000" d="M123,-287.8314C123,-280.131 123,-270.9743 123,-262.4166"/>
<polygon fill="#000000" stroke="#000000" points="126.5001,-262.4132 123,-252.4133 119.5001,-262.4133 126.5001,-262.4132"/>
</g>
<!-- HEAD -->
<g id="node7" class="node">
<title>HEAD</title>
<path fill="#fff68f" stroke="#cdbe70" d="M247,-468C247,-468 217,-468 217,-468 211,-468 205,-462 205,-456 205,-456 205,-444 205,-444 205,-438 211,-432 217,-432 217,-432 247,-432 247,-432 253,-432 259,-438 259,-444 259,-444 259,-456 259,-456 259,-462 253,-468 247,-468"/>
<text text-anchor="middle" x="232" y="-447.5" font-family="sans-serif" font-size="10.00" fill="#000000">HEAD</text>
</g>
<!-- HEAD&#45;&gt;master -->
<g id="edge4" class="edge">
<title>HEAD&#45;&gt;master</title>
<path fill="none" stroke="#000000" d="M232,-431.8314C232,-424.131 232,-414.9743 232,-406.4166"/>
<polygon fill="#000000" stroke="#000000" points="235.5001,-406.4132 232,-396.4133 228.5001,-406.4133 235.5001,-406.4132"/>
</g>
<!-- bc620 -->
<g id="node9" class="node">
<title>bc620</title>
<path fill="#c6e2ff" stroke="#4a708b" d="M145,-108C145,-108 101,-108 101,-108 95,-108 89,-102 89,-96 89,-96 89,-84 89,-84 89,-78 95,-72 101,-72 101,-72 145,-72 145,-72 151,-72 157,-78 157,-84 157,-84 157,-96 157,-96 157,-102 151,-108 145,-108"/>
<text text-anchor="middle" x="123" y="-93" font-family="sans-serif" font-size="10.00" fill="#000000">bc620</text>
<text text-anchor="middle" x="123" y="-82" font-family="sans-serif" font-size="10.00" fill="#000000">Add return</text>
</g>
<!-- b1485&#45;&gt;bc620 -->
<g id="edge8" class="edge">
<title>b1485&#45;&gt;bc620</title>
<path fill="none" stroke="#000000" d="M123,-143.8314C123,-136.131 123,-126.9743 123,-118.4166"/>
<polygon fill="#000000" stroke="#000000" points="126.5001,-118.4132 123,-108.4133 119.5001,-118.4133 126.5001,-118.4132"/>
</g>
<!-- 76c16 -->
<g id="node10" class="node">
<title>76c16</title>
<path fill="#c6e2ff" stroke="#4a708b" d="M149.5,-36C149.5,-36 96.5,-36 96.5,-36 90.5,-36 84.5,-30 84.5,-24 84.5,-24 84.5,-12 84.5,-12 84.5,-6 90.5,0 96.5,0 96.5,0 149.5,0 149.5,0 155.5,0 161.5,-6 161.5,-12 161.5,-12 161.5,-24 161.5,-24 161.5,-30 155.5,-36 149.5,-36"/>
<text text-anchor="middle" x="123" y="-21" font-family="sans-serif" font-size="10.00" fill="#000000">76c16</text>
<text text-anchor="middle" x="123" y="-10" font-family="sans-serif" font-size="10.00" fill="#000000">First commit</text>
</g>
<!-- bc620&#45;&gt;76c16 -->
<g id="edge9" class="edge">
<title>bc620&#45;&gt;76c16</title>
<path fill="none" stroke="#000000" d="M123,-71.8314C123,-64.131 123,-54.9743 123,-46.4166"/>
<polygon fill="#000000" stroke="#000000" points="126.5001,-46.4132 123,-36.4133 119.5001,-46.4133 126.5001,-46.4132"/>
</g>
</g>
</svg>
